# VPXTOOL table OBJ file
# VPXTOOL OBJ file
# numVerts: 116 numFaces: 66
o p66off
v 0.185456 -0.050434 -0.060259
v 0.157758 -0.050434 -0.114618
v 0.157758 -0.002034 -0.114618
v 0.185456 -0.002034 -0.060259
v 0 -0.050434 0.195
v 0.060259 -0.050434 0.185456
v 0.060259 -0.002034 0.185456
v 0 -0.002034 0.195
v -0.157758 -0.050434 -0.114618
v -0.185456 -0.050434 -0.060258
v -0.185456 -0.002034 -0.060258
v -0.157758 -0.002034 -0.114618
v 0.157758 -0.002034 -0.114618
v 0.157758 -0.050434 -0.114618
v 0.114618 -0.050434 -0.157758
v 0.114618 -0.002034 -0.157758
v -0.185456 -0.050434 -0.060258
v -0.195 -0.050434 0
v -0.195 -0.002034 0
v -0.185456 -0.002034 -0.060258
v 0.060259 -0.050434 0.185456
v 0.114618 -0.050434 0.157758
v 0.114618 -0.002034 0.157758
v 0.060259 -0.002034 0.185456
v 0.114618 -0.050434 -0.157758
v 0.060258 -0.050434 -0.185456
v 0.060258 -0.002034 -0.185456
v 0.114618 -0.002034 -0.157758
v -0.195 -0.050434 0
v -0.185456 -0.050434 0.060258
v -0.185456 -0.002034 0.060258
v -0.195 -0.002034 0
v 0.114618 -0.050434 0.157758
v 0.157759 -0.050434 0.114618
v 0.157759 -0.002034 0.114618
v 0.114618 -0.002034 0.157758
v 0.060258 -0.050434 -0.185456
v 0 -0.050434 -0.195
v 0 -0.002034 -0.195
v 0.060258 -0.002034 -0.185456
v -0.185456 -0.050434 0.060258
v -0.157758 -0.050434 0.114618
v -0.157758 -0.002034 0.114618
v -0.185456 -0.002034 0.060258
v 0.157759 -0.050434 0.114618
v 0.185456 -0.050434 0.060258
v 0.185456 -0.002034 0.060258
v 0.157759 -0.002034 0.114618
v 0 -0.050434 -0.195
v -0.060258 -0.050434 -0.185456
v -0.060258 -0.002034 -0.185456
v 0 -0.002034 -0.195
v -0.157758 -0.050434 0.114618
v -0.114618 -0.050434 0.157758
v -0.114618 -0.002034 0.157758
v -0.157758 -0.002034 0.114618
v 0.185456 -0.050434 0.060258
v 0.195 -0.050434 -0
v 0.195 -0.002034 -0
v 0.185456 -0.002034 0.060258
v -0.060258 -0.050434 -0.185456
v -0.114618 -0.050434 -0.157758
v -0.114618 -0.002034 -0.157758
v -0.060258 -0.002034 -0.185456
v -0.114618 -0.050434 0.157758
v -0.060258 -0.050434 0.185456
v -0.060258 -0.002034 0.185456
v -0.114618 -0.002034 0.157758
v 0.195 -0.050434 -0
v 0.185456 -0.050434 -0.060259
v 0.185456 -0.002034 -0.060259
v 0.195 -0.002034 -0
v -0.114618 -0.050434 -0.157758
v -0.157758 -0.050434 -0.114618
v -0.157758 -0.002034 -0.114618
v -0.114618 -0.002034 -0.157758
v -0.060258 -0.050434 0.185456
v 0 -0.050434 0.195
v 0 -0.002034 0.195
v -0.060258 -0.002034 0.185456
v -0.157758 -0.050434 -0.114618
v -0.114618 -0.050434 -0.157758
v -0.060258 -0.050434 -0.185456
v 0 -0.050434 -0.195
v 0.060258 -0.050434 -0.185456
v 0.114618 -0.050434 -0.157758
v 0.157758 -0.050434 -0.114618
v 0.185456 -0.050434 -0.060259
v 0.195 -0.050434 -0
v 0.185456 -0.050434 0.060258
v 0.157759 -0.050434 0.114618
v 0.114618 -0.050434 0.157758
v 0.060259 -0.050434 0.185456
v 0 -0.050434 0.195
v -0.060258 -0.050434 0.185456
v -0.114618 -0.050434 0.157758
v -0.157758 -0.050434 0.114618
v -0.185456 -0.050434 0.060258
v -0.195 -0.050434 0
v -0.185456 -0.050434 -0.060258
v -0.00136 -0.084016 0.016431
v -0.00136 -0.072903 0.016431
v -0.074904 -0.072903 0.016431
v -0.074904 -0.084016 0.016431
v -0.074904 -0.084016 0.05767
v -0.074904 -0.072903 0.05767
v -0.00136 -0.072903 0.05767
v -0.00136 -0.084016 0.05767
v -0.058751 -0.084016 0.000279
v -0.058751 -0.072903 0.000279
v -0.058751 -0.072903 0.073823
v -0.058751 -0.084016 0.073823
v -0.017512 -0.084016 0.073823
v -0.017512 -0.072903 0.073823
v -0.017512 -0.072903 0.000279
v -0.017512 -0.084016 0.000279
vt 0.941501 0.643453
vt 0.875563 0.77286297
vt 0.898309 0.78938901
vt 0.96824 0.65214097
vt 0.500001 0.035777986
vt 0.643453 0.05849898
vt 0.652141 0.031759977
vt 0.500001 0.0076630116
vt 0.124437 0.77286202
vt 0.058499 0.643452
vt 0.031759 0.65214002
vt 0.101691 0.78938901
vt 0.898309 0.78938901
vt 0.875563 0.77286297
vt 0.772863 0.875563025
vt 0.789389 0.89830899
vt 0.058499 0.643452
vt 0.035778 0.5
vt 0.007663 0.5
vt 0.031759 0.65214002
vt 0.643453 0.05849898
vt 0.772863 0.124436975
vt 0.789389 0.10169101
vt 0.652141 0.031759977
vt 0.772863 0.875563025
vt 0.643452 0.94150102
vt 0.652141 0.968240976
vt 0.789389 0.89830899
vt 0.035778 0.5
vt 0.058499 0.356547
vt 0.031759 0.34785903
vt 0.007663 0.5
vt 0.772863 0.124436975
vt 0.875564 0.22713798
vt 0.89831 0.210612
vt 0.789389 0.10169101
vt 0.643452 0.94150102
vt 0.5 0.964222014
vt 0.5 0.9923369884
vt 0.652141 0.968240976
vt 0.058499 0.356547
vt 0.124437 0.22713697
vt 0.101691 0.21061099
vt 0.031759 0.34785903
vt 0.875564 0.22713798
vt 0.941501 0.356548
vt 0.968241 0.34785998
vt 0.89831 0.210612
vt 0.5 0.964222014
vt 0.356548 0.94150102
vt 0.347859 0.968240976
vt 0.5 0.9923369884
vt 0.124437 0.22713697
vt 0.227138 0.124436975
vt 0.210612 0.101689994
vt 0.101691 0.21061099
vt 0.941501 0.356548
vt 0.964222 0.500001
vt 0.992337 0.500001
vt 0.968241 0.34785998
vt 0.356548 0.94150102
vt 0.227137 0.875563025
vt 0.210611 0.89830899
vt 0.347859 0.968240976
vt 0.227138 0.124436975
vt 0.356548 0.05849898
vt 0.34786 0.031759024
vt 0.210612 0.101689994
vt 0.964222 0.500001
vt 0.941501 0.643453
vt 0.96824 0.65214097
vt 0.992337 0.500001
vt 0.227137 0.875563025
vt 0.124437 0.77286202
vt 0.101691 0.78938901
vt 0.210611 0.89830899
vt 0.356548 0.05849898
vt 0.500001 0.035777986
vt 0.500001 0.0076630116
vt 0.34786 0.031759024
vt 0.124437 0.77286202
vt 0.227137 0.875563025
vt 0.356548 0.94150102
vt 0.5 0.964222014
vt 0.643452 0.94150102
vt 0.772863 0.875563025
vt 0.875563 0.77286297
vt 0.941501 0.643453
vt 0.964222 0.500001
vt 0.941501 0.356548
vt 0.875564 0.22713798
vt 0.772863 0.124436975
vt 0.643453 0.05849898
vt 0.500001 0.035777986
vt 0.356548 0.05849898
vt 0.227138 0.124436975
vt 0.124437 0.22713697
vt 0.058499 0.356547
vt 0.035778 0.5
vt 0.058499 0.643452
vt 0 0
vt 0 0
vt 0 0
vt 0 0
vt 0 0
vt 0 0
vt 0 0
vt 0 0
vt 0 0
vt 0 0
vt 0 0
vt 0 0
vt 0 0
vt 0 0
vt 0 0
vt 0 0
vn -0.891 0 0.454
vn -0.891 0 0.454
vn -0.891 0 0.454
vn -0.891 0 0.454
vn -0.1564 0 -0.9877
vn -0.1564 0 -0.9877
vn -0.1564 0 -0.9877
vn -0.1564 0 -0.9877
vn 0.891 0 0.454
vn 0.891 0 0.454
vn 0.891 0 0.454
vn 0.891 0 0.454
vn -0.7071 0 0.7071
vn -0.7071 0 0.7071
vn -0.7071 0 0.7071
vn -0.7071 0 0.7071
vn 0.9877 0 0.1564
vn 0.9877 0 0.1564
vn 0.9877 0 0.1564
vn 0.9877 0 0.1564
vn -0.454 0 -0.891
vn -0.454 0 -0.891
vn -0.454 0 -0.891
vn -0.454 0 -0.891
vn -0.454 0 0.891
vn -0.454 0 0.891
vn -0.454 0 0.891
vn -0.454 0 0.891
vn 0.9877 0 -0.1564
vn 0.9877 0 -0.1564
vn 0.9877 0 -0.1564
vn 0.9877 0 -0.1564
vn -0.7071 0 -0.7071
vn -0.7071 0 -0.7071
vn -0.7071 0 -0.7071
vn -0.7071 0 -0.7071
vn -0.1564 0 0.9877
vn -0.1564 0 0.9877
vn -0.1564 0 0.9877
vn -0.1564 0 0.9877
vn 0.891 0 -0.454
vn 0.891 0 -0.454
vn 0.891 0 -0.454
vn 0.891 0 -0.454
vn -0.891 0 -0.454
vn -0.891 0 -0.454
vn -0.891 0 -0.454
vn -0.891 0 -0.454
vn 0.1564 0 0.9877
vn 0.1564 0 0.9877
vn 0.1564 0 0.9877
vn 0.1564 0 0.9877
vn 0.7071 0 -0.7071
vn 0.7071 0 -0.7071
vn 0.7071 0 -0.7071
vn 0.7071 0 -0.7071
vn -0.9877 0 -0.1564
vn -0.9877 0 -0.1564
vn -0.9877 0 -0.1564
vn -0.9877 0 -0.1564
vn 0.454 0 0.891
vn 0.454 0 0.891
vn 0.454 0 0.891
vn 0.454 0 0.891
vn 0.454 0 -0.891
vn 0.454 0 -0.891
vn 0.454 0 -0.891
vn 0.454 0 -0.891
vn -0.9877 0 0.1564
vn -0.9877 0 0.1564
vn -0.9877 0 0.1564
vn -0.9877 0 0.1564
vn 0.7071 0 0.7071
vn 0.7071 0 0.7071
vn 0.7071 0 0.7071
vn 0.7071 0 0.7071
vn 0.1564 0 -0.9877
vn 0.1564 0 -0.9877
vn 0.1564 0 -0.9877
vn 0.1564 0 -0.9877
vn -0 1 0
vn -0 1 0
vn -0 1 0
vn -0 1 0
vn -0 1 0
vn -0 1 0
vn -0 1 0
vn -0 1 0
vn -0 1 0
vn -0 1 0
vn -0 1 0
vn -0 1 0
vn -0 1 0
vn -0 1 0
vn -0 1 0
vn -0 1 0
vn -0 1 0
vn -0 1 0
vn -0 1 0
vn -0 1 0
vn -0 -0 -1
vn -0 -0 -1
vn -0 -0 -1
vn -0 -0 -1
vn 0 0 1
vn 0 0 1
vn 0 0 1
vn 0 0 1
vn -1 0 0
vn -1 0 0
vn -1 0 0
vn -1 0 0
vn 1 0 0
vn 1 0 0
vn 1 0 0
vn 1 0 0
f 3/3/3 2/2/2 1/1/1
f 4/4/4 3/3/3 1/1/1
f 7/7/7 6/6/6 5/5/5
f 8/8/8 7/7/7 5/5/5
f 11/11/11 10/10/10 9/9/9
f 12/12/12 11/11/11 9/9/9
f 15/15/15 14/14/14 13/13/13
f 16/16/16 15/15/15 13/13/13
f 19/19/19 18/18/18 17/17/17
f 20/20/20 19/19/19 17/17/17
f 23/23/23 22/22/22 21/21/21
f 24/24/24 23/23/23 21/21/21
f 27/27/27 26/26/26 25/25/25
f 28/28/28 27/27/27 25/25/25
f 31/31/31 30/30/30 29/29/29
f 32/32/32 31/31/31 29/29/29
f 35/35/35 34/34/34 33/33/33
f 36/36/36 35/35/35 33/33/33
f 39/39/39 38/38/38 37/37/37
f 40/40/40 39/39/39 37/37/37
f 43/43/43 42/42/42 41/41/41
f 44/44/44 43/43/43 41/41/41
f 47/47/47 46/46/46 45/45/45
f 48/48/48 47/47/47 45/45/45
f 51/51/51 50/50/50 49/49/49
f 52/52/52 51/51/51 49/49/49
f 55/55/55 54/54/54 53/53/53
f 56/56/56 55/55/55 53/53/53
f 59/59/59 58/58/58 57/57/57
f 60/60/60 59/59/59 57/57/57
f 63/63/63 62/62/62 61/61/61
f 64/64/64 63/63/63 61/61/61
f 67/67/67 66/66/66 65/65/65
f 68/68/68 67/67/67 65/65/65
f 71/71/71 70/70/70 69/69/69
f 72/72/72 71/71/71 69/69/69
f 75/75/75 74/74/74 73/73/73
f 76/76/76 75/75/75 73/73/73
f 79/79/79 78/78/78 77/77/77
f 80/80/80 79/79/79 77/77/77
f 83/83/83 82/82/82 81/81/81
f 84/84/84 83/83/83 81/81/81
f 85/85/85 84/84/84 81/81/81
f 86/86/86 85/85/85 81/81/81
f 87/87/87 86/86/86 81/81/81
f 88/88/88 87/87/87 81/81/81
f 89/89/89 88/88/88 81/81/81
f 90/90/90 89/89/89 81/81/81
f 91/91/91 90/90/90 81/81/81
f 92/92/92 91/91/91 81/81/81
f 93/93/93 92/92/92 81/81/81
f 94/94/94 93/93/93 81/81/81
f 95/95/95 94/94/94 81/81/81
f 96/96/96 95/95/95 81/81/81
f 97/97/97 96/96/96 81/81/81
f 98/98/98 97/97/97 81/81/81
f 99/99/99 98/98/98 81/81/81
f 100/100/100 99/99/99 81/81/81
f 103/103/103 102/102/102 101/101/101
f 104/104/104 103/103/103 101/101/101
f 107/107/107 106/106/106 105/105/105
f 108/108/108 107/107/107 105/105/105
f 111/111/111 110/110/110 109/109/109
f 112/112/112 111/111/111 109/109/109
f 115/115/115 114/114/114 113/113/113
f 116/116/116 115/115/115 113/113/113
