# VPXTOOL table OBJ file
# VPXTOOL OBJ file
# numVerts: 428 numFaces: 684
o psw_ramp1
v 12.757758 -7.1607227 -24.405743
v 12.891153 -6.9254284 -24.446503
v 12.718851 -6.9254284 -24.276054
v 12.731821 -7.257063 -24.659565
v 12.86892 -7.116257 -24.487263
v 12.961556 -6.9254284 -24.679945
v 12.893006 -7.1607227 -24.666977
v 12.891153 -6.9254284 -56.94488
v 12.757758 -7.15887 -56.965263
v 12.718851 -6.9254284 -57.11533
v 12.961556 -6.9254284 -56.71329
v 12.86892 -7.116257 -56.8893
v 12.735526 -7.257063 -56.66327
v 12.894858 -7.1607227 -56.68365
v 12.629921 -3.2978232 -56.7874
v 12.846688 -3.4367764 -56.918945
v 12.705882 -3.3941638 -57.01158
v 12.961556 -3.6294582 -56.71329
v 12.846688 -3.4367764 -56.918945
v 12.865215 -3.3941638 -56.750347
v 12.718851 -3.6294582 -57.11533
v 12.891153 -3.6294582 -56.94488
v -11.751738 -3.6294582 -56.71329
v -11.636869 -3.4367764 -56.918945
v -11.6794815 -3.6294582 -56.94488
v -11.418249 -3.2978232 -56.7874
v -11.636869 -3.4367764 -56.918945
v -11.653543 -3.3941638 -56.750347
v -11.507179 -3.6294582 -57.11533
v -11.496063 -3.3941638 -57.01158
v -11.751738 -6.9254284 -56.71329
v -11.6591015 -7.116257 -56.8893
v -11.683187 -7.1607227 -56.68365
v -11.547939 -7.15887 -56.965263
v -11.6794815 -6.9254284 -56.94488
v -11.507179 -6.9254284 -57.11533
v -11.523853 -7.257063 -56.66327
v -11.520148 -7.257063 -24.659565
v -11.6572485 -7.116257 -24.487263
v -11.683187 -7.1607227 -24.666977
v -11.6794815 -6.9254284 -24.446503
v -11.546086 -7.1607227 -24.405743
v -11.507179 -6.9254284 -24.276054
v -11.751738 -6.9254284 -24.679945
v -11.418249 -3.2978232 -24.605835
v -11.636869 -3.4367764 -24.474293
v -11.496063 -3.3941638 -24.379807
v -11.751738 -3.6294582 -24.679945
v -11.636869 -3.4367764 -24.474293
v -11.653543 -3.3941638 -24.64289
v -11.507179 -3.6294582 -24.276054
v -11.6794815 -3.6294582 -24.446503
v 12.629921 -3.2978232 -24.605835
v 12.846688 -3.4367764 -24.474293
v 12.865215 -3.3941638 -24.64289
v 12.718851 -3.6294582 -24.276054
v 12.846688 -3.4367764 -24.474293
v 12.705882 -3.3941638 -24.379807
v 12.961556 -3.6294582 -24.679945
v 12.891153 -3.6294582 -24.446503
v 2.2547474 -6.679018 -44.735527
v 3.803613 -6.819824 -43.940712
v 3.6516907 -6.6808705 -43.786938
v 9.402502 -7.1607227 -58.725338
v 9.509958 -6.9254284 -58.799442
v 9.143122 -7.257063 -58.549328
v 9.389532 -3.2978232 -58.486332
v 9.474756 -3.3941638 -58.706806
v 9.474756 -3.3941638 -58.706806
v 9.509958 -3.6294582 -58.799442
v 5.144974 -3.6294582 -59.912926
v 5.1283 -3.3941638 -59.81658
v 0.60583603 -3.6294582 -60.29088
v 5.1283 -3.3941638 -59.81658
v 0.60583603 -3.3941638 -60.192684
v 5.089393 -3.2978232 -59.584995
v -8.179712 -7.257063 -22.906902
v -3.9184809 -7.1607227 -21.574804
v -8.263084 -7.1607227 -22.684576
v -3.9333026 -6.9254284 -21.478462
v -8.298286 -6.9254284 -22.593794
v -3.9333026 -3.6294582 -59.912926
v -8.263084 -3.3941638 -58.706806
v -3.9184809 -3.3941638 -59.81658
v -3.9184809 -3.3941638 -59.81658
v -8.179712 -3.2978232 -58.486332
v -3.8777213 -3.2978232 -59.584995
v 5.144974 -3.6294582 -21.478462
v 9.474756 -3.3941638 -22.684576
v 5.1283 -3.3941638 -21.574804
v 5.1283 -3.3941638 -21.574804
v 9.389532 -3.2978232 -22.906902
v 5.089393 -3.2978232 -21.808245
v -2.4418714 -6.6808705 -43.786938
v -3.572024 -6.819824 -42.452988
v -2.5919406 -6.819824 -43.940712
v 5.089393 -7.257063 -59.584995
v 0.60583603 -7.1607227 -60.192684
v 5.1283 -7.1607227 -59.81658
v 0.60583603 -6.9254284 -60.29088
v 5.144974 -6.9254284 -59.912926
v -3.9166281 -6.819824 -40.696617
v -3.3756368 -6.6808705 -39.02362
v -3.572024 -6.819824 -38.94025
v -2.4418714 -6.6808705 -37.604446
v 0.60583603 -6.679018 -36.324223
v -1.1245948 -6.819824 -36.45762
v -1.0430754 -6.679018 -36.65771
v 2.2547474 -6.679018 -36.65771
v 3.803613 -6.819824 -37.452522
v 2.336267 -6.819824 -36.45762
v 4.587309 -6.6808705 -39.02362
v 5.1283 -6.819824 -40.696617
v 4.783696 -6.819824 -38.94025
v 4.783696 -6.819824 -42.452988
v 4.587309 -6.6808705 -42.369617
v 0.60583603 -6.679018 -45.069016
v 2.336267 -6.819824 -44.93562
v -1.0430754 -6.679018 -44.735527
v -1.1245948 -6.819824 -44.93562
v -3.3756368 -6.6808705 -42.369617
v -3.7035666 -6.6808705 -40.696617
v 9.389532 -7.257063 -22.906902
v 5.1283 -7.1607227 -21.574804
v 5.089393 -7.257063 -21.808245
v 9.474756 -7.1607227 -22.684576
v 5.144974 -6.9254284 -21.478462
v 0.60583603 -6.819824 -45.283928
v 0.60583603 -3.3941638 -60.192684
v 0.60583603 -3.2978232 -59.955536
v -7.9333024 -7.257063 -58.549328
v -3.9184809 -7.1607227 -59.81658
v -3.8777213 -7.257063 -59.584995
v -8.190829 -7.1607227 -58.725338
v -3.9333026 -6.9254284 -59.912926
v -8.298286 -3.6294582 -58.799442
v -11.496063 -3.3941638 -57.01158
v -8.263084 -3.3941638 -58.706806
v -2.5919406 -6.819824 -37.452522
v 0.60583603 -6.819824 -36.107456
v 3.6516907 -6.6808705 -37.604446
v -8.298286 -6.9254284 -58.799442
v 9.509958 -3.6294582 -22.593794
v 12.705882 -3.3941638 -24.379807
v 9.474756 -3.3941638 -22.684576
v 0.60583603 -7.1607227 -21.200556
v 0.60583603 -7.257063 -21.43585
v 0.60583603 -6.9254284 -21.102362
v 0.60583603 -7.1607227 -21.200556
v 4.9152384 -6.6808705 -40.696617
v -8.179712 -3.2978232 -22.906902
v -8.263084 -3.3941638 -22.684576
v -8.263084 -3.3941638 -22.684576
v -8.298286 -3.6294582 -22.593794
v -3.9333026 -3.6294582 -21.478462
v -3.9184809 -3.3941638 -21.574804
v 0.60583603 -3.6294582 -21.102362
v -3.9184809 -3.3941638 -21.574804
v 0.60583603 -3.3941638 -21.200556
v -3.8777213 -3.2978232 -21.808245
v 0.60583603 -3.6294582 -21.102362
v 12.865215 -3.3941638 -24.64289
v 9.509958 -6.9254284 -22.593794
v -3.8777213 -7.257063 -21.808245
v 0.60583603 -6.9254284 -21.102362
v 0.60583603 -7.257063 -59.955536
v -11.653543 -3.3941638 -24.64289
v -11.653543 -3.3941638 -56.750347
v 2.3937006 -7.038444 -45.078278
v 4.033349 -7.1940713 -44.192684
v 3.9110699 -7.038444 -44.050022
v 2.4733675 -7.1940713 -45.25058
v 4.1760073 -7.257063 -44.38536
v -2.699398 -7.038444 -44.050022
v -3.8869846 -7.1940713 -42.575268
v -2.8216767 -7.1940713 -44.192684
v -4.1093097 -7.257063 -42.647522
v -2.9643352 -7.257063 -44.38536
v -4.4928207 -7.257063 -40.696617
v -3.8851318 -7.1940713 -38.810562
v -4.103752 -7.257063 -38.719776
v -4.255674 -7.1940713 -40.696617
v -3.7128298 -7.038444 -38.880962
v -2.699398 -7.038444 -37.343216
v -2.832793 -7.1940713 -37.20982
v 0.60583603 -7.038444 -35.953682
v -1.2542844 -7.1940713 -36.14081
v -1.1838814 -7.038444 -36.31496
v 0.60583603 -7.1940713 -35.764706
v -1.3469199 -7.257063 -35.922188
v 2.3937006 -7.038444 -36.31496
v 4.0426126 -7.1940713 -37.20982
v 2.4659564 -7.1940713 -36.14081
v 4.211209 -7.257063 -37.043076
v 2.5567393 -7.257063 -35.922188
v 4.9226494 -7.038444 -38.880962
v 5.4654937 -7.1940713 -40.696617
v 5.096804 -7.1940713 -38.810562
v 5.70264 -7.257063 -40.696617
v 5.315424 -7.257063 -38.719776
v 5.0986567 -7.1940713 -42.575268
v 4.9226494 -7.038444 -42.51042
v 5.320982 -7.257063 -42.647522
v 0.60583603 -7.1940713 -45.62668
v 0.60583603 -7.257063 -45.863823
v 2.5808244 -7.257063 -45.465492
v -1.1838814 -7.038444 -45.078278
v -1.2616953 -7.1940713 -45.25058
v -1.3691523 -7.257063 -45.465492
v -4.06855 -7.038444 -40.696617
v 0.60583603 -7.038444 -45.437702
v -3.0013895 -7.257063 -37.043076
v 0.60583603 -7.257063 -35.52941
v 3.9110699 -7.038444 -37.343216
v 5.27837 -7.038444 -40.696617
v 0.60583603 -3.2978232 -21.43585
v -3.7128298 -7.038444 -42.51042
v 12.865215 -3.3941638 -56.750347
v 12.705882 -3.3941638 -57.01158
v -11.496063 -3.3941638 -24.379807
v 0.60583603 -3.3941638 -21.200556
v 0.60583603 -3.3941638 -21.200556
v -2.9198704 -7.0458546 -40.696617
v -1.6266791 -7.3330245 -41.63409
v -1.8100972 -7.3330245 -40.696617
v 3.0977306 -7.0458546 -43.225567
v 1.5303382 -7.3330245 -42.960632
v 1.9546087 -7.0458546 -44
v 3.8610468 -7.0458546 -39.32747
v 2.3140342 -7.3330245 -38.964336
v 2.8364985 -7.3330245 -39.759148
v 1.9546087 -7.0458546 -37.391384
v 0.60583603 -7.3330245 -38.245483
v 1.5303382 -7.3330245 -38.432606
v 4.1296897 -7.0458546 -40.696617
v 2.8364985 -7.3330245 -41.63409
v 3.8610468 -7.0458546 -42.06392
v -1.887911 -7.0458546 -43.225567
v -0.31866604 -7.3330245 -42.960632
v -1.1023622 -7.3330245 -42.4289
v 0.60583603 -7.3330245 -43.1459
v 0.60583603 -7.0458546 -44.272346
v -1.887911 -7.0458546 -38.16767
v -0.31866604 -7.3330245 -38.432606
v -0.74293655 -7.0458546 -37.391384
v -2.6512272 -7.0458546 -39.32747
v -1.1023622 -7.3330245 -38.964336
v 2.3140342 -7.3330245 -42.4289
v 3.0199165 -7.3330245 -40.696617
v -0.74293655 -7.0458546 -44
v -1.6266791 -7.3330245 -39.759148
v 3.0977306 -7.0458546 -38.16767
v -2.6512272 -7.0458546 -42.06392
v 0.60583603 -7.0458546 -37.12089
v 0.60583603 -7.5071797 -40.696617
v 0.60583603 -7.5071797 -40.696617
v 0.60583603 -7.5071797 -40.696617
v 0.60583603 -7.5071797 -40.696617
v 0.60583603 -7.5071797 -40.696617
v 0.60583603 -7.5071797 -40.696617
v 0.60583603 -7.5071797 -40.696617
v 0.60583603 -7.5071797 -40.696617
v 0.60583603 -7.5071797 -40.696617
v 0.60583603 -7.5071797 -40.696617
v 0.60583603 -7.5071797 -40.696617
v 0.60583603 -7.5071797 -40.696617
v 0.60583603 -7.5071797 -40.696617
v 0.60583603 -7.5071797 -40.696617
v 0.60583603 -7.5071797 -40.696617
v 0.60583603 -7.5071797 -40.696617
v -8.894858 -2.7290413 -47.56832
v -8.754052 -2.538212 -47.761
v -8.796665 -2.7290413 -47.80361
v -8.561371 -2.397406 -47.56832
v -8.796665 -2.4937472 -47.56832
v -8.561371 -2.7290413 -47.901806
v -8.754052 -2.538212 -47.761
v -8.561371 -2.4937472 -47.80361
v 9.773043 -3.2978232 -47.56832
v 9.963872 -3.1570172 -47.761
v 10.008338 -3.1996295 -47.56832
v 9.773043 -2.9643352 -47.901806
v 9.773043 -3.1996295 -47.80361
v 10.104678 -2.9643352 -47.56832
v 10.008338 -2.9643352 -47.80361
v -8.561371 -2.9643352 -47.901806
v -8.754052 -3.1570172 -47.761
v -8.796665 -2.9643352 -47.80361
v -8.561371 -3.2978232 -47.56832
v -8.561371 -3.1996295 -47.80361
v -8.894858 -2.9643352 -47.56832
v -8.796665 -3.1996295 -47.56832
v 9.773043 -2.397406 -47.56832
v 9.963872 -2.538212 -47.761
v 9.773043 -2.4937472 -47.80361
v 10.104678 -2.7290413 -47.56832
v 9.963872 -2.538212 -47.761
v 10.008338 -2.4937472 -47.56832
v 9.773043 -2.7290413 -47.901806
v 9.963872 -2.538212 -47.761
v 10.008338 -2.7290413 -47.80361
v -9.511811 7.321908 -62.764244
v -9.704493 7.182955 -62.955074
v -9.747105 7.2255673 -62.764244
v -9.511811 6.9902735 -63.09588
v -9.704493 7.182955 -62.955074
v -9.511811 7.2255673 -62.999535
v -9.845299 6.9902735 -62.764244
v -9.747105 6.9902735 -62.999535
v -9.511811 5.8564153 -63.09588
v -9.704493 5.663733 -62.955074
v -9.747105 5.8564153 -62.999535
v -9.511811 5.5229273 -62.764244
v -9.511811 5.621121 -62.999535
v -9.845299 5.8564153 -62.764244
v -9.747105 5.621121 -62.764244
v 11.055119 6.9902735 -62.764244
v 10.914312 7.182955 -62.955074
v 10.958777 7.2255673 -62.764244
v 10.723483 6.9902735 -63.09588
v 10.914312 7.182955 -62.955074
v 10.958777 6.9902735 -62.999535
v 10.723483 7.321908 -62.764244
v 10.914312 7.182955 -62.955074
v 10.723483 7.2255673 -62.999535
v 10.723483 5.8564153 -63.09588
v 10.914312 5.663733 -62.955074
v 10.723483 5.621121 -62.999535
v 11.055119 5.8564153 -62.764244
v 10.958777 5.8564153 -62.999535
v 10.723483 5.5229273 -62.764244
v 10.958777 5.621121 -62.764244
v 2.1584067 -6.72163 -44.49838
v 3.4738305 -6.72163 -43.607227
v -2.2621584 -6.72163 -43.607227
v -3.1421955 -6.72163 -39.121815
v -2.2621584 -6.72163 -37.78601
v 0.60583603 -6.72163 -36.5799
v -0.9467346 -6.72163 -36.893005
v 2.1584067 -6.72163 -36.893005
v 4.3538675 -6.72163 -39.121815
v 4.3538675 -6.72163 -42.271423
v 0.60583603 -6.72163 -44.81149
v -0.9467346 -6.72163 -44.49838
v -3.1421955 -6.72163 -42.271423
v -3.451598 -6.72163 -40.696617
v -9.747105 7.2255673 61.617413
v -9.511811 7.321908 61.617413
v -9.845299 6.9902735 61.617413
v 9.773043 -2.397406 61.622974
v 10.008338 -2.4937472 -47.56832
v 10.008338 -2.4937472 61.622974
v 3.4738305 -6.72163 -37.78601
v 10.958777 7.2255673 61.617413
v 11.055119 6.9902735 61.617413
v 10.958777 7.2255673 -62.764244
v 10.723483 7.321908 61.617413
v 10.958777 7.2255673 61.617413
v 4.6614175 -6.72163 -40.696617
v -8.561371 -3.2978232 61.622974
v -8.796665 -3.1996295 61.622974
v 10.008338 -2.7290413 -47.80361
v 10.104678 -2.9643352 61.622974
v 10.008338 -3.1996295 61.622974
v -8.561371 -2.4937472 -47.80361
v 9.773043 -2.4937472 -47.80361
v -9.747105 6.9902735 -62.999535
v -9.511811 7.2255673 -62.999535
v 10.723483 7.2255673 -62.999535
v 10.958777 6.9902735 -62.999535
v 10.958777 5.621121 61.617413
v 10.723483 5.5229273 61.617413
v 11.055119 5.8564153 61.617413
v -8.796665 -2.4937472 61.622974
v -8.561371 -2.397406 61.622974
v -8.894858 -2.7290413 61.622974
v -9.747105 5.621121 61.617413
v -8.894858 -2.9643352 61.622974
v 9.773043 -3.2978232 61.622974
v 10.104678 -2.7290413 61.622974
v -9.845299 5.8564153 61.617413
v -9.511811 5.5229273 61.617413
v -8.796665 -2.7290413 -47.80361
v 10.008338 -2.4937472 61.622974
v 10.247336 0.4557666 -62.695694
v 10.440019 0.26308477 -62.55489
v 10.247336 0.22047244 -62.59935
v 10.580825 0.4557666 -62.36406
v 10.482631 0.4557666 -62.59935
v 10.247336 0.12227883 -62.36406
v 10.482631 0.22047244 -62.36406
v 10.247336 0.4557666 -19.896248
v 10.440019 0.26308477 -20.037054
v 10.482631 0.4557666 -19.994442
v 10.247336 0.12227883 -20.229736
v 10.247336 0.22047244 -19.994442
v 10.580825 0.4557666 -20.229736
v 10.482631 0.22047244 -20.229736
v -9.037518 0.4557666 -62.695694
v -9.228347 0.26308477 -62.55489
v -9.272812 0.4557666 -62.59935
v -9.037518 0.12227883 -62.36406
v -9.037518 0.22047244 -62.59935
v -9.369153 0.4557666 -62.36406
v -9.272812 0.22047244 -62.36406
v -9.369153 0.4557666 -20.229736
v -9.228347 0.26308477 -20.037054
v -9.272812 0.4557666 -19.994442
v -9.037518 0.12227883 -20.229736
v -9.272812 0.22047244 -20.229736
v -9.037518 0.4557666 -19.896248
v -9.037518 0.22047244 -19.994442
v 10.482631 5.5229273 -19.994442
v 10.247336 5.5229273 -19.896248
v 10.580825 5.5229273 -20.229736
v 10.482631 5.5229273 -19.994442
v -9.272812 5.5229273 -19.994442
v -9.369153 5.5229273 -20.229736
v -9.272812 5.5229273 -19.994442
v -9.037518 5.5229273 -19.896248
v -9.272812 5.5229273 -62.59935
v -9.037518 5.5229273 -62.695694
v -9.369153 5.5229273 -62.36406
v -9.272812 5.5229273 -62.59935
v 10.482631 5.5229273 -62.59935
v 10.580825 5.5229273 -62.36406
v 10.247336 5.5229273 -62.695694
v 10.482631 5.5229273 -62.59935
vt 0.889511 0.40162504
vt 0.887772 0.39899898
vt 0.890419 0.39899898
vt 0.883335 0.40284598
vt 0.887681 0.401255
vt 0.885451 0.39899898
vt 0.88555 0.40162504
vt 0.612729 0.39899898
vt 0.611087 0.40162504
vt 0.610083 0.39899898
vt 0.61505 0.39899898
vt 0.612891 0.401255
vt 0.618795 0.41606796
vt 0.616166 0.404467
vt 0.239806 0.25544703
vt 0.24177 0.25637
vt 0.240525 0.25763297
vt 0.61505 0.37300098
vt 0.612394 0.37092996
vt 0.614739 0.37037504
vt 0.610083 0.37300098
vt 0.612729 0.37300098
vt 0.385345 0.37300098
vt 0.387372 0.37092996
vt 0.387666 0.37300098
vt 0.097838 0.25544703
vt 0.096238 0.25708497
vt 0.095874 0.255189
vt 0.390319 0.37300098
vt 0.389963 0.37037504
vt 0.385345 0.39899898
vt 0.387505 0.401255
vt 0.385097 0.40162504
vt 0.392988 0.405981
vt 0.387666 0.39899898
vt 0.390318 0.39899898
vt 0.402429 0.41606796
vt 0.118478 0.40284598
vt 0.112714 0.401255
vt 0.114845 0.40162504
vt 0.112623 0.39899898
vt 0.11089 0.40162504
vt 0.109985 0.39899898
vt 0.114944 0.39899898
vt 0.097838 0.029848993
vt 0.095874 0.028926015
vt 0.097119 0.027662992
vt 0.114944 0.37300098
vt 0.112289 0.37092996
vt 0.114633 0.37037504
vt 0.109985 0.37300098
vt 0.112623 0.37300098
vt 0.239806 0.029848993
vt 0.241406 0.028210998
vt 0.24177 0.030107021
vt 0.890419 0.37300098
vt 0.887478 0.37092996
vt 0.890064 0.37037504
vt 0.885451 0.37300098
vt 0.887772 0.37300098
vt 0.878767 0.988810003
vt 0.851776 0.970798016
vt 0.851785 0.970779002
vt 0.574858 0.40162504
vt 0.575217 0.39899898
vt 0.578475 0.410798
vt 0.220678 0.26735902
vt 0.221384 0.26954198
vt 0.575224 0.37037504
vt 0.575217 0.37300098
vt 0.537578 0.37300098
vt 0.195619 0.277363
vt 0.499976 0.37300098
vt 0.537578 0.37037504
vt 0.168822 0.280002
vt 0.195293 0.27506
vt 0.086462 0.403597
vt 0.037586 0.40162504
vt 0.075232 0.40162504
vt 0.037586 0.39899898
vt 0.075225 0.39899898
vt 0.462391 0.37300098
vt 0.425267 0.37037504
vt 0.462391 0.37037504
vt 0.142026 0.277363
vt 0.116966 0.26735902
vt 0.142352 0.27505898
vt 0.962414 0.37300098
vt 0.925291 0.37037504
vt 0.962414 0.37037504
vt 0.195619 0.007933021
vt 0.220678 0.017937005
vt 0.195293 0.0102369785
vt 0.969412 0.970779002
vt 0.987454 0.943811
vt 0.969421 0.970798016
vt 0.543409 0.41061902
vt 0.499976 0.40162504
vt 0.537578 0.40162504
vt 0.499976 0.39899898
vt 0.537578 0.39899898
vt 0.993786 0.91197598
vt 0.987438 0.88015401
vt 0.987454 0.88014197
vt 0.969411 0.85317302
vt 0.910599 0.82880998
vt 0.942433 0.83512098
vt 0.94243 0.83514202
vt 0.878767 0.83514202
vt 0.851776 0.853154
vt 0.878764 0.83512098
vt 0.83376 0.88015401
vt 0.827411 0.91197598
vt 0.833744 0.88014197
vt 0.833744 0.943811
vt 0.83376 0.94379902
vt 0.910599 0.9951429963
vt 0.878764 0.988830984
vt 0.94243 0.988810003
vt 0.942433 0.988830984
vt 0.987438 0.94379902
vt 0.993766 0.91197598
vt 0.915839 0.403597
vt 0.961965 0.40162504
vt 0.916947 0.40369296
vt 0.925291 0.40162504
vt 0.962414 0.39899898
vt 0.910599 0.995163977
vt 0.499976 0.37037504
vt 0.168822 0.27766597
vt 0.435121 0.410798
vt 0.462391 0.40162504
vt 0.469471 0.41061902
vt 0.425629 0.40162504
vt 0.462391 0.39899898
vt 0.425275 0.37300098
vt 0.097119 0.25763297
vt 0.11626 0.26954198
vt 0.969421 0.853154
vt 0.910599 0.828789
vt 0.851785 0.85317302
vt 0.425275 0.39899898
vt 0.925299 0.37300098
vt 0.240525 0.027662992
vt 0.221384 0.015752971
vt 0.000614 0.40162504
vt 0.050903 0.40370703
vt 1 0.39899898
vt 0.999933 0.40162504
vt 0.827431 0.91197598
vt 0.116966 0.017937005
vt 0.11626 0.015752971
vt 0.075232 0.37037504
vt 0.075225 0.37300098
vt 0.037586 0.37300098
vt 0.142026 0.007933021
vt 0 0.37300098
vt 0.037586 0.37037504
vt 0.168822 0.0052930117
vt 0.142352 0.0102369785
vt 1 0.37300098
vt 0.885762 0.37037504
vt 0.925299 0.39899898
vt 0.05181 0.40369296
vt 0 0.39899898
vt 0.506439 0.41064703
vt 0.095874 0.030107021
vt 0.385656 0.37037504
vt 0.878764 0.988830984
vt 0.851827 0.97083199
vt 0.851776 0.970798016
vt 0.878763 0.98882997
vt 0.847566 0.960774004
vt 0.969421 0.970798016
vt 0.987456 0.94379902
vt 0.96937 0.97083199
vt 0.952316 0.914076984
vt 0.959175 0.960774004
vt 0.954988 0.88064402
vt 0.987454 0.88014197
vt 0.949222 0.84943402
vt 0.993786 0.91197598
vt 0.987454 0.88014197
vt 0.969421 0.853154
vt 0.969421 0.853154
vt 0.910599 0.828789
vt 0.942433 0.83512098
vt 0.942433 0.83512098
vt 0.910599 0.828789
vt 0.911385 0.806956
vt 0.878764 0.83512098
vt 0.851776 0.853154
vt 0.878764 0.83512098
vt 0.832088 0.82388002
vt 0.856045 0.806956
vt 0.833744 0.88014197
vt 0.827411 0.91197598
vt 0.833744 0.88014197
vt 0.810397 0.88064402
vt 0.815873 0.84943402
vt 0.833742 0.94379902
vt 0.833744 0.943811
vt 0.817467 0.914076984
vt 0.910599 0.995163977
vt 0.898267 0.975450993
vt 0.866523 0.968861997
vt 0.942433 0.988830984
vt 0.942434 0.98882997
vt 0.930145 0.968861997
vt 0.993786 0.91197598
vt 0.910599 0.995163977
vt 0.934263 0.82388002
vt 0.883886 0.80100602
vt 0.851776 0.853154
vt 0.827411 0.91197598
vt 0.168822 0.0076289773
vt 0.987454 0.943811
vt 0.24177 0.255189
vt 0.610438 0.37037504
vt 0.110339 0.37037504
vt 0.000067 0.37037504
vt 0.999933 0.37037504
vt 0.993786 0.91197598
vt 0.987454 0.943811
vt 0.993786 0.91197598
vt 0.851776 0.970798016
vt 0.878764 0.988830984
vt 0.878764 0.988830984
vt 0.833744 0.88014197
vt 0.851776 0.853154
vt 0.833744 0.88014197
vt 0.878764 0.83512098
vt 0.910599 0.828789
vt 0.878764 0.83512098
vt 0.827411 0.91197598
vt 0.833744 0.943811
vt 0.833744 0.943811
vt 0.969421 0.970798016
vt 0.942433 0.988830984
vt 0.969421 0.970798016
vt 0.910599 0.995163977
vt 0.910599 0.995163977
vt 0.969421 0.853154
vt 0.942433 0.83512098
vt 0.942433 0.83512098
vt 0.987454 0.88014197
vt 0.969421 0.853154
vt 0.851776 0.970798016
vt 0.827411 0.91197598
vt 0.942433 0.988830984
vt 0.987454 0.88014197
vt 0.851776 0.853154
vt 0.987454 0.943811
vt 0.910599 0.828789
vt 0.851776 0.853154
vt 0.942433 0.83512098
vt 0.910599 0.828789
vt 0.942433 0.988830984
vt 0.969421 0.853154
vt 0.993786 0.91197598
vt 0.987454 0.88014197
vt 0.969421 0.970798016
vt 0.987454 0.943811
vt 0.910599 0.995163977
vt 0.833744 0.943811
vt 0.878764 0.988830984
vt 0.851776 0.970798016
vt 0.833744 0.88014197
vt 0.827411 0.91197598
vt 0.878764 0.83512098
vt 0.867168 0.79960698
vt 0.872832 0.80052
vt 0.867168 0.80076498
vt 0.874477 0.79960698
vt 0.872391 0.79960698
vt 0.856122 0.81334102
vt 0.858187 0.81760198
vt 0.856087 0.82072097
vt 0.741262 0.79960698
vt 0.739467 0.801642
vt 0.739176 0.79960698
vt 0.741238 0.80814499
vt 0.741262 0.80076498
vt 0.733926 0.79960698
vt 0.736539 0.80445498
vt 0.856147 0.80814499
vt 0.85871 0.80060202
vt 0.860862 0.80445498
vt 0.856182 0.79960698
vt 0.856182 0.80076498
vt 0.863491 0.79960698
vt 0.858268 0.79960698
vt 0.989397 0.79960698
vt 0.991483 0.80027598
vt 0.989397 0.80076498
vt 0.730228 0.79960698
vt 0.727197 0.80076498
vt 0.724978 0.79960698
vt 0.741221 0.81334102
vt 0.739993 0.82072097
vt 0.739136 0.81334102
vt 0.573265 0.172459
vt 0.572374 0.17090797
vt 0.573265 0.170493
vt 0.555304 0.14633399
vt 0.5531 0.14829898
vt 0.551487 0.14633399
vt 0.573265 0.16639
vt 0.572135 0.16639
vt 0.568318 0.14633399
vt 0.572294 0.14859998
vt 0.570226 0.15034997
vt 0.573265 0.14633399
vt 0.572135 0.14633399
vt 0.573265 0.15240198
vt 0.573265 0.14829898
vt 0.573265 0.0076239705
vt 0.572135 0.005364001
vt 0.573265 0.003709972
vt 0.555304 0.026848972
vt 0.551487 0.02571398
vt 0.555304 0.024883986
vt 0.573265 0.292014
vt 0.572612 0.29398
vt 0.572135 0.292014
vt 0.568318 0.026848972
vt 0.571756 0.025161028
vt 0.572135 0.026848972
vt 0.573265 0.020969987
vt 0.570226 0.022926986
vt 0.573265 0.026848972
vt 0.573265 0.024883986
vt 0.878764 0.988830984
vt 0.851776 0.970798016
vt 0.969421 0.970798016
vt 0.987454 0.88014197
vt 0.969421 0.853154
vt 0.910599 0.828789
vt 0.942433 0.83512098
vt 0.878764 0.83512098
vt 0.833744 0.88014197
vt 0.833744 0.943811
vt 0.910599 0.995163977
vt 0.942433 0.988830984
vt 0.987454 0.943811
vt 0.993786 0.91197598
vt 0.995664 0.170493
vt 0.995664 0.172459
vt 0.995664 0.16639
vt 0.989397 0.41958797
vt 0.991483 0.79960698
vt 0.724978 0.41958797
vt 0.851776 0.853154
vt 0.995664 0.003709972
vt 0.995664 0.0076239705
vt 0.573265 0.29398
vt 0.995664 0.292014
vt 0.995664 0.29398
vt 0.827411 0.91197598
vt 0.856182 0.41958797
vt 0.858268 0.41958797
vt 0.730228 0.80076498
vt 0.733926 0.41958797
vt 0.739176 0.41958797
vt 0.874477 0.80076498
vt 0.741197 0.82072097
vt 0.555304 0.14829898
vt 0.572135 0.172459
vt 0.551487 0.026848972
vt 0.572135 0.0076239705
vt 0.995664 0.024883986
vt 0.995664 0.026848972
vt 0.995664 0.020969987
vt 0.872391 0.41958797
vt 0.874477 0.41958797
vt 0.867168 0.41958797
vt 0.995664 0.14829898
vt 0.863491 0.41958797
vt 0.741262 0.41958797
vt 0.730228 0.41958797
vt 0.995664 0.15240198
vt 0.995664 0.14633399
vt 0.858207 0.81334102
vt 0.991483 0.41958797
vt 0.388269 0.32266903
vt 0.386666 0.32059896
vt 0.388269 0.320619
vt 0.384452 0.318426
vt 0.385427 0.321644
vt 0.388269 0.318426
vt 0.386403 0.318426
vt 0.388269 0.036630988
vt 0.386391 0.038905025
vt 0.385427 0.037612975
vt 0.38827 0.04078901
vt 0.388269 0.038595974
vt 0.384452 0.04078901
vt 0.386403 0.04078901
vt 0.496441 0.32266903
vt 0.498322 0.32031
vt 0.499295 0.321644
vt 0.49644 0.318426
vt 0.496441 0.320619
vt 0.500283 0.318426
vt 0.498307 0.318426
vt 0.500283 0.04078901
vt 0.498044 0.038627982
vt 0.499295 0.037612975
vt 0.496441 0.04078901
vt 0.498307 0.04078901
vt 0.496441 0.036630988
vt 0.496441 0.038595974
vt 0.386403 0.006703973
vt 0.388269 0.006703973
vt 0.354738 0.04078901
vt 0.354738 0.038595974
vt 0.530374 0.038595974
vt 0.530374 0.04078901
vt 0.498307 0.006703973
vt 0.496441 0.006703973
vt 0.498307 0.35388398
vt 0.496441 0.35388398
vt 0.530374 0.318426
vt 0.530374 0.320619
vt 0.354738 0.320619
vt 0.354738 0.318426
vt 0.388269 0.35388398
vt 0.386403 0.35388398
vn 0.4712 -0.667 0.5771
vn 0.8428 -0.11 0.5269
vn 0.4836 -0.0289 0.8748
vn 0.1864 -0.968 -0.1682
vn 0.7552 -0.4815 0.4448
vn 0.993 0.0418 0.1104
vn 0.7015 -0.7103 0.0579
vn 0.8381 -0.1307 -0.5296
vn 0.4501 -0.7061 -0.5467
vn 0.4844 -0.0352 -0.8742
vn 0.9873 -0.1546 0.0367
vn 0.7446 -0.5165 -0.423
vn -0.0157 -0.9909 -0.1333
vn 0.8289 -0.5247 -0.194
vn 0.1271 0.9862 0.106
vn 0.7111 0.5562 -0.4301
vn 0.4326 0.6993 -0.5692
vn 0.9911 -0.0204 -0.1313
vn 0.7111 0.5562 -0.4301
vn 0.6076 0.7828 -0.1345
vn 0.4179 0.1184 -0.9007
vn 0.8487 0.1273 -0.5133
vn -0.9899 0.128 0.0603
vn -0.7112 0.5562 -0.4301
vn -0.8487 0.1273 -0.5133
vn 0.036 0.9867 -0.1586
vn -0.7112 0.5562 -0.4301
vn -0.7888 0.6081 -0.0893
vn -0.5867 -0.0105 -0.8097
vn -0.4326 0.6993 -0.5692
vn -0.9916 0.045 -0.1217
vn -0.7445 -0.5165 -0.423
vn -0.8183 -0.5747 0.0092
vn -0.4501 -0.7061 -0.5467
vn -0.8381 -0.1307 -0.5296
vn -0.4834 -0.0336 -0.8748
vn -0.1635 -0.9727 0.1645
vn 0.0275 -0.9855 0.1673
vn -0.7552 -0.4815 0.4448
vn -0.817 -0.5766 -0.0085
vn -0.8428 -0.11 0.5269
vn -0.4712 -0.667 0.5771
vn -0.4839 -0.029 0.8747
vn -0.9908 -0.1304 -0.0356
vn -0.1265 0.9861 -0.1073
vn -0.7111 0.5562 0.4301
vn -0.4326 0.6993 0.5692
vn -0.9911 -0.0202 0.1313
vn -0.7111 0.5562 0.4301
vn -0.6091 0.7817 0.1343
vn -0.4185 0.1186 0.9004
vn -0.8487 0.1273 0.5133
vn -0.0365 0.9867 0.1586
vn 0.7111 0.5562 0.4301
vn 0.6987 0.7154 -0.0062
vn 0.5867 -0.0104 0.8097
vn 0.7111 0.5562 0.4301
vn 0.4326 0.6993 0.5691
vn 0.9899 0.1279 -0.0607
vn 0.8487 0.1273 0.5133
vn -0.0961 -0.969 0.2276
vn -0.5035 -0.7071 0.4965
vn -0.1767 -0.9689 0.1733
vn 0.2362 -0.7378 -0.6323
vn 0.3464 -0.0287 -0.9377
vn -0.0002 -1 0.0012
vn 0.0144 0.9999 0.0018
vn 0.245 0.7088 -0.6615
vn 0.245 0.7088 -0.6615
vn 0.3463 0.0268 -0.9377
vn -0.0023 0.1798 -0.9837
vn 0.1161 0.7071 -0.6975
vn -0.166 0.1795 -0.9697
vn 0.1161 0.7071 -0.6975
vn -0.0007 0.7072 -0.707
vn 0.2375 0.9546 -0.1796
vn 0.0101 -0.9999 0.0059
vn -0.1168 -0.7071 0.6974
vn -0.2451 -0.7098 0.6603
vn -0.1651 -0.0272 0.9859
vn -0.3464 -0.0279 0.9377
vn -0.1742 0.0288 -0.9843
vn -0.245 0.7088 -0.6615
vn -0.1168 0.7071 -0.6974
vn -0.1168 0.7071 -0.6974
vn -0.0011 1 -0.0028
vn -0.0006 1 -0.0035
vn 0.1743 0.028 0.9843
vn 0.245 0.7088 0.6615
vn 0.1168 0.7071 0.6974
vn 0.1168 0.7071 0.6974
vn -0.0003 1 -0.0009
vn 0.0004 1 0.0024
vn 0.1767 -0.9689 0.1733
vn 0.656 -0.7056 0.268
vn 0.5035 -0.7071 0.4965
vn -0.01 -0.9999 -0.007
vn -0 -0.7072 -0.707
vn 0.1167 -0.705 -0.6995
vn -0 -0.0292 -0.9996
vn 0.1651 -0.0271 -0.9859
vn 0.7093 -0.7049 0
vn 0.2297 -0.9688 -0.0933
vn 0.656 -0.7056 -0.268
vn 0.1767 -0.9689 -0.1733
vn -0 -0.969 -0.2469
vn 0.2733 -0.7086 -0.6506
vn 0.0961 -0.969 -0.2277
vn -0.0961 -0.969 -0.2276
vn -0.5035 -0.7071 -0.4965
vn -0.2733 -0.7086 -0.6506
vn -0.2297 -0.9688 -0.0933
vn -0.7093 -0.7049 0
vn -0.656 -0.7056 -0.268
vn -0.656 -0.7056 0.268
vn -0.2297 -0.9688 0.0933
vn -0 -0.969 0.2469
vn -0.2733 -0.7086 0.6506
vn 0.0961 -0.969 0.2276
vn 0.2733 -0.7086 0.6506
vn 0.2297 -0.9688 0.0933
vn 0.2481 -0.9687 0
vn 0.2691 -0.9547 0.1268
vn 0.1168 -0.7071 0.6974
vn 0.0005 -1 0.003
vn 0.2442 -0.7095 0.661
vn 0.1651 -0.0278 0.9859
vn -0 -0.7092 0.705
vn -0.0007 0.7072 -0.707
vn 0.2027 0.9551 -0.2162
vn -0.2504 -0.9368 -0.2445
vn -0.1167 -0.705 -0.6995
vn -0.0008 -1 -0.0049
vn -0.2348 -0.7377 -0.633
vn -0.1651 -0.0271 -0.9859
vn -0.189 0.1996 -0.9615
vn -0.4326 0.6993 -0.5692
vn -0.245 0.7088 -0.6615
vn 0.5035 -0.7071 -0.4965
vn -0 -0.7092 -0.705
vn -0.1767 -0.9689 -0.1733
vn -0.1886 -0.1738 -0.9666
vn 0.1896 0.1996 0.9614
vn 0.4326 0.6993 0.5691
vn 0.245 0.7088 0.6615
vn -0 -0.7072 0.707
vn -0 -1 -0.0078
vn -0 -0.0292 0.9996
vn -0 -0.7072 0.707
vn -0.2481 -0.9687 0
vn -0.0138 0.9999 -0.0037
vn -0.245 0.7088 0.6615
vn -0.245 0.7088 0.6615
vn -0.3463 0.026 0.9378
vn 0.0023 0.1798 0.9837
vn -0.1161 0.7071 0.6975
vn 0.166 0.1794 0.9697
vn -0.1161 0.7071 0.6975
vn 0.0007 0.7071 0.7071
vn -0.2344 0.9553 0.18
vn 0.166 0.1794 0.9697
vn 0.6987 0.7154 -0.0062
vn 0.1899 -0.1995 0.9613
vn -0.2326 -0.9577 0.1692
vn -0 -0.0292 0.9996
vn 0.1981 -0.9561 -0.2159
vn -0.6091 0.7817 0.1343
vn -0.7888 0.6081 -0.0893
vn -0.2791 -0.6892 0.6686
vn -0.3135 -0.8984 0.3077
vn -0.52 -0.6861 0.5088
vn -0.1675 -0.9006 0.401
vn -0.0003 -1 0.0003
vn 0.52 -0.6861 0.5088
vn 0.4099 -0.8964 0.1684
vn 0.3135 -0.8984 0.3077
vn -0.0155 -0.9999 -0.0062
vn 0.0003 -1 0.0003
vn 0.0749 -0.9892 -0.126
vn 0.4069 -0.8982 -0.1664
vn -0.0143 -0.9999 0.0058
vn 0.44 -0.898 0
vn 0.6745 -0.6849 -0.2757
vn 0.5176 -0.6864 -0.5108
vn 0.3121 -0.8987 -0.3082
vn -0 -0.6885 -0.7253
vn 0.1693 -0.8991 -0.4036
vn 0.2809 -0.6879 -0.6693
vn -0 -0.8993 -0.4373
vn -0.0068 -0.9998 0.0161
vn -0.2809 -0.6879 -0.6693
vn -0.3121 -0.8987 -0.3082
vn -0.1693 -0.8991 -0.4036
vn 0.0118 -0.9999 0.0117
vn 0.0067 -0.9998 0.0161
vn -0.6745 -0.6849 -0.2757
vn -0.44 -0.898 0
vn -0.4069 -0.8982 -0.1664
vn 0.0162 -0.9999 0
vn 0.0142 -0.9999 0.0058
vn -0.4099 -0.8964 0.1684
vn -0.6753 -0.6833 0.2777
vn 0.0155 -0.9999 -0.0062
vn -0 -0.8993 0.4373
vn 0.0001 -0.9999 -0.017
vn 0.0823 -0.9868 0.1397
vn 0.2791 -0.6892 0.6686
vn 0.1675 -0.9006 0.401
vn -0.007 -0.9998 -0.0163
vn 0.7292 -0.6843 0
vn -0 -0.6885 0.7253
vn -0.0277 -0.9875 -0.1552
vn -0.1315 -0.9874 -0.0884
vn -0.5176 -0.6864 -0.5108
vn -0.7292 -0.6843 0
vn 0.2061 0.9562 0.2077
vn 0.6753 -0.6833 0.2777
vn 0.6076 0.7828 -0.1345
vn 0.4326 0.6993 -0.5692
vn -0.4326 0.6993 0.5692
vn 0.0007 0.7071 0.7071
vn 0.0007 0.7071 0.7071
vn -0.3754 -0.9264 0.0302
vn -0.1564 -0.9856 -0.0638
vn -0.1692 -0.9856 0
vn 0.2455 -0.9288 -0.2775
vn 0.0648 -0.9859 -0.1541
vn 0.1397 -0.9327 -0.3324
vn 0.3587 -0.9265 0.1137
vn 0.1197 -0.9858 0.1179
vn 0.1563 -0.9856 0.0638
vn 0.1724 -0.9277 0.3311
vn -0 -0.986 0.1668
vn 0.0648 -0.9859 0.1541
vn 0.3718 -0.928 -0.0254
vn 0.1563 -0.9856 -0.0638
vn 0.3368 -0.9315 -0.1375
vn -0.2876 -0.9271 -0.2405
vn -0.0648 -0.9859 -0.1541
vn -0.1197 -0.9858 -0.1179
vn -0 -0.986 -0.1668
vn -0 -0.9329 -0.36
vn -0.2455 -0.9288 0.2775
vn -0.0648 -0.9859 0.1541
vn -0.1397 -0.9327 0.3324
vn -0.3341 -0.9283 0.1633
vn -0.1205 -0.9849 0.1244
vn 0.1205 -0.9849 -0.1244
vn 0.174 -0.9847 -0.004
vn -0.1197 -0.9296 -0.3485
vn -0.1594 -0.9848 0.0693
vn 0.2455 -0.9288 0.2775
vn -0.3341 -0.9283 -0.1633
vn -0.0426 -0.9187 0.3925
vn -0 -1 0
vn -0 -1 0
vn -0 -1 0
vn -0 -1 0
vn -0 -1 0
vn -0 -1 0
vn -0 -1 0
vn -0 -1 0
vn -0 -1 0
vn -0 -1 0
vn -0 -1 0
vn -0 -1 0
vn -0 -1 0
vn -0 -1 0
vn -0 -1 0
vn -0 -1 0
vn -0.9476 0.314 -0.0586
vn -0.5774 0.5774 -0.5773
vn -0.6993 0.1479 -0.6993
vn 0.0714 0.9843 -0.1613
vn -0.8101 0.5705 -0.1355
vn -0.0336 0.0809 -0.9962
vn -0.5774 0.5774 -0.5773
vn -0.1358 0.8083 -0.5729
vn -0.0714 -0.9843 -0.1613
vn 0.5774 -0.5774 -0.5773
vn 0.7082 -0.7057 0.0221
vn 0.0336 -0.0809 -0.9962
vn 0.1357 -0.8083 -0.5729
vn 0.9476 -0.314 -0.0586
vn 0.6993 -0.1479 -0.6993
vn -0.0619 -0.3106 -0.9485
vn -0.5774 -0.5773 -0.5773
vn -0.6993 -0.1479 -0.6993
vn -0.1674 -0.9833 0.0717
vn -0.1357 -0.5729 -0.8083
vn -0.9963 -0.0795 -0.0315
vn -0.5705 -0.8101 -0.1355
vn 0.1674 0.9833 0.0717
vn 0.5774 0.5774 -0.5773
vn -0.0191 0.7058 -0.7082
vn 0.9963 0.0795 -0.0315
vn 0.5774 0.5774 -0.5773
vn 0.5705 0.8101 -0.1355
vn 0.0619 0.3106 -0.9485
vn 0.5774 0.5774 -0.5773
vn 0.6993 0.1479 -0.6993
vn 0.0719 0.9842 -0.1615
vn -0.5773 0.5774 -0.5774
vn -0.7081 0.7057 0.0244
vn -0.1218 -0.0192 -0.9924
vn -0.5773 0.5774 -0.5774
vn -0.1358 0.8085 -0.5727
vn -0.9759 0.2165 0.0283
vn -0.6993 0.1479 -0.6993
vn 0.0264 -0.2141 -0.9765
vn -0.5773 -0.5774 -0.5774
vn -0.6993 -0.1479 -0.6993
vn -0.1671 -0.9833 0.0718
vn -0.1357 -0.5727 -0.8085
vn -0.9927 0.022 -0.1187
vn -0.5686 -0.8114 -0.1353
vn 0.9927 -0.0215 -0.1189
vn 0.5773 0.5774 -0.5774
vn 0.7057 0.7081 0.0222
vn -0.026 0.214 -0.9765
vn 0.5773 0.5774 -0.5774
vn 0.6993 0.1479 -0.6993
vn 0.1671 0.9833 0.0721
vn 0.5773 0.5774 -0.5774
vn 0.1357 0.5726 -0.8085
vn 0.1217 0.0197 -0.9924
vn 0.5773 -0.5774 -0.5774
vn -0.0194 -0.7082 -0.7058
vn 0.9758 -0.2167 0.029
vn 0.6993 -0.1479 -0.6993
vn -0.0719 -0.9842 -0.1615
vn 0.8101 -0.5704 -0.1355
vn 0.1249 -0.9464 -0.2978
vn 0.2309 -0.9459 -0.228
vn -0.2309 -0.9459 -0.228
vn -0.3019 -0.9453 0.1235
vn -0.2309 -0.9459 0.228
vn -0 -0.9467 0.3222
vn -0.1249 -0.9464 0.2978
vn 0.1249 -0.9464 0.2978
vn 0.3019 -0.9453 0.1235
vn 0.3019 -0.9453 -0.1235
vn -0 -0.9467 -0.3222
vn -0.1249 -0.9464 -0.2978
vn -0.3019 -0.9453 -0.1235
vn -0.3269 -0.9451 0
vn -0.7071 0.7071 0
vn -0.0048 1 0
vn -0.9975 0.071 0
vn 0.0104 0.9999 0
vn 0.5705 0.8101 -0.1355
vn 0.7071 0.7071 0
vn 0.2309 -0.9459 0.228
vn 0.7071 0.7071 0
vn 0.9973 0.0734 0
vn 0.7057 0.7081 0.0222
vn 0.01 0.9999 0
vn 0.7071 0.7071 0
vn 0.3269 -0.9451 0
vn -0.0104 -0.9999 0
vn -0.7071 -0.7071 0
vn 0.6993 0.1479 -0.6993
vn 0.9792 -0.2031 0
vn 0.7071 -0.7071 0
vn -0.1358 0.8083 -0.5729
vn -0.0191 0.7058 -0.7082
vn -0.6993 0.1479 -0.6993
vn -0.1358 0.8085 -0.5727
vn 0.1357 0.5726 -0.8085
vn 0.6993 0.1479 -0.6993
vn 0.7071 -0.7071 0
vn 0.0048 -1 0
vn 0.9973 -0.0734 0
vn -0.7071 0.7071 0
vn -0.0053 1 0
vn -0.9792 0.203 0
vn -0.7071 -0.7071 0
vn -0.9792 -0.2031 0
vn 0.0053 -1 0
vn 0.9792 0.2031 0
vn -0.9973 -0.0734 0
vn -0.0076 -1 0
vn -0.6993 0.1479 -0.6993
vn 0.7071 0.7071 0
vn 0.1559 0.0592 -0.986
vn 0.5774 -0.5773 -0.5773
vn -0.0192 -0.7082 -0.7058
vn 0.9824 -0.1764 0.0623
vn 0.6993 -0.1479 -0.6993
vn -0.0714 -0.9841 -0.1624
vn 0.8095 -0.5712 -0.1356
vn -0.0607 -0.1746 0.9828
vn 0.5774 -0.5774 0.5773
vn 0.6993 -0.1479 0.6993
vn 0.1663 -0.9835 -0.0708
vn 0.1357 -0.5728 0.8084
vn 0.9862 0.0604 0.154
vn 0.5713 -0.8095 0.1356
vn 0.0602 -0.1746 -0.9828
vn -0.5774 -0.5773 -0.5773
vn -0.6993 -0.1479 -0.6993
vn -0.1663 -0.9835 0.0708
vn -0.1358 -0.5728 -0.8084
vn -0.9862 0.0604 -0.154
vn -0.5713 -0.8095 -0.1355
vn -0.9824 -0.1764 -0.0623
vn -0.5774 -0.5774 0.5773
vn -0.6993 -0.1479 0.6993
vn 0.0714 -0.9841 0.1624
vn -0.8095 -0.5713 0.1356
vn -0.156 0.0586 0.986
vn -0.1357 -0.8084 0.5728
vn 0.7071 -0 0.7071
vn 0.005 -0 1
vn 1 -0.0001 0.0036
vn 0.7071 -0 0.7071
vn -0.7071 -0 0.7071
vn -1 -0 0.0023
vn -0.7071 -0 0.7071
vn -0.0034 -0 1
vn -0.7071 -0 -0.7071
vn -0.0034 -0 -1
vn -1 0.0001 -0.0036
vn -0.7071 -0 -0.7071
vn 0.7071 -0 -0.7071
vn 1 -0 -0.0023
vn 0.0084 -0 -1
vn 0.7071 -0 -0.7071
f 1/1/1 2/2/2 3/3/3
f 4/4/4 5/5/5 1/1/1
f 6/6/6 5/5/5 7/7/7
f 8/8/8 9/9/9 10/10/10
f 11/11/11 12/12/12 8/8/8
f 13/13/13 12/12/12 14/14/14
f 15/15/15 16/16/16 17/17/17
f 18/18/18 19/19/19 20/20/20
f 21/21/21 19/19/19 22/22/22
f 23/23/23 24/24/24 25/25/25
f 26/26/26 27/27/27 28/28/28
f 29/29/29 24/24/24 30/30/30
f 31/31/31 32/32/32 33/33/33
f 34/34/34 35/35/35 36/36/36
f 37/37/37 32/32/32 34/34/34
f 38/38/38 39/39/39 40/40/40
f 41/41/41 42/42/42 43/43/43
f 44/44/44 39/39/39 41/41/41
f 45/45/45 46/46/46 47/47/47
f 48/48/48 49/49/49 50/50/50
f 51/51/51 49/49/49 52/52/52
f 53/53/53 54/54/54 55/55/55
f 56/56/56 57/57/57 58/58/58
f 59/59/59 57/57/57 60/60/60
f 61/61/61 62/62/62 63/63/63
f 10/10/10 64/64/64 65/65/65
f 64/64/64 13/13/13 66/66/66
f 67/67/67 17/17/17 68/68/68
f 69/69/69 21/21/21 70/70/70
f 71/71/71 69/69/69 70/70/70
f 72/72/72 67/67/67 68/68/68
f 73/73/73 74/74/74 71/71/71
f 75/75/75 76/76/76 72/72/72
f 77/77/77 78/78/78 79/79/79
f 79/79/79 80/80/80 81/81/81
f 82/82/82 83/83/83 84/84/84
f 85/85/85 86/86/86 87/87/87
f 36/36/36 25/25/25 29/29/29
f 35/35/35 23/23/23 25/25/25
f 88/88/88 89/89/89 90/90/90
f 91/91/91 92/92/92 93/93/93
f 94/94/94 95/95/95 96/96/96
f 97/97/97 98/98/98 99/99/99
f 99/99/99 100/100/100 101/101/101
f 102/102/102 103/103/103 104/104/104
f 105/105/105 104/104/104 103/103/103
f 106/106/106 107/107/107 108/108/108
f 109/109/109 110/110/110 111/111/111
f 112/112/112 113/113/113 114/114/114
f 63/63/63 115/115/115 116/116/116
f 117/117/117 118/118/118 61/61/61
f 119/119/119 96/96/96 120/120/120
f 102/102/102 121/121/121 122/122/122
f 123/123/123 124/124/124 125/125/125
f 126/126/126 127/127/127 124/124/124
f 117/117/117 120/120/120 128/128/128
f 21/21/21 8/8/8 10/10/10
f 8/8/8 18/18/18 11/11/11
f 73/73/73 84/84/84 129/129/129
f 75/75/75 87/87/87 130/130/130
f 131/131/131 132/132/132 133/133/133
f 134/134/134 135/135/135 132/132/132
f 29/29/29 83/83/83 136/136/136
f 137/137/137 86/86/86 138/138/138
f 108/108/108 139/139/139 105/105/105
f 106/106/106 111/111/111 140/140/140
f 141/141/141 114/114/114 110/110/110
f 37/37/37 134/134/134 131/131/131
f 134/134/134 36/36/36 142/142/142
f 56/56/56 89/89/89 143/143/143
f 144/144/144 92/92/92 145/145/145
f 125/125/125 146/146/146 147/147/147
f 124/124/124 148/148/148 149/149/149
f 116/116/116 113/113/113 150/150/150
f 43/43/43 79/79/79 81/81/81
f 42/42/42 77/77/77 79/79/79
f 151/151/151 47/47/47 152/152/152
f 153/153/153 51/51/51 154/154/154
f 155/155/155 153/153/153 154/154/154
f 156/156/156 151/151/151 152/152/152
f 157/157/157 158/158/158 155/155/155
f 159/159/159 160/160/160 156/156/156
f 93/93/93 159/159/159 91/91/91
f 90/90/90 161/161/161 88/88/88
f 3/3/3 60/60/60 56/56/56
f 2/2/2 59/59/59 60/60/60
f 18/18/18 162/162/162 59/59/59
f 55/55/55 15/15/15 53/53/53
f 13/13/13 7/7/7 4/4/4
f 14/14/14 6/6/6 7/7/7
f 44/44/44 52/52/52 48/48/48
f 41/41/41 51/51/51 52/52/52
f 123/123/123 1/1/1 126/126/126
f 126/126/126 3/3/3 163/163/163
f 66/66/66 99/99/99 64/64/64
f 64/64/64 101/101/101 65/65/65
f 164/164/164 146/146/146 78/78/78
f 78/78/78 165/165/165 80/80/80
f 133/133/133 98/98/98 166/166/166
f 132/132/132 100/100/100 98/98/98
f 44/44/44 33/33/33 40/40/40
f 40/40/40 37/37/37 38/38/38
f 26/26/26 167/167/167 45/45/45
f 168/168/168 48/48/48 50/50/50
f 169/169/169 170/170/170 171/171/171
f 172/172/172 173/173/173 170/170/170
f 174/174/174 175/175/175 176/176/176
f 176/176/176 177/177/177 178/178/178
f 179/179/179 180/180/180 181/181/181
f 182/182/182 183/183/183 180/180/180
f 184/184/184 180/180/180 183/183/183
f 185/185/185 181/181/181 180/180/180
f 186/186/186 187/187/187 188/188/188
f 189/189/189 190/190/190 187/187/187
f 191/191/191 192/192/192 193/193/193
f 193/193/193 194/194/194 195/195/195
f 196/196/196 197/197/197 198/198/198
f 198/198/198 199/199/199 200/200/200
f 171/171/171 201/201/201 202/202/202
f 170/170/170 203/203/203 201/201/201
f 169/169/169 204/204/204 172/172/172
f 172/172/172 205/205/205 206/206/206
f 207/207/207 176/176/176 208/208/208
f 208/208/208 178/178/178 209/209/209
f 177/177/177 182/182/182 179/179/179
f 175/175/175 210/210/210 182/182/182
f 207/207/207 204/204/204 211/211/211
f 208/208/208 205/205/205 204/204/204
f 188/188/188 185/185/185 184/184/184
f 187/187/187 212/212/212 185/185/185
f 186/186/186 193/193/193 189/189/189
f 189/189/189 195/195/195 213/213/213
f 214/214/214 198/198/198 192/192/192
f 192/192/192 200/200/200 194/194/194
f 215/215/215 201/201/201 197/197/197
f 197/197/197 203/203/203 199/199/199
f 154/154/154 43/43/43 81/81/81
f 80/80/80 154/154/154 81/81/81
f 213/213/213 195/195/195 147/147/147
f 76/76/76 26/26/26 216/216/216
f 157/157/157 80/80/80 165/165/165
f 127/127/127 161/161/161 148/148/148
f 18/18/18 6/6/6 11/11/11
f 3/3/3 143/143/143 163/163/163
f 205/205/205 131/131/131 66/66/66
f 21/21/21 65/65/65 70/70/70
f 101/101/101 70/70/70 65/65/65
f 73/73/73 101/101/101 100/100/100
f 135/135/135 73/73/73 100/100/100
f 136/136/136 135/135/135 142/142/142
f 36/36/36 136/136/136 142/142/142
f 23/23/23 44/44/44 48/48/48
f 163/163/163 88/88/88 127/127/127
f 104/104/104 210/210/210 102/102/102
f 139/139/139 183/183/183 104/104/104
f 95/95/95 210/210/210 217/217/217
f 107/107/107 184/184/184 139/139/139
f 140/140/140 188/188/188 107/107/107
f 140/140/140 191/191/191 186/186/186
f 111/111/111 214/214/214 191/191/191
f 110/110/110 196/196/196 214/214/214
f 114/114/114 215/215/215 196/196/196
f 115/115/115 215/215/215 113/113/113
f 62/62/62 202/202/202 115/115/115
f 118/118/118 171/171/171 62/62/62
f 128/128/128 169/169/169 118/118/118
f 128/128/128 207/207/207 211/211/211
f 120/120/120 174/174/174 207/207/207
f 96/96/96 217/217/217 174/174/174
f 1/1/1 5/5/5 2/2/2
f 4/4/4 7/7/7 5/5/5
f 6/6/6 2/2/2 5/5/5
f 8/8/8 12/12/12 9/9/9
f 11/11/11 14/14/14 12/12/12
f 13/13/13 9/9/9 12/12/12
f 15/15/15 218/218/218 16/16/16
f 18/18/18 22/22/22 19/19/19
f 21/21/21 219/219/219 19/19/19
f 23/23/23 168/168/168 24/24/24
f 26/26/26 137/137/137 27/27/27
f 29/29/29 25/25/25 24/24/24
f 31/31/31 35/35/35 32/32/32
f 34/34/34 32/32/32 35/35/35
f 37/37/37 33/33/33 32/32/32
f 38/38/38 42/42/42 39/39/39
f 41/41/41 39/39/39 42/42/42
f 44/44/44 40/40/40 39/39/39
f 45/45/45 167/167/167 46/46/46
f 48/48/48 52/52/52 49/49/49
f 51/51/51 220/220/220 49/49/49
f 53/53/53 144/144/144 54/54/54
f 56/56/56 60/60/60 57/57/57
f 59/59/59 162/162/162 57/57/57
f 61/61/61 118/118/118 62/62/62
f 10/10/10 9/9/9 64/64/64
f 64/64/64 9/9/9 13/13/13
f 67/67/67 15/15/15 17/17/17
f 69/69/69 219/219/219 21/21/21
f 71/71/71 74/74/74 69/69/69
f 72/72/72 76/76/76 67/67/67
f 73/73/73 129/129/129 74/74/74
f 75/75/75 130/130/130 76/76/76
f 77/77/77 164/164/164 78/78/78
f 79/79/79 78/78/78 80/80/80
f 82/82/82 136/136/136 83/83/83
f 85/85/85 138/138/138 86/86/86
f 36/36/36 35/35/35 25/25/25
f 35/35/35 31/31/31 23/23/23
f 88/88/88 143/143/143 89/89/89
f 91/91/91 145/145/145 92/92/92
f 94/94/94 121/121/121 95/95/95
f 97/97/97 166/166/166 98/98/98
f 99/99/99 98/98/98 100/100/100
f 102/102/102 122/122/122 103/103/103
f 105/105/105 139/139/139 104/104/104
f 106/106/106 140/140/140 107/107/107
f 109/109/109 141/141/141 110/110/110
f 112/112/112 150/150/150 113/113/113
f 63/63/63 62/62/62 115/115/115
f 117/117/117 128/128/128 118/118/118
f 119/119/119 94/94/94 96/96/96
f 102/102/102 95/95/95 121/121/121
f 123/123/123 126/126/126 124/124/124
f 126/126/126 163/163/163 127/127/127
f 117/117/117 119/119/119 120/120/120
f 21/21/21 22/22/22 8/8/8
f 8/8/8 22/22/22 18/18/18
f 73/73/73 82/82/82 84/84/84
f 75/75/75 85/85/85 87/87/87
f 131/131/131 134/134/134 132/132/132
f 134/134/134 142/142/142 135/135/135
f 29/29/29 30/30/30 83/83/83
f 137/137/137 26/26/26 86/86/86
f 108/108/108 107/107/107 139/139/139
f 106/106/106 109/109/109 111/111/111
f 141/141/141 112/112/112 114/114/114
f 37/37/37 34/34/34 134/134/134
f 134/134/134 34/34/34 36/36/36
f 56/56/56 58/58/58 89/89/89
f 144/144/144 53/53/53 92/92/92
f 125/125/125 124/124/124 146/146/146
f 124/124/124 127/127/127 148/148/148
f 116/116/116 115/115/115 113/113/113
f 43/43/43 42/42/42 79/79/79
f 42/42/42 38/38/38 77/77/77
f 151/151/151 45/45/45 47/47/47
f 153/153/153 220/220/220 51/51/51
f 155/155/155 158/158/158 153/153/153
f 156/156/156 160/160/160 151/151/151
f 157/157/157 221/221/221 158/158/158
f 159/159/159 216/216/216 160/160/160
f 93/93/93 216/216/216 159/159/159
f 90/90/90 222/222/222 161/161/161
f 3/3/3 2/2/2 60/60/60
f 2/2/2 6/6/6 59/59/59
f 18/18/18 20/20/20 162/162/162
f 55/55/55 218/218/218 15/15/15
f 13/13/13 14/14/14 7/7/7
f 14/14/14 11/11/11 6/6/6
f 44/44/44 41/41/41 52/52/52
f 41/41/41 43/43/43 51/51/51
f 123/123/123 4/4/4 1/1/1
f 126/126/126 1/1/1 3/3/3
f 66/66/66 97/97/97 99/99/99
f 64/64/64 99/99/99 101/101/101
f 164/164/164 147/147/147 146/146/146
f 78/78/78 146/146/146 165/165/165
f 133/133/133 132/132/132 98/98/98
f 132/132/132 135/135/135 100/100/100
f 44/44/44 31/31/31 33/33/33
f 40/40/40 33/33/33 37/37/37
f 26/26/26 28/28/28 167/167/167
f 168/168/168 23/23/23 48/48/48
f 169/169/169 172/172/172 170/170/170
f 172/172/172 206/206/206 173/173/173
f 174/174/174 217/217/217 175/175/175
f 176/176/176 175/175/175 177/177/177
f 179/179/179 182/182/182 180/180/180
f 182/182/182 210/210/210 183/183/183
f 184/184/184 185/185/185 180/180/180
f 185/185/185 212/212/212 181/181/181
f 186/186/186 189/189/189 187/187/187
f 189/189/189 213/213/213 190/190/190
f 191/191/191 214/214/214 192/192/192
f 193/193/193 192/192/192 194/194/194
f 196/196/196 215/215/215 197/197/197
f 198/198/198 197/197/197 199/199/199
f 171/171/171 170/170/170 201/201/201
f 170/170/170 173/173/173 203/203/203
f 169/169/169 211/211/211 204/204/204
f 172/172/172 204/204/204 205/205/205
f 207/207/207 174/174/174 176/176/176
f 208/208/208 176/176/176 178/178/178
f 177/177/177 175/175/175 182/182/182
f 175/175/175 217/217/217 210/210/210
f 207/207/207 208/208/208 204/204/204
f 208/208/208 209/209/209 205/205/205
f 188/188/188 187/187/187 185/185/185
f 187/187/187 190/190/190 212/212/212
f 186/186/186 191/191/191 193/193/193
f 189/189/189 193/193/193 195/195/195
f 214/214/214 196/196/196 198/198/198
f 192/192/192 198/198/198 200/200/200
f 215/215/215 202/202/202 201/201/201
f 197/197/197 201/201/201 203/203/203
f 154/154/154 51/51/51 43/43/43
f 80/80/80 155/155/155 154/154/154
f 147/147/147 164/164/164 77/77/77
f 77/77/77 38/38/38 37/37/37
f 37/37/37 178/178/178 177/177/177
f 37/37/37 177/177/177 179/179/179
f 147/147/147 77/77/77 37/37/37
f 123/123/123 125/125/125 147/147/147
f 13/13/13 4/4/4 123/123/123
f 203/203/203 173/173/173 13/13/13
f 199/199/199 203/203/203 13/13/13
f 13/13/13 123/123/123 147/147/147
f 37/37/37 179/179/179 181/181/181
f 147/147/147 37/37/37 181/181/181
f 200/200/200 199/199/199 13/13/13
f 200/200/200 13/13/13 147/147/147
f 147/147/147 181/181/181 212/212/212
f 147/147/147 212/212/212 190/190/190
f 194/194/194 200/200/200 147/147/147
f 195/195/195 194/194/194 147/147/147
f 147/147/147 190/190/190 213/213/213
f 92/92/92 53/53/53 15/15/15
f 15/15/15 67/67/67 76/76/76
f 76/76/76 130/130/130 87/87/87
f 87/87/87 86/86/86 26/26/26
f 26/26/26 45/45/45 151/151/151
f 151/151/151 160/160/160 216/216/216
f 216/216/216 93/93/93 92/92/92
f 92/92/92 15/15/15 76/76/76
f 76/76/76 87/87/87 26/26/26
f 26/26/26 151/151/151 216/216/216
f 216/216/216 92/92/92 76/76/76
f 157/157/157 155/155/155 80/80/80
f 127/127/127 88/88/88 161/161/161
f 18/18/18 59/59/59 6/6/6
f 3/3/3 56/56/56 143/143/143
f 66/66/66 13/13/13 173/173/173
f 66/66/66 173/173/173 206/206/206
f 166/166/166 97/97/97 66/66/66
f 131/131/131 133/133/133 166/166/166
f 178/178/178 37/37/37 131/131/131
f 209/209/209 178/178/178 131/131/131
f 131/131/131 166/166/166 66/66/66
f 66/66/66 206/206/206 205/205/205
f 205/205/205 209/209/209 131/131/131
f 21/21/21 10/10/10 65/65/65
f 101/101/101 71/71/71 70/70/70
f 73/73/73 71/71/71 101/101/101
f 135/135/135 82/82/82 73/73/73
f 136/136/136 82/82/82 135/135/135
f 36/36/36 29/29/29 136/136/136
f 23/23/23 31/31/31 44/44/44
f 163/163/163 143/143/143 88/88/88
f 104/104/104 183/183/183 210/210/210
f 139/139/139 184/184/184 183/183/183
f 95/95/95 102/102/102 210/210/210
f 107/107/107 188/188/188 184/184/184
f 140/140/140 186/186/186 188/188/188
f 140/140/140 111/111/111 191/191/191
f 111/111/111 110/110/110 214/214/214
f 110/110/110 114/114/114 196/196/196
f 114/114/114 113/113/113 215/215/215
f 115/115/115 202/202/202 215/215/215
f 62/62/62 171/171/171 202/202/202
f 118/118/118 169/169/169 171/171/171
f 128/128/128 211/211/211 169/169/169
f 128/128/128 120/120/120 207/207/207
f 120/120/120 96/96/96 174/174/174
f 96/96/96 95/95/95 217/217/217
f 223/223/223 224/224/224 225/225/225
f 226/226/226 227/227/227 228/228/228
f 229/229/229 230/230/230 231/231/231
f 232/232/232 233/233/233 234/234/234
f 235/235/235 236/236/236 237/237/237
f 238/238/238 239/239/239 240/240/240
f 228/228/228 241/241/241 242/242/242
f 243/243/243 244/244/244 245/245/245
f 246/246/246 247/247/247 243/243/243
f 237/237/237 248/248/248 226/226/226
f 235/235/235 231/231/231 249/249/249
f 250/250/250 241/241/241 239/239/239
f 223/223/223 251/251/251 246/246/246
f 252/252/252 234/234/234 230/230/230
f 253/253/253 240/240/240 224/224/224
f 245/245/245 233/233/233 254/254/254
f 230/230/230 234/234/234 255/255/255
f 244/244/244 247/247/247 256/256/256
f 233/233/233 244/244/244 257/257/257
f 239/239/239 241/241/241 258/258/258
f 247/247/247 251/251/251 259/259/259
f 225/225/225 224/224/224 260/260/260
f 251/251/251 225/225/225 261/261/261
f 240/240/240 239/239/239 262/262/262
f 224/224/224 240/240/240 263/263/263
f 241/241/241 227/227/227 264/264/264
f 236/236/236 249/249/249 265/265/265
f 227/227/227 248/248/248 266/266/266
f 248/248/248 236/236/236 267/267/267
f 231/231/231 230/230/230 268/268/268
f 249/249/249 231/231/231 269/269/269
f 234/234/234 233/233/233 270/270/270
f 271/271/271 272/272/272 273/273/273
f 274/274/274 272/272/272 275/275/275
f 276/276/276 277/277/277 278/278/278
f 279/279/279 280/280/280 281/281/281
f 282/282/282 280/280/280 283/283/283
f 284/284/284 280/280/280 285/285/285
f 286/286/286 287/287/287 288/288/288
f 289/289/289 287/287/287 290/290/290
f 291/291/291 287/287/287 292/292/292
f 293/293/293 294/294/294 295/295/295
f 296/296/296 297/297/297 298/298/298
f 299/299/299 300/300/300 301/301/301
f 302/302/302 303/303/303 304/304/304
f 305/305/305 306/306/306 307/307/307
f 308/308/308 303/303/303 309/309/309
f 310/310/310 311/311/311 312/312/312
f 313/313/313 311/311/311 314/314/314
f 315/315/315 311/311/311 316/316/316
f 317/317/317 318/318/318 319/319/319
f 320/320/320 321/321/321 322/322/322
f 323/323/323 324/324/324 325/325/325
f 326/326/326 327/327/327 328/328/328
f 329/329/329 327/327/327 330/330/330
f 331/331/331 327/327/327 332/332/332
f 333/333/333 63/63/63 334/334/334
f 335/335/335 121/121/121 94/94/94
f 289/289/289 283/283/283 279/279/279
f 290/290/290 282/282/282 283/283/283
f 122/122/122 336/336/336 103/103/103
f 337/337/337 103/103/103 336/336/336
f 338/338/338 108/108/108 339/339/339
f 340/340/340 141/141/141 109/109/109
f 341/341/341 150/150/150 112/112/112
f 334/334/334 116/116/116 342/342/342
f 343/343/343 61/61/61 333/333/333
f 344/344/344 94/94/94 119/119/119
f 122/122/122 345/345/345 346/346/346
f 302/302/302 347/347/347 348/348/348
f 347/347/347 308/308/308 349/349/349
f 343/343/343 119/119/119 117/117/117
f 350/350/350 351/351/351 293/293/293
f 352/352/352 296/296/296 298/298/298
f 339/339/339 105/105/105 337/337/337
f 338/338/338 109/109/109 106/106/106
f 353/353/353 112/112/112 141/141/141
f 317/317/317 354/354/354 355/355/355
f 356/356/356 357/357/357 358/358/358
f 342/342/342 150/150/150 359/359/359
f 360/360/360 292/292/292 289/289/289
f 361/361/361 291/291/291 292/292/292
f 271/271/271 288/288/288 291/291/291
f 288/288/288 276/276/276 286/286/286
f 282/282/282 301/301/301 285/285/285
f 362/362/362 284/284/284 285/285/285
f 363/363/363 281/281/281 284/284/284
f 364/364/364 279/279/279 281/281/281
f 293/293/293 365/365/365 274/274/274
f 366/366/366 276/276/276 278/278/278
f 310/310/310 367/367/367 305/305/305
f 309/309/309 315/315/315 308/308/308
f 323/323/323 368/368/368 302/302/302
f 369/369/369 305/305/305 307/307/307
f 329/329/329 370/370/370 317/317/317
f 322/322/322 326/326/326 320/320/320
f 331/331/331 371/371/371 372/372/372
f 332/332/332 373/373/373 371/371/371
f 274/274/274 374/374/374 375/375/375
f 275/275/275 376/376/376 374/374/374
f 313/313/313 377/377/377 316/316/316
f 377/377/377 315/315/315 316/316/316
f 313/313/313 328/328/328 331/331/331
f 314/314/314 326/326/326 328/328/328
f 271/271/271 378/378/378 376/376/376
f 360/360/360 279/279/279 379/379/379
f 299/299/299 286/286/286 276/276/276
f 350/350/350 274/274/274 375/375/375
f 284/284/284 380/380/380 363/363/363
f 336/336/336 243/243/243 337/337/337
f 346/346/346 246/246/246 336/336/336
f 346/346/346 253/253/253 223/223/223
f 337/337/337 245/245/245 339/339/339
f 339/339/339 254/254/254 338/338/338
f 340/340/340 254/254/254 232/232/232
f 353/353/353 232/232/232 252/252/252
f 341/341/341 252/252/252 229/229/229
f 359/359/359 229/229/229 235/235/235
f 359/359/359 237/237/237 342/342/342
f 342/342/342 226/226/226 334/334/334
f 334/334/334 228/228/228 333/333/333
f 333/333/333 242/242/242 343/343/343
f 344/344/344 242/242/242 250/250/250
f 335/335/335 250/250/250 238/238/238
f 345/345/345 238/238/238 253/253/253
f 308/308/308 381/381/381 349/349/349
f 357/357/357 302/302/302 348/348/348
f 382/382/382 331/331/331 372/372/372
f 320/320/320 310/310/310 305/305/305
f 329/329/329 355/355/355 373/373/373
f 223/223/223 253/253/253 224/224/224
f 226/226/226 248/248/248 227/227/227
f 229/229/229 252/252/252 230/230/230
f 232/232/232 254/254/254 233/233/233
f 235/235/235 249/249/249 236/236/236
f 238/238/238 250/250/250 239/239/239
f 228/228/228 227/227/227 241/241/241
f 243/243/243 247/247/247 244/244/244
f 246/246/246 251/251/251 247/247/247
f 237/237/237 236/236/236 248/248/248
f 235/235/235 229/229/229 231/231/231
f 250/250/250 242/242/242 241/241/241
f 223/223/223 225/225/225 251/251/251
f 252/252/252 232/232/232 234/234/234
f 253/253/253 238/238/238 240/240/240
f 245/245/245 244/244/244 233/233/233
f 271/271/271 275/275/275 272/272/272
f 274/274/274 365/365/365 272/272/272
f 276/276/276 383/383/383 277/277/277
f 279/279/279 283/283/283 280/280/280
f 282/282/282 285/285/285 280/280/280
f 284/284/284 281/281/281 280/280/280
f 286/286/286 290/290/290 287/287/287
f 289/289/289 292/292/292 287/287/287
f 291/291/291 288/288/288 287/287/287
f 293/293/293 351/351/351 294/294/294
f 296/296/296 362/362/362 297/297/297
f 299/299/299 366/366/366 300/300/300
f 302/302/302 368/368/368 303/303/303
f 305/305/305 367/367/367 306/306/306
f 308/308/308 304/304/304 303/303/303
f 310/310/310 314/314/314 311/311/311
f 313/313/313 316/316/316 311/311/311
f 315/315/315 312/312/312 311/311/311
f 317/317/317 370/370/370 318/318/318
f 320/320/320 369/369/369 321/321/321
f 323/323/323 356/356/356 324/324/324
f 326/326/326 330/330/330 327/327/327
f 329/329/329 332/332/332 327/327/327
f 331/331/331 328/328/328 327/327/327
f 333/333/333 61/61/61 63/63/63
f 335/335/335 345/345/345 121/121/121
f 289/289/289 290/290/290 283/283/283
f 290/290/290 286/286/286 282/282/282
f 122/122/122 346/346/346 336/336/336
f 337/337/337 105/105/105 103/103/103
f 338/338/338 106/106/106 108/108/108
f 340/340/340 353/353/353 141/141/141
f 341/341/341 359/359/359 150/150/150
f 334/334/334 63/63/63 116/116/116
f 343/343/343 117/117/117 61/61/61
f 344/344/344 335/335/335 94/94/94
f 122/122/122 121/121/121 345/345/345
f 302/302/302 304/304/304 347/347/347
f 347/347/347 304/304/304 308/308/308
f 343/343/343 344/344/344 119/119/119
f 350/350/350 384/384/384 351/351/351
f 352/352/352 380/380/380 296/296/296
f 339/339/339 108/108/108 105/105/105
f 338/338/338 340/340/340 109/109/109
f 353/353/353 341/341/341 112/112/112
f 317/317/317 319/319/319 354/354/354
f 356/356/356 323/323/323 357/357/357
f 342/342/342 116/116/116 150/150/150
f 360/360/360 361/361/361 292/292/292
f 361/361/361 378/378/378 291/291/291
f 271/271/271 273/273/273 288/288/288
f 288/288/288 383/383/383 276/276/276
f 282/282/282 299/299/299 301/301/301
f 362/362/362 296/296/296 284/284/284
f 363/363/363 364/364/364 281/281/281
f 364/364/364 379/379/379 279/279/279
f 293/293/293 295/295/295 365/365/365
f 366/366/366 299/299/299 276/276/276
f 310/310/310 312/312/312 367/367/367
f 309/309/309 312/312/312 315/315/315
f 323/323/323 325/325/325 368/368/368
f 369/369/369 320/320/320 305/305/305
f 329/329/329 330/330/330 370/370/370
f 322/322/322 330/330/330 326/326/326
f 331/331/331 332/332/332 371/371/371
f 332/332/332 329/329/329 373/373/373
f 274/274/274 275/275/275 374/374/374
f 275/275/275 271/271/271 376/376/376
f 313/313/313 382/382/382 377/377/377
f 377/377/377 381/381/381 315/315/315
f 313/313/313 314/314/314 328/328/328
f 314/314/314 310/310/310 326/326/326
f 271/271/271 291/291/291 378/378/378
f 360/360/360 289/289/289 279/279/279
f 299/299/299 282/282/282 286/286/286
f 350/350/350 293/293/293 274/274/274
f 284/284/284 296/296/296 380/380/380
f 336/336/336 246/246/246 243/243/243
f 346/346/346 223/223/223 246/246/246
f 346/346/346 345/345/345 253/253/253
f 337/337/337 243/243/243 245/245/245
f 339/339/339 245/245/245 254/254/254
f 340/340/340 338/338/338 254/254/254
f 353/353/353 340/340/340 232/232/232
f 341/341/341 353/353/353 252/252/252
f 359/359/359 341/341/341 229/229/229
f 359/359/359 235/235/235 237/237/237
f 342/342/342 237/237/237 226/226/226
f 334/334/334 226/226/226 228/228/228
f 333/333/333 228/228/228 242/242/242
f 344/344/344 343/343/343 242/242/242
f 335/335/335 344/344/344 250/250/250
f 345/345/345 335/335/335 238/238/238
f 308/308/308 315/315/315 381/381/381
f 357/357/357 323/323/323 302/302/302
f 382/382/382 313/313/313 331/331/331
f 320/320/320 326/326/326 310/310/310
f 329/329/329 317/317/317 355/355/355
f 385/385/385 386/386/386 387/387/387
f 388/388/388 386/386/386 389/389/389
f 390/390/390 386/386/386 391/391/391
f 392/392/392 393/393/393 394/394/394
f 395/395/395 393/393/393 396/396/396
f 397/397/397 393/393/393 398/398/398
f 399/399/399 400/400/400 401/401/401
f 402/402/402 400/400/400 403/403/403
f 404/404/404 400/400/400 405/405/405
f 406/406/406 407/407/407 408/408/408
f 409/409/409 407/407/407 410/410/410
f 411/411/411 407/407/407 412/412/412
f 392/392/392 413/413/413 414/414/414
f 394/394/394 415/415/415 416/416/416
f 406/406/406 417/417/417 418/418/418
f 419/419/419 411/411/411 420/420/420
f 399/399/399 421/421/421 422/422/422
f 401/401/401 423/423/423 424/424/424
f 388/388/388 425/425/425 426/426/426
f 389/389/389 427/427/427 428/428/428
f 390/390/390 398/398/398 395/395/395
f 391/391/391 397/397/397 398/398/398
f 411/411/411 396/396/396 392/392/392
f 412/412/412 395/395/395 396/396/396
f 409/409/409 405/405/405 402/402/402
f 410/410/410 404/404/404 405/405/405
f 402/402/402 387/387/387 390/390/390
f 403/403/403 385/385/385 387/387/387
f 423/423/423 406/406/406 418/418/418
f 422/422/422 385/385/385 399/399/399
f 388/388/388 415/415/415 397/397/397
f 409/409/409 390/390/390 395/395/395
f 392/392/392 420/420/420 411/411/411
f 385/385/385 389/389/389 386/386/386
f 388/388/388 391/391/391 386/386/386
f 390/390/390 387/387/387 386/386/386
f 392/392/392 396/396/396 393/393/393
f 395/395/395 398/398/398 393/393/393
f 397/397/397 394/394/394 393/393/393
f 399/399/399 403/403/403 400/400/400
f 402/402/402 405/405/405 400/400/400
f 404/404/404 401/401/401 400/400/400
f 406/406/406 410/410/410 407/407/407
f 409/409/409 412/412/412 407/407/407
f 411/411/411 408/408/408 407/407/407
f 392/392/392 394/394/394 413/413/413
f 394/394/394 397/397/397 415/415/415
f 406/406/406 408/408/408 417/417/417
f 419/419/419 408/408/408 411/411/411
f 399/399/399 401/401/401 421/421/421
f 401/401/401 404/404/404 423/423/423
f 388/388/388 389/389/389 425/425/425
f 389/389/389 385/385/385 427/427/427
f 390/390/390 391/391/391 398/398/398
f 391/391/391 388/388/388 397/397/397
f 411/411/411 412/412/412 396/396/396
f 412/412/412 409/409/409 395/395/395
f 409/409/409 410/410/410 405/405/405
f 410/410/410 406/406/406 404/404/404
f 402/402/402 403/403/403 387/387/387
f 403/403/403 399/399/399 385/385/385
f 423/423/423 404/404/404 406/406/406
f 422/422/422 427/427/427 385/385/385
f 388/388/388 426/426/426 415/415/415
f 409/409/409 402/402/402 390/390/390
f 392/392/392 414/414/414 420/420/420
