# VPXTOOL table OBJ file
# VPXTOOL OBJ file
# numVerts: 313 numFaces: 302
o Primitive019
v 0.401595 0.350995 -0
v 0.382587 0.350995 -0.103019
v 0.382587 0.324331 -0.099509
v 0.382587 0.299485 -0.089217
v 0.382587 0.278149 -0.072846
v 0.382587 0.261778 -0.05151
v 0.382587 0.251486 -0.026663
v 0.382587 0.247976 -0
v 0.382587 0.251486 0.026663
v 0.382587 0.261778 0.05151
v 0.382587 0.278149 0.072846
v 0.382587 0.299485 0.089217
v 0.382587 0.324331 0.099509
v 0.382587 0.350995 0.103019
v 0.382587 0.377658 0.099509
v 0.382587 0.402504 0.089217
v 0.382587 0.42384 0.072846
v 0.382587 0.440212 0.05151
v 0.382587 0.450504 0.026663
v 0.382587 0.454014 -0
v 0.382587 0.450504 -0.026663
v 0.382587 0.440212 -0.05151
v 0.382587 0.42384 -0.072846
v 0.382587 0.402504 -0.089217
v 0.382587 0.377658 -0.099509
v 0.148335 0.261053 -0.335669
v 0.375517 0.350995 -0.34751
v 0.148335 0.350995 -0.34751
v 0.375517 0.261053 -0.335669
v 0.375517 0.17724 -0.300952
v 0.148335 0.17724 -0.300952
v 0.148335 0.105268 -0.245727
v 0.375517 0.105268 -0.245727
v 0.375517 0.050043 -0.173755
v 0.148335 0.050043 -0.173755
v 0.148335 0.015326 -0.089942
v 0.375517 0.015326 -0.089942
v 0.375517 0.003485 -0
v 0.148335 0.003485 -0
v 0.148335 0.015326 0.089942
v 0.375517 0.003485 -0
v 0.148335 0.003485 -0
v 0.375517 0.015326 0.089942
v 0.375517 0.050043 0.173755
v 0.148335 0.050043 0.173755
v 0.148335 0.105268 0.245726
v 0.375517 0.105268 0.245726
v 0.375517 0.17724 0.300952
v 0.148335 0.17724 0.300952
v 0.148335 0.261053 0.335669
v 0.375517 0.261053 0.335669
v 0.375517 0.350995 0.34751
v 0.148335 0.350995 0.34751
v 0.148335 0.440937 0.335669
v 0.375517 0.440937 0.335669
v 0.375517 0.52475 0.300952
v 0.148335 0.52475 0.300952
v 0.148335 0.596721 0.245726
v 0.375517 0.596721 0.245726
v 0.375517 0.651947 0.173755
v 0.148335 0.651947 0.173755
v 0.148335 0.686663 0.089942
v 0.375517 0.686663 0.089942
v 0.375517 0.698505 -0
v 0.148335 0.698505 -0
v 0.148335 0.686663 -0.089942
v 0.375517 0.686663 -0.089942
v 0.375517 0.651947 -0.173755
v 0.148335 0.651947 -0.173755
v 0.148335 0.596721 -0.245727
v 0.375517 0.596721 -0.245727
v 0.375517 0.52475 -0.300952
v 0.148335 0.52475 -0.300952
v 0.148335 0.440937 -0.335669
v 0.375517 0.440937 -0.335669
v 0.382587 0.350995 -0.34056
v 0.375517 0.350995 -0.34751
v 0.375517 0.261053 -0.335669
v 0.382587 0.262852 -0.328955
v 0.375517 0.17724 -0.300952
v 0.382587 0.180715 -0.294933
v 0.375517 0.105268 -0.245727
v 0.382587 0.110183 -0.240812
v 0.375517 0.050043 -0.173755
v 0.382587 0.056062 -0.17028
v 0.375517 0.015326 -0.089942
v 0.382587 0.02204 -0.088143
v 0.375517 0.003485 -0
v 0.382587 0.010435 -0
v 0.375517 0.015326 0.089942
v 0.382587 0.02204 0.088143
v 0.375517 0.050043 0.173755
v 0.382587 0.056062 0.17028
v 0.375517 0.105268 0.245726
v 0.382587 0.110183 0.240812
v 0.375517 0.17724 0.300952
v 0.382587 0.180715 0.294933
v 0.375517 0.261053 0.335669
v 0.382587 0.262852 0.328955
v 0.375517 0.350995 0.34751
v 0.382587 0.350995 0.34056
v 0.375517 0.440937 0.335669
v 0.382587 0.439138 0.328955
v 0.375517 0.52475 0.300952
v 0.382587 0.521275 0.294933
v 0.375517 0.596721 0.245726
v 0.382587 0.591807 0.240812
v 0.375517 0.651947 0.173755
v 0.382587 0.645928 0.17028
v 0.375517 0.686663 0.089942
v 0.382587 0.67995 0.088143
v 0.375517 0.698505 -0
v 0.382587 0.691554 -0
v 0.375517 0.686663 -0.089942
v 0.382587 0.67995 -0.088143
v 0.375517 0.651947 -0.173755
v 0.382587 0.645928 -0.17028
v 0.375517 0.596721 -0.245727
v 0.382587 0.591807 -0.240812
v 0.375517 0.52475 -0.300952
v 0.382587 0.521275 -0.294933
v 0.375517 0.440937 -0.335669
v 0.382587 0.439138 -0.328955
v 0.141265 0.262852 -0.328955
v 0.148335 0.261053 -0.335669
v 0.148335 0.350995 -0.34751
v 0.141265 0.350995 -0.34056
v 0.141265 0.180715 -0.294933
v 0.148335 0.17724 -0.300952
v 0.141265 0.110183 -0.240812
v 0.148335 0.105268 -0.245727
v 0.141265 0.056062 -0.17028
v 0.148335 0.050043 -0.173755
v 0.141265 0.02204 -0.088143
v 0.148335 0.015326 -0.089942
v 0.141265 0.010435 -0
v 0.148335 0.003485 -0
v 0.141265 0.02204 0.088143
v 0.148335 0.015326 0.089942
v 0.141265 0.056062 0.17028
v 0.148335 0.050043 0.173755
v 0.141265 0.110183 0.240812
v 0.148335 0.105268 0.245726
v 0.141265 0.180715 0.294933
v 0.148335 0.17724 0.300952
v 0.141265 0.262852 0.328955
v 0.148335 0.261053 0.335669
v 0.141265 0.350995 0.34056
v 0.148335 0.350995 0.34751
v 0.141265 0.439138 0.328955
v 0.148335 0.440937 0.335669
v 0.141265 0.521275 0.294933
v 0.148335 0.52475 0.300952
v 0.141265 0.591807 0.240812
v 0.148335 0.596721 0.245726
v 0.141265 0.645928 0.17028
v 0.148335 0.651947 0.173755
v 0.141265 0.67995 0.088143
v 0.148335 0.686663 0.089942
v 0.141265 0.691554 -0
v 0.148335 0.698505 -0
v 0.141265 0.67995 -0.088143
v 0.148335 0.686663 -0.089942
v 0.141265 0.645928 -0.17028
v 0.148335 0.651947 -0.173755
v 0.141265 0.591807 -0.240812
v 0.148335 0.596721 -0.245727
v 0.141265 0.521275 -0.294933
v 0.148335 0.52475 -0.300952
v 0.141265 0.439138 -0.328955
v 0.148335 0.440937 -0.335669
v 0.382587 0.350995 -0
v 0.382587 0.350995 -0.34056
v 0.382587 0.262852 -0.328955
v 0.382587 0.180715 -0.294933
v 0.382587 0.110183 -0.240812
v 0.382587 0.056062 -0.17028
v 0.382587 0.02204 -0.088143
v 0.382587 0.010435 -0
v 0.382587 0.02204 0.088143
v 0.382587 0.056062 0.17028
v 0.382587 0.110183 0.240812
v 0.382587 0.180715 0.294933
v 0.382587 0.262852 0.328955
v 0.382587 0.350995 0.34056
v 0.382587 0.439138 0.328955
v 0.382587 0.521275 0.294933
v 0.382587 0.591807 0.240812
v 0.382587 0.645928 0.17028
v 0.382587 0.67995 0.088143
v 0.382587 0.691554 -0
v 0.382587 0.67995 -0.088143
v 0.382587 0.645928 -0.17028
v 0.382587 0.591807 -0.240812
v 0.382587 0.521275 -0.294933
v 0.382587 0.439138 -0.328955
v 0.141265 0.350995 -0
v 0.141265 0.262852 -0.328955
v 0.141265 0.350995 -0.34056
v 0.141265 0.180715 -0.294933
v 0.141265 0.110183 -0.240812
v 0.141265 0.056062 -0.17028
v 0.141265 0.02204 -0.088143
v 0.141265 0.010435 -0
v 0.141265 0.02204 0.088143
v 0.141265 0.056062 0.17028
v 0.141265 0.110183 0.240812
v 0.141265 0.180715 0.294933
v 0.141265 0.262852 0.328955
v 0.141265 0.350995 0.34056
v 0.141265 0.439138 0.328955
v 0.141265 0.521275 0.294933
v 0.141265 0.591807 0.240812
v 0.141265 0.645928 0.17028
v 0.141265 0.67995 0.088143
v 0.141265 0.691554 -0
v 0.141265 0.67995 -0.088143
v 0.141265 0.645928 -0.17028
v 0.141265 0.591807 -0.240812
v 0.141265 0.521275 -0.294933
v 0.141265 0.439138 -0.328955
v -0.272153 0.360495 0
v 0.141265 0.360495 0.233595
v -0.281566 0.360495 0.041449
v -0.299669 0.360495 0.079955
v -0.325691 0.360495 0.119064
v -0.358638 0.360495 0.155078
v -0.3881 0.360495 0.198398
v -0.401405 0.360495 0.252548
v -0.3881 0.360495 0.306698
v -0.344382 0.360495 0.344603
v -0.227485 0.360495 0.35453
v -0.287359 0.360495 0.359945
v -0.272153 0.341495 0
v -0.272153 0.360495 0
v -0.281566 0.360495 0.041449
v -0.281566 0.341495 0.041449
v -0.299669 0.360495 0.079955
v -0.299669 0.341495 0.079955
v -0.325691 0.360495 0.119064
v -0.325691 0.341495 0.119064
v -0.358638 0.360495 0.155078
v -0.358638 0.341495 0.155078
v -0.3881 0.360495 0.198398
v -0.3881 0.341495 0.198398
v -0.401405 0.360495 0.252548
v -0.401405 0.341495 0.252548
v -0.3881 0.360495 0.306698
v -0.3881 0.341495 0.306698
v -0.344382 0.360495 0.344603
v -0.344382 0.341495 0.344603
v -0.287359 0.341495 0.359945
v -0.287359 0.360495 0.359945
v -0.227485 0.360495 0.35453
v -0.227485 0.341495 0.35453
v 0.141265 0.360495 0.233595
v 0.141265 0.341495 0.233595
v 0.141265 0.360495 -0.233595
v -0.281566 0.360495 -0.041449
v -0.299669 0.360495 -0.079955
v -0.325691 0.360495 -0.119064
v -0.358638 0.360495 -0.155078
v -0.3881 0.360495 -0.198398
v -0.401405 0.360495 -0.252548
v -0.3881 0.360495 -0.306698
v -0.344382 0.360495 -0.344603
v -0.287359 0.360495 -0.359945
v -0.227485 0.360495 -0.35453
v -0.281566 0.360495 -0.041449
v -0.281566 0.341495 -0.041449
v -0.299669 0.360495 -0.079955
v -0.299669 0.341495 -0.079955
v -0.325691 0.360495 -0.119064
v -0.325691 0.341495 -0.119064
v -0.358638 0.360495 -0.155078
v -0.358638 0.341495 -0.155078
v -0.3881 0.360495 -0.198398
v -0.3881 0.341495 -0.198398
v -0.401405 0.360495 -0.252548
v -0.401405 0.341495 -0.252548
v -0.3881 0.360495 -0.306698
v -0.3881 0.341495 -0.306698
v -0.344382 0.360495 -0.344603
v -0.344382 0.341495 -0.344603
v -0.227485 0.360495 -0.35453
v -0.287359 0.360495 -0.359945
v -0.287359 0.341495 -0.359945
v -0.227485 0.341495 -0.35453
v 0.141265 0.360495 -0.233595
v 0.141265 0.341495 -0.233595
v -0.281566 0.341495 0.041449
v 0.141265 0.341495 0.233595
v -0.272153 0.341495 0
v -0.299669 0.341495 0.079955
v -0.325691 0.341495 0.119064
v -0.358638 0.341495 0.155078
v -0.3881 0.341495 0.198398
v -0.401405 0.341495 0.252548
v -0.3881 0.341495 0.306698
v -0.344382 0.341495 0.344603
v -0.287359 0.341495 0.359945
v -0.227485 0.341495 0.35453
v 0.141265 0.341495 -0.233595
v -0.281566 0.341495 -0.041449
v -0.299669 0.341495 -0.079955
v -0.325691 0.341495 -0.119064
v -0.358638 0.341495 -0.155078
v -0.3881 0.341495 -0.198398
v -0.401405 0.341495 -0.252548
v -0.3881 0.341495 -0.306698
v -0.344382 0.341495 -0.344603
v -0.227485 0.341495 -0.35453
v -0.287359 0.341495 -0.359945
vt 0.139552 0.16469502
vt 0.264552 0.16469502
vt 0.260293 0.13234198
vt 0.247805 0.102195024
vt 0.22794 0.076305985
vt 0.202052 0.056442022
vt 0.171904 0.043954015
vt 0.139552 0.039695024
vt 0.1072 0.043954015
vt 0.077052 0.056442022
vt 0.051164 0.076305985
vt 0.031299 0.102195024
vt 0.018811 0.13234198
vt 0.014552 0.16469502
vt 0.018811 0.197047
vt 0.031299 0.22719502
vt 0.051164 0.253083
vt 0.077052 0.27294803
vt 0.1072 0.28543496
vt 0.139552 0.28969502
vt 0.171904 0.28543496
vt 0.202052 0.27294803
vt 0.22794 0.253083
vt 0.247805 0.22719502
vt 0.260293 0.197047
vt 0.791666 1
vt 0.75 0.879999995
vt 0.75 1
vt 0.791666 0.879999995
vt 0.833333 0.879999995
vt 0.833333 1
vt 0.875 1
vt 0.875 0.879999995
vt 0.916666 0.879999995
vt 0.916667 1
vt 0.958333 1
vt 0.958333 0.879999995
vt 1 0.879999995
vt 1 1
vt 0.041667 1
vt 0 0.88000101
vt 0 1
vt 0.041667 0.88000101
vt 0.083334 0.88000101
vt 0.083334 1
vt 0.125 1
vt 0.125 0.88000101
vt 0.166667 0.88000101
vt 0.166667 1
vt 0.208333 1
vt 0.208333 0.88000101
vt 0.25 0.88000101
vt 0.25 1
vt 0.291667 1
vt 0.291667 0.88000101
vt 0.333334 0.88000101
vt 0.333334 1
vt 0.375 1
vt 0.375 0.88000101
vt 0.416667 0.88000101
vt 0.416667 1
vt 0.458333 1
vt 0.458333 0.88000101
vt 0.5 0.88000101
vt 0.5 1
vt 0.541667 1
vt 0.541667 0.88000101
vt 0.583333 0.88000101
vt 0.583333 1
vt 0.625 1
vt 0.625 0.88000101
vt 0.666666 0.88000101
vt 0.666666 1
vt 0.708333 1
vt 0.708333 0.88000101
vt 0.769227 0.59091997
vt 0.774727 0.59091997
vt 0.765357 0.519745
vt 0.760044 0.521168
vt 0.737884 0.45342004
vt 0.733121 0.45616996
vt 0.694181 0.39646602
vt 0.690292 0.40035498
vt 0.637227 0.352763
vt 0.634477 0.357526
vt 0.570902 0.32529104
vt 0.569479 0.330603
vt 0.499727 0.31592
vt 0.499727 0.32142
vt 0.428552 0.32529104
vt 0.429976 0.330603
vt 0.362227 0.352763
vt 0.364977 0.357526
vt 0.305273 0.39646602
vt 0.309162 0.40035498
vt 0.261571 0.45342004
vt 0.266334 0.45616996
vt 0.234098 0.519745
vt 0.23941 0.521168
vt 0.224727 0.59091997
vt 0.230227 0.59091997
vt 0.234098 0.662095
vt 0.23941 0.660672
vt 0.261571 0.72842002
vt 0.266334 0.72566998
vt 0.305273 0.78537399
vt 0.309162 0.78148502
vt 0.362227 0.829077
vt 0.364977 0.824314
vt 0.428552 0.85654998
vt 0.429976 0.851237
vt 0.499727 0.86592
vt 0.499727 0.86041999
vt 0.570902 0.85654998
vt 0.569479 0.851237
vt 0.637227 0.829077
vt 0.634477 0.824314
vt 0.694181 0.78537399
vt 0.690292 0.78148502
vt 0.737884 0.72842002
vt 0.733121 0.72566998
vt 0.765357 0.662095
vt 0.760044 0.660672
vt 0.760044 0.521168
vt 0.765357 0.519745
vt 0.774727 0.59091997
vt 0.769227 0.59091997
vt 0.733121 0.45616996
vt 0.737884 0.45342004
vt 0.690292 0.40035498
vt 0.694181 0.39646602
vt 0.634477 0.357526
vt 0.637227 0.352763
vt 0.569479 0.330603
vt 0.570902 0.32529104
vt 0.499727 0.32142
vt 0.499727 0.31592
vt 0.429976 0.330603
vt 0.428552 0.32529104
vt 0.364977 0.357526
vt 0.362227 0.352763
vt 0.309162 0.40035498
vt 0.305273 0.39646602
vt 0.266334 0.45616996
vt 0.261571 0.45342004
vt 0.23941 0.521168
vt 0.234098 0.519745
vt 0.230227 0.59091997
vt 0.224727 0.59091997
vt 0.23941 0.660672
vt 0.234098 0.662095
vt 0.266334 0.72566998
vt 0.261571 0.72842002
vt 0.309162 0.78148502
vt 0.305273 0.78537399
vt 0.364977 0.824314
vt 0.362227 0.829077
vt 0.429976 0.851237
vt 0.428552 0.85654998
vt 0.499727 0.86041999
vt 0.499727 0.86592
vt 0.569479 0.851237
vt 0.570902 0.85654998
vt 0.634477 0.824314
vt 0.637227 0.829077
vt 0.690292 0.78148502
vt 0.694181 0.78537399
vt 0.733121 0.72566998
vt 0.737884 0.72842002
vt 0.760044 0.660672
vt 0.765357 0.662095
vt 0.499727 0.59091997
vt 0.769227 0.59091997
vt 0.760044 0.521168
vt 0.733121 0.45616996
vt 0.690292 0.40035498
vt 0.634477 0.357526
vt 0.569479 0.330603
vt 0.499727 0.32142
vt 0.429976 0.330603
vt 0.364977 0.357526
vt 0.309162 0.40035498
vt 0.266334 0.45616996
vt 0.23941 0.521168
vt 0.230227 0.59091997
vt 0.23941 0.660672
vt 0.266334 0.72566998
vt 0.309162 0.78148502
vt 0.364977 0.824314
vt 0.429976 0.851237
vt 0.499727 0.86041999
vt 0.569479 0.851237
vt 0.634477 0.824314
vt 0.690292 0.78148502
vt 0.733121 0.72566998
vt 0.760044 0.660672
vt 0.499727 0.59091997
vt 0.760044 0.521168
vt 0.769227 0.59091997
vt 0.733121 0.45616996
vt 0.690292 0.40035498
vt 0.634477 0.357526
vt 0.569479 0.330603
vt 0.499727 0.32142
vt 0.429976 0.330603
vt 0.364977 0.357526
vt 0.309162 0.40035498
vt 0.266334 0.45616996
vt 0.23941 0.521168
vt 0.230227 0.59091997
vt 0.23941 0.660672
vt 0.266334 0.72566998
vt 0.309162 0.78148502
vt 0.364977 0.824314
vt 0.429976 0.851237
vt 0.499727 0.86041999
vt 0.569479 0.851237
vt 0.634477 0.824314
vt 0.690292 0.78148502
vt 0.733121 0.72566998
vt 0.760044 0.660672
vt 0.498326 0.2489
vt 0.374209 0.029326975
vt 0.476303 0.2539
vt 0.455843 0.26351404
vt 0.435063 0.277335
vt 0.415928 0.29483402
vt 0.392911 0.310481
vt 0.364139 0.31754804
vt 0.335368 0.310481
vt 0.315228 0.28726196
vt 0.309953 0.22517598
vt 0.307076 0.256976
vt 0.500124 0.01999998
vt 0.500124 0
vt 0.479585 0
vt 0.479585 0.01999998
vt 0.460505 0
vt 0.460505 0.01999998
vt 0.441126 0
vt 0.441126 0.01999998
vt 0.42328 0
vt 0.42328 0.01999998
vt 0.401815 0
vt 0.401815 0.01999998
vt 0.374983 0
vt 0.374983 0.01999998
vt 0.347973 0
vt 0.347973 0.01999998
vt 0.319236 0
vt 0.319236 0.01999998
vt 0.281753 0.01999998
vt 0.281753 0
vt 0.242393 0
vt 0.242393 0.01999998
vt 0 0
vt 0 0.01999998
vt 0.622442 0.029326975
vt 0.520349 0.2539
vt 0.540808 0.26351404
vt 0.561588 0.277335
vt 0.580723 0.29483402
vt 0.603741 0.310481
vt 0.632512 0.31754804
vt 0.661284 0.310481
vt 0.681424 0.28726196
vt 0.689576 0.256976
vt 0.686698 0.22517598
vt 0.520662 0
vt 0.520662 0.01999998
vt 0.539743 0
vt 0.539743 0.01999998
vt 0.559122 0
vt 0.559122 0.01999998
vt 0.576967 0
vt 0.576967 0.01999998
vt 0.598433 0
vt 0.598433 0.01999998
vt 0.625265 0
vt 0.625265 0.01999998
vt 0.652029 0
vt 0.652029 0.01999998
vt 0.680766 0
vt 0.680766 0.01999998
vt 0.757607 0
vt 0.718249 0
vt 0.718249 0.01999998
vt 0.757607 0.01999998
vt 1 0
vt 1 0.01999998
vt 0.476303 0.2539
vt 0.374209 0.029326975
vt 0.498326 0.2489
vt 0.455843 0.26351404
vt 0.435063 0.277335
vt 0.415928 0.29483402
vt 0.392911 0.310481
vt 0.364139 0.31754804
vt 0.335368 0.310481
vt 0.315228 0.28726196
vt 0.307076 0.256976
vt 0.309953 0.22517598
vt 0.622442 0.029326975
vt 0.520349 0.2539
vt 0.540808 0.26351404
vt 0.561588 0.277335
vt 0.580723 0.29483402
vt 0.603741 0.310481
vt 0.632512 0.31754804
vt 0.661284 0.310481
vt 0.681424 0.28726196
vt 0.686698 0.22517598
vt 0.689576 0.256976
vn 1 0 0
vn 0.983398 0 -0.181433
vn 0.983398 -0.046937 -0.175237
vn 0.983398 -0.090701 -0.157109
vn 0.983398 -0.1283 -0.1283
vn 0.983398 -0.157109 -0.090701
vn 0.983398 -0.175237 -0.046937
vn 0.983398 -0.181433 0
vn 0.983398 -0.175237 0.046937
vn 0.983398 -0.157109 0.090701
vn 0.983398 -0.1283 0.1283
vn 0.983398 -0.090701 0.157109
vn 0.983398 -0.046937 0.175237
vn 0.983398 0 0.181433
vn 0.983398 0.046937 0.175237
vn 0.983398 0.090701 0.157109
vn 0.983398 0.1283 0.1283
vn 0.983398 0.157109 0.090701
vn 0.983398 0.175237 0.046937
vn 0.983398 0.181433 0
vn 0.983398 0.175237 -0.046937
vn 0.983398 0.157109 -0.090701
vn 0.983398 0.1283 -0.1283
vn 0.983398 0.090701 -0.157109
vn 0.983398 0.046937 -0.175237
vn 0 -0.258797 -0.965911
vn 0 0 -1
vn 0 0 -0.999969
vn 0 -0.258797 -0.965911
vn 0 -0.499985 -0.866024
vn 0 -0.499985 -0.866024
vn 0 -0.707083 -0.707083
vn 0 -0.707083 -0.707083
vn 0 -0.866024 -0.499985
vn 0 -0.866024 -0.499985
vn 0 -0.965911 -0.258797
vn 0 -0.965911 -0.258797
vn 0 -1 0
vn 0 -1 0
vn 0 -0.965911 0.258797
vn 0 -1 0
vn 0 -1 0
vn 0 -0.965911 0.258797
vn 0 -0.866024 0.499985
vn 0 -0.866024 0.499985
vn 0 -0.707083 0.707083
vn 0 -0.707083 0.707083
vn 0 -0.499985 0.866024
vn 0 -0.499985 0.866024
vn 0 -0.258797 0.965911
vn 0 -0.258797 0.965911
vn 0 0 1
vn 0 0 1
vn 0 0.258797 0.965911
vn 0 0.258797 0.965911
vn 0 0.499985 0.866024
vn 0 0.499985 0.866024
vn 0 0.707083 0.707083
vn 0 0.707083 0.707083
vn 0 0.866024 0.499985
vn 0 0.866024 0.499985
vn 0 0.965911 0.258797
vn 0 0.965911 0.258797
vn 0 1 0
vn 0 1 0
vn 0 0.965911 -0.258797
vn 0 0.965911 -0.258797
vn 0 0.866024 -0.499985
vn 0 0.866024 -0.499985
vn 0 0.707083 -0.707083
vn 0 0.707083 -0.707083
vn 0 0.499985 -0.866024
vn 0 0.499985 -0.866024
vn 0 0.258797 -0.965911
vn 0 0.258797 -0.965911
vn 0.70101 0 -0.713126
vn 0.70101 0 -0.713126
vn 0.70101 -0.184545 -0.688803
vn 0.70101 -0.184545 -0.688803
vn 0.70101 -0.356548 -0.617573
vn 0.70101 -0.356548 -0.617573
vn 0.70101 -0.504257 -0.504257
vn 0.70101 -0.504257 -0.504257
vn 0.70101 -0.617573 -0.356548
vn 0.70101 -0.617573 -0.356548
vn 0.70101 -0.688803 -0.184545
vn 0.70101 -0.688803 -0.184545
vn 0.70101 -0.713126 0
vn 0.70101 -0.713126 0
vn 0.70101 -0.688803 0.184545
vn 0.70101 -0.688803 0.184545
vn 0.70101 -0.617573 0.356548
vn 0.70101 -0.617573 0.356548
vn 0.70101 -0.504227 0.504257
vn 0.70101 -0.504227 0.504227
vn 0.70101 -0.356548 0.617573
vn 0.70101 -0.356548 0.617573
vn 0.70101 -0.184545 0.688803
vn 0.70101 -0.184545 0.688803
vn 0.70101 0 0.713126
vn 0.70101 0 0.713126
vn 0.70101 0.184545 0.688803
vn 0.70101 0.184545 0.688803
vn 0.70101 0.356548 0.617573
vn 0.70101 0.356548 0.617573
vn 0.70101 0.504257 0.504257
vn 0.70101 0.504257 0.504257
vn 0.70101 0.617573 0.356548
vn 0.70101 0.617573 0.356548
vn 0.70101 0.688803 0.184545
vn 0.70101 0.688803 0.184545
vn 0.70101 0.713126 0
vn 0.70101 0.713126 0
vn 0.70101 0.688803 -0.184545
vn 0.70101 0.688803 -0.184545
vn 0.70101 0.617573 -0.356548
vn 0.70101 0.617573 -0.356548
vn 0.70101 0.504257 -0.504257
vn 0.70101 0.504257 -0.504257
vn 0.70101 0.356548 -0.617573
vn 0.70101 0.356548 -0.617573
vn 0.70101 0.184545 -0.688803
vn 0.70101 0.184545 -0.688803
vn -0.70101 -0.184545 -0.688803
vn -0.70101 -0.184545 -0.688803
vn -0.70101 0 -0.713126
vn -0.70101 0 -0.713126
vn -0.70101 -0.356548 -0.617573
vn -0.70101 -0.356548 -0.617573
vn -0.70101 -0.504257 -0.504257
vn -0.70101 -0.504257 -0.504257
vn -0.70101 -0.617573 -0.356548
vn -0.70101 -0.617573 -0.356548
vn -0.70101 -0.688833 -0.184545
vn -0.70101 -0.688833 -0.184545
vn -0.70101 -0.713126 0
vn -0.70101 -0.713126 0
vn -0.70101 -0.688833 0.184545
vn -0.70101 -0.688833 0.184545
vn -0.70101 -0.617573 0.356548
vn -0.70101 -0.617573 0.356548
vn -0.70101 -0.504257 0.504257
vn -0.70101 -0.504257 0.504257
vn -0.70101 -0.356548 0.617573
vn -0.70101 -0.356548 0.617573
vn -0.70101 -0.184545 0.688833
vn -0.70101 -0.184545 0.688833
vn -0.70101 0 0.713126
vn -0.70101 0 0.713126
vn -0.70101 0.184545 0.688833
vn -0.70101 0.184545 0.688833
vn -0.70101 0.356548 0.617573
vn -0.70101 0.356548 0.617573
vn -0.70101 0.504257 0.504257
vn -0.70101 0.504257 0.504257
vn -0.70101 0.617573 0.356548
vn -0.70101 0.617573 0.356548
vn -0.70101 0.688803 0.184545
vn -0.70101 0.688803 0.184545
vn -0.70101 0.713126 0
vn -0.70101 0.713126 0
vn -0.70101 0.688803 -0.184545
vn -0.70101 0.688803 -0.184545
vn -0.70101 0.617573 -0.356548
vn -0.70101 0.617573 -0.356548
vn -0.70101 0.504257 -0.504257
vn -0.70101 0.504257 -0.504257
vn -0.70101 0.356548 -0.617573
vn -0.70101 0.356548 -0.617573
vn -0.70101 0.184545 -0.688803
vn -0.70101 0.184545 -0.688803
vn 0.999969 0 0
vn 1 0 0
vn 0.999969 0 0
vn 1 0 0
vn 1 0 0
vn 1 0 0
vn 1 0 0
vn 1 0 0
vn 1 0 0
vn 1 0 0
vn 1 0 0
vn 0.999969 0 0
vn 1 0 0
vn 1 0 0
vn 1 0 0
vn 0.999969 0 0
vn 1 0 0
vn 1 0 0
vn 1 0 0
vn 1 0 0
vn 1 0 0
vn 1 0 0
vn 1 0 0
vn 1 0 0
vn 0.999969 0 0
vn -0.999969 0 0
vn -0.999969 0 0
vn -1 0 0
vn -1 0 0
vn -1 0 0
vn -1 0 0
vn -1 0 0
vn -1 0 0
vn -1 0 0
vn -1 0 0
vn -1 0 0
vn -0.999969 0 0
vn -1 0 0
vn -1 0 0
vn -1 0 0
vn -0.999969 0 0
vn -1 0 0
vn -1 0 0
vn -1 0 0
vn -1 0 0
vn -1 0 0
vn -1 0 0
vn -1 0 0
vn -1 0 0
vn -0.999969 0 0
vn 0 1 0
vn 0 1 0
vn 0 0.999969 0
vn 0 1 0
vn 0 1 0
vn 0 1 0
vn 0 1 0
vn 0 1 0
vn 0 1 0
vn 0 1 0
vn 0 0.999969 0
vn 0 0.999969 0
vn -0.999969 0 0
vn -1 0 0
vn -0.945585 0 -0.325327
vn -0.945585 0 -0.325327
vn -0.87112 0 -0.491043
vn -0.87112 0 -0.491043
vn -0.7875 0 -0.616291
vn -0.7875 0 -0.616291
vn -0.784356 0 -0.620258
vn -0.784356 0 -0.620258
vn -0.91345 0 -0.406903
vn -0.91345 0 -0.406903
vn -1 0 0
vn -1 0 0
vn -0.853175 0 0.521592
vn -0.853175 0 0.521592
vn -0.469344 0 0.882992
vn -0.469344 0 0.882992
vn -0.086184 0 0.996277
vn -0.086184 0 0.996277
vn 0.202124 0 0.979339
vn 0.202124 0 0.979339
vn 0.311624 0 0.950194
vn 0.311624 0 0.950194
vn 0 1 0
vn 0 0.999969 0
vn 0 1 0
vn 0 1 0
vn 0 1 0
vn 0 1 0
vn 0 1 0
vn 0 1 0
vn 0 1 0
vn 0 0.999969 0
vn 0 0.999969 0
vn -0.945585 0 0.325327
vn -0.945585 0 0.325327
vn -0.87112 0 0.491043
vn -0.87112 0 0.491043
vn -0.7875 0 0.616291
vn -0.7875 0 0.616291
vn -0.784356 0 0.620258
vn -0.784356 0 0.620258
vn -0.91345 0 0.406903
vn -0.91345 0 0.406903
vn -1 0 0
vn -1 0 0
vn -0.853175 0 -0.521592
vn -0.853175 0 -0.521592
vn -0.469344 0 -0.882992
vn -0.469344 0 -0.882992
vn 0.202124 0 -0.979339
vn -0.086184 0 -0.996277
vn -0.086184 0 -0.996277
vn 0.202124 0 -0.979339
vn 0.311624 0 -0.950194
vn 0.311624 0 -0.950194
vn 0 -0.999969 0
vn 0 -1 0
vn 0 -1 0
vn 0 -1 0
vn 0 -1 0
vn 0 -1 0
vn 0 -1 0
vn 0 -1 0
vn 0 -1 0
vn 0 -1 0
vn 0 -0.999969 0
vn 0 -0.999969 0
vn 0 -1 0
vn 0 -0.999969 0
vn 0 -1 0
vn 0 -1 0
vn 0 -1 0
vn 0 -1 0
vn 0 -1 0
vn 0 -1 0
vn 0 -1 0
vn 0 -0.999969 0
vn 0 -0.999969 0
f 255/255/255 257/257/257 256/256/256
f 256/256/256 254/254/254 255/255/255
f 252/252/252 255/255/255 254/254/254
f 254/254/254 253/253/253 252/252/252
f 251/251/251 252/252/252 253/253/253
f 253/253/253 250/250/250 251/251/251
f 249/249/249 251/251/251 250/250/250
f 250/250/250 248/248/248 249/249/249
f 247/247/247 249/249/249 248/248/248
f 248/248/248 246/246/246 247/247/247
f 245/245/245 247/247/247 246/246/246
f 246/246/246 244/244/244 245/245/245
f 243/243/243 245/245/245 244/244/244
f 244/244/244 242/242/242 243/243/243
f 241/241/241 243/243/243 242/242/242
f 242/242/242 240/240/240 241/241/241
f 239/239/239 241/241/241 240/240/240
f 240/240/240 238/238/238 239/239/239
f 237/237/237 239/239/239 238/238/238
f 238/238/238 236/236/236 237/237/237
f 234/234/234 237/237/237 236/236/236
f 236/236/236 235/235/235 234/234/234
f 234/234/234 235/235/235 269/269/269
f 269/269/269 270/270/270 234/234/234
f 270/270/270 269/269/269 271/271/271
f 271/271/271 272/272/272 270/270/270
f 272/272/272 271/271/271 273/273/273
f 273/273/273 274/274/274 272/272/272
f 274/274/274 273/273/273 275/275/275
f 275/275/275 276/276/276 274/274/274
f 276/276/276 275/275/275 277/277/277
f 277/277/277 278/278/278 276/276/276
f 278/278/278 277/277/277 279/279/279
f 279/279/279 280/280/280 278/278/278
f 280/280/280 279/279/279 281/281/281
f 281/281/281 282/282/282 280/280/280
f 282/282/282 281/281/281 283/283/283
f 283/283/283 284/284/284 282/282/282
f 284/284/284 283/283/283 286/286/286
f 286/286/286 287/287/287 284/284/284
f 287/287/287 286/286/286 285/285/285
f 285/285/285 288/288/288 287/287/287
f 288/288/288 285/285/285 289/289/289
f 289/289/289 290/290/290 288/288/288
f 3/3/3 2/2/2 1/1/1
f 2/2/2 25/25/25 1/1/1
f 4/4/4 3/3/3 1/1/1
f 25/25/25 24/24/24 1/1/1
f 5/5/5 4/4/4 1/1/1
f 24/24/24 23/23/23 1/1/1
f 6/6/6 5/5/5 1/1/1
f 23/23/23 22/22/22 1/1/1
f 7/7/7 6/6/6 1/1/1
f 22/22/22 21/21/21 1/1/1
f 8/8/8 7/7/7 1/1/1
f 21/21/21 20/20/20 1/1/1
f 9/9/9 8/8/8 1/1/1
f 20/20/20 19/19/19 1/1/1
f 10/10/10 9/9/9 1/1/1
f 19/19/19 18/18/18 1/1/1
f 11/11/11 10/10/10 1/1/1
f 18/18/18 17/17/17 1/1/1
f 12/12/12 11/11/11 1/1/1
f 17/17/17 16/16/16 1/1/1
f 13/13/13 12/12/12 1/1/1
f 16/16/16 15/15/15 1/1/1
f 14/14/14 13/13/13 1/1/1
f 15/15/15 14/14/14 1/1/1
f 28/28/28 27/27/27 26/26/26
f 74/74/74 27/27/27 28/28/28
f 27/27/27 29/29/29 26/26/26
f 74/74/74 75/75/75 27/27/27
f 26/26/26 29/29/29 30/30/30
f 72/72/72 75/75/75 74/74/74
f 26/26/26 30/30/30 31/31/31
f 73/73/73 72/72/72 74/74/74
f 31/31/31 30/30/30 32/32/32
f 70/70/70 72/72/72 73/73/73
f 30/30/30 33/33/33 32/32/32
f 70/70/70 71/71/71 72/72/72
f 32/32/32 33/33/33 34/34/34
f 68/68/68 71/71/71 70/70/70
f 32/32/32 34/34/34 35/35/35
f 69/69/69 68/68/68 70/70/70
f 35/35/35 34/34/34 36/36/36
f 66/66/66 68/68/68 69/69/69
f 34/34/34 37/37/37 36/36/36
f 66/66/66 67/67/67 68/68/68
f 36/36/36 37/37/37 38/38/38
f 36/36/36 38/38/38 39/39/39
f 64/64/64 67/67/67 66/66/66
f 65/65/65 64/64/64 66/66/66
f 62/62/62 64/64/64 65/65/65
f 62/62/62 63/63/63 64/64/64
f 60/60/60 63/63/63 62/62/62
f 61/61/61 60/60/60 62/62/62
f 58/58/58 60/60/60 61/61/61
f 58/58/58 59/59/59 60/60/60
f 56/56/56 59/59/59 58/58/58
f 57/57/57 56/56/56 58/58/58
f 54/54/54 56/56/56 57/57/57
f 54/54/54 55/55/55 56/56/56
f 52/52/52 55/55/55 54/54/54
f 53/53/53 52/52/52 54/54/54
f 50/50/50 52/52/52 53/53/53
f 50/50/50 51/51/51 52/52/52
f 48/48/48 51/51/51 50/50/50
f 49/49/49 48/48/48 50/50/50
f 46/46/46 48/48/48 49/49/49
f 46/46/46 47/47/47 48/48/48
f 44/44/44 47/47/47 46/46/46
f 45/45/45 44/44/44 46/46/46
f 40/40/40 44/44/44 45/45/45
f 40/40/40 43/43/43 44/44/44
f 41/41/41 43/43/43 40/40/40
f 42/42/42 41/41/41 40/40/40
f 78/78/78 77/77/77 76/76/76
f 76/76/76 79/79/79 78/78/78
f 123/123/123 76/76/76 77/77/77
f 80/80/80 78/78/78 79/79/79
f 77/77/77 122/122/122 123/123/123
f 79/79/79 81/81/81 80/80/80
f 121/121/121 123/123/123 122/122/122
f 82/82/82 80/80/80 81/81/81
f 122/122/122 120/120/120 121/121/121
f 81/81/81 83/83/83 82/82/82
f 119/119/119 121/121/121 120/120/120
f 84/84/84 82/82/82 83/83/83
f 120/120/120 118/118/118 119/119/119
f 83/83/83 85/85/85 84/84/84
f 117/117/117 119/119/119 118/118/118
f 86/86/86 84/84/84 85/85/85
f 118/118/118 116/116/116 117/117/117
f 85/85/85 87/87/87 86/86/86
f 115/115/115 117/117/117 116/116/116
f 88/88/88 86/86/86 87/87/87
f 116/116/116 114/114/114 115/115/115
f 87/87/87 89/89/89 88/88/88
f 113/113/113 115/115/115 114/114/114
f 90/90/90 88/88/88 89/89/89
f 114/114/114 112/112/112 113/113/113
f 89/89/89 91/91/91 90/90/90
f 111/111/111 113/113/113 112/112/112
f 92/92/92 90/90/90 91/91/91
f 112/112/112 110/110/110 111/111/111
f 91/91/91 93/93/93 92/92/92
f 109/109/109 111/111/111 110/110/110
f 94/94/94 92/92/92 93/93/93
f 110/110/110 108/108/108 109/109/109
f 93/93/93 95/95/95 94/94/94
f 107/107/107 109/109/109 108/108/108
f 96/96/96 94/94/94 95/95/95
f 108/108/108 106/106/106 107/107/107
f 95/95/95 97/97/97 96/96/96
f 105/105/105 107/107/107 106/106/106
f 98/98/98 96/96/96 97/97/97
f 106/106/106 104/104/104 105/105/105
f 97/97/97 99/99/99 98/98/98
f 103/103/103 105/105/105 104/104/104
f 100/100/100 98/98/98 99/99/99
f 104/104/104 102/102/102 103/103/103
f 99/99/99 101/101/101 100/100/100
f 101/101/101 103/103/103 102/102/102
f 102/102/102 100/100/100 101/101/101
f 126/126/126 125/125/125 124/124/124
f 124/124/124 127/127/127 126/126/126
f 128/128/128 124/124/124 125/125/125
f 171/171/171 126/126/126 127/127/127
f 125/125/125 129/129/129 128/128/128
f 127/127/127 170/170/170 171/171/171
f 130/130/130 128/128/128 129/129/129
f 169/169/169 171/171/171 170/170/170
f 129/129/129 131/131/131 130/130/130
f 170/170/170 168/168/168 169/169/169
f 132/132/132 130/130/130 131/131/131
f 167/167/167 169/169/169 168/168/168
f 131/131/131 133/133/133 132/132/132
f 168/168/168 166/166/166 167/167/167
f 134/134/134 132/132/132 133/133/133
f 165/165/165 167/167/167 166/166/166
f 133/133/133 135/135/135 134/134/134
f 166/166/166 164/164/164 165/165/165
f 136/136/136 134/134/134 135/135/135
f 163/163/163 165/165/165 164/164/164
f 135/135/135 137/137/137 136/136/136
f 164/164/164 162/162/162 163/163/163
f 138/138/138 136/136/136 137/137/137
f 161/161/161 163/163/163 162/162/162
f 137/137/137 139/139/139 138/138/138
f 162/162/162 160/160/160 161/161/161
f 140/140/140 138/138/138 139/139/139
f 159/159/159 161/161/161 160/160/160
f 139/139/139 141/141/141 140/140/140
f 160/160/160 158/158/158 159/159/159
f 142/142/142 140/140/140 141/141/141
f 157/157/157 159/159/159 158/158/158
f 141/141/141 143/143/143 142/142/142
f 158/158/158 156/156/156 157/157/157
f 144/144/144 142/142/142 143/143/143
f 155/155/155 157/157/157 156/156/156
f 143/143/143 145/145/145 144/144/144
f 156/156/156 154/154/154 155/155/155
f 146/146/146 144/144/144 145/145/145
f 153/153/153 155/155/155 154/154/154
f 145/145/145 147/147/147 146/146/146
f 154/154/154 152/152/152 153/153/153
f 148/148/148 146/146/146 147/147/147
f 151/151/151 153/153/153 152/152/152
f 147/147/147 149/149/149 148/148/148
f 152/152/152 150/150/150 151/151/151
f 150/150/150 148/148/148 149/149/149
f 149/149/149 151/151/151 150/150/150
f 174/174/174 173/173/173 172/172/172
f 173/173/173 196/196/196 172/172/172
f 175/175/175 174/174/174 172/172/172
f 196/196/196 195/195/195 172/172/172
f 176/176/176 175/175/175 172/172/172
f 195/195/195 194/194/194 172/172/172
f 177/177/177 176/176/176 172/172/172
f 194/194/194 193/193/193 172/172/172
f 178/178/178 177/177/177 172/172/172
f 193/193/193 192/192/192 172/172/172
f 179/179/179 178/178/178 172/172/172
f 192/192/192 191/191/191 172/172/172
f 180/180/180 179/179/179 172/172/172
f 191/191/191 190/190/190 172/172/172
f 181/181/181 180/180/180 172/172/172
f 190/190/190 189/189/189 172/172/172
f 182/182/182 181/181/181 172/172/172
f 189/189/189 188/188/188 172/172/172
f 183/183/183 182/182/182 172/172/172
f 188/188/188 187/187/187 172/172/172
f 184/184/184 183/183/183 172/172/172
f 187/187/187 186/186/186 172/172/172
f 185/185/185 184/184/184 172/172/172
f 186/186/186 185/185/185 172/172/172
f 199/199/199 198/198/198 197/197/197
f 221/221/221 199/199/199 197/197/197
f 198/198/198 200/200/200 197/197/197
f 220/220/220 221/221/221 197/197/197
f 200/200/200 201/201/201 197/197/197
f 219/219/219 220/220/220 197/197/197
f 201/201/201 202/202/202 197/197/197
f 218/218/218 219/219/219 197/197/197
f 202/202/202 203/203/203 197/197/197
f 217/217/217 218/218/218 197/197/197
f 203/203/203 204/204/204 197/197/197
f 216/216/216 217/217/217 197/197/197
f 204/204/204 205/205/205 197/197/197
f 215/215/215 216/216/216 197/197/197
f 205/205/205 206/206/206 197/197/197
f 214/214/214 215/215/215 197/197/197
f 206/206/206 207/207/207 197/197/197
f 213/213/213 214/214/214 197/197/197
f 207/207/207 208/208/208 197/197/197
f 212/212/212 213/213/213 197/197/197
f 208/208/208 209/209/209 197/197/197
f 211/211/211 212/212/212 197/197/197
f 209/209/209 210/210/210 197/197/197
f 210/210/210 211/211/211 197/197/197
f 224/224/224 223/223/223 222/222/222
f 225/225/225 223/223/223 224/224/224
f 226/226/226 223/223/223 225/225/225
f 227/227/227 223/223/223 226/226/226
f 228/228/228 223/223/223 227/227/227
f 229/229/229 223/223/223 228/228/228
f 230/230/230 223/223/223 229/229/229
f 231/231/231 223/223/223 230/230/230
f 233/233/233 223/223/223 231/231/231
f 233/233/233 232/232/232 223/223/223
f 223/223/223 258/258/258 222/222/222
f 222/222/222 258/258/258 259/259/259
f 259/259/259 258/258/258 260/260/260
f 260/260/260 258/258/258 261/261/261
f 261/261/261 258/258/258 262/262/262
f 262/262/262 258/258/258 263/263/263
f 263/263/263 258/258/258 264/264/264
f 264/264/264 258/258/258 265/265/265
f 265/265/265 258/258/258 266/266/266
f 266/266/266 258/258/258 267/267/267
f 258/258/258 268/268/268 267/267/267
f 293/293/293 292/292/292 291/291/291
f 291/291/291 292/292/292 294/294/294
f 294/294/294 292/292/292 295/295/295
f 295/295/295 292/292/292 296/296/296
f 296/296/296 292/292/292 297/297/297
f 297/297/297 292/292/292 298/298/298
f 298/298/298 292/292/292 299/299/299
f 299/299/299 292/292/292 300/300/300
f 300/300/300 292/292/292 301/301/301
f 292/292/292 302/302/302 301/301/301
f 293/293/293 303/303/303 292/292/292
f 304/304/304 303/303/303 293/293/293
f 305/305/305 303/303/303 304/304/304
f 306/306/306 303/303/303 305/305/305
f 307/307/307 303/303/303 306/306/306
f 308/308/308 303/303/303 307/307/307
f 309/309/309 303/303/303 308/308/308
f 310/310/310 303/303/303 309/309/309
f 311/311/311 303/303/303 310/310/310
f 313/313/313 303/303/303 311/311/311
f 313/313/313 312/312/312 303/303/303
