# VPXTOOL table OBJ file
# VPXTOOL OBJ file
# numVerts: 676 numFaces: 1006
o mug1
v 99.5257 9.472904 -25.283928
v 116.52247 9.472904 -26.006485
v 115.78509 12.161186 -30.063917
v 100.45947 12.161186 -30.754978
v 115.25521 9.472904 -34.766098
v 101.193146 9.472904 -36.02779
v 114.99027 0 -37.048634
v 101.58036 -0 -38.293655
v 101.58036 -0 -38.293655
v 114.99027 0 -37.048634
v 115.25521 -9.472904 -34.766098
v 101.193146 -9.472904 -36.02779
v 115.78509 -12.161186 -30.063917
v 100.45947 -12.161186 -30.754978
v 116.52247 -9.472904 -26.006485
v 99.5257 -9.472904 -25.283928
v 116.78741 0 -23.722094
v 99.13849 0 -23.016212
v 131.49606 12.926354 -38.547474
v 134.29922 10.069477 -35.06438
v 135.66096 0 -33.2654
v 134.29922 -10.069477 -35.06438
v 131.49606 -12.926354 -38.547474
v 128.43724 -8.905975 -42.706806
v 127.0755 0 -44.50579
v 127.0755 0 -44.50579
v 128.43724 10.069477 -42.706806
v 145.96387 13.748958 -72.25568
v 141.00046 13.748958 -54.391846
v 144.96156 10.710514 -52.724407
v 150.29921 10.710514 -71.49051
v 147.05327 0 -51.811024
v 152.55952 0 -71.10514
v 144.96156 -10.710514 -52.724407
v 150.29921 -10.710514 -71.49051
v 141.00046 -13.748958 -54.391846
v 145.96387 -13.748958 -72.25568
v 145.96387 -13.748958 -72.25568
v 141.00046 -13.748958 -54.391846
v 137.36176 -10.710514 -56.077816
v 141.70078 -10.710514 -72.73923
v 135.27003 0 -56.9912
v 139.43863 -0 -73.124596
v 139.43863 -0 -73.124596
v 135.27003 0 -56.9912
v 137.36176 10.710514 -56.077816
v 141.70078 10.710514 -72.73923
v 145.96387 13.748958 -72.25568
v 90.25845 -0 -26.108383
v 90.76239 -9.472904 -28.352015
v 90.76239 9.472904 -28.352015
v 87.85919 -0 -62.076885
v 85.65632 -0 -64.50579
v 85.40806 9.472904 -62.262157
v 87.11256 7.2329783 -60.440945
v 87.11256 -7.2329783 -60.440945
v 85.40806 -9.472904 -62.262157
v 83.13108 -0 -65.52293
v 82.075035 10.362205 -63.279297
v 82.075035 -10.362205 -63.279297
v 90.25845 -0 -26.108383
v 86.71422 -0 -25.561834
v 86.434456 -9.984252 -28.229736
v 90.76239 -9.472904 -28.352015
v 90.76239 9.472904 -28.352015
v 86.434456 9.984252 -28.229736
v 86.71422 -0 -25.561834
v 90.25845 -0 -26.108383
v 83.29968 -0 -21.950903
v 82.26587 -11.125521 -26.480778
v 82.26587 11.125521 -26.480778
v 83.29968 -0 -21.950903
v 91.158875 12.598426 -33.343216
v 92.915245 9.472904 -41.03196
v 91.158875 -12.598426 -33.343216
v 92.915245 -9.472904 -41.03196
v 94.14729 -0 -42.78833
v 94.14729 -0 -42.78833
v 94.14729 -0 -42.78833
v 91.87772 -0 -49.3321
v 90.58453 9.472904 -48.301994
v 92.915245 9.472904 -41.03196
v 90.58453 -9.472904 -48.301994
v 92.915245 -9.472904 -41.03196
v 90.23622 -0 -56.164894
v 89.124596 8.353868 -55.290413
v 89.124596 -8.353868 -55.290413
v 81.621124 -15.079204 -33.554424
v 86.24363 -13.567392 -33.645206
v 91.158875 -12.598426 -33.343216
v 86.156555 -13.837888 -40.694767
v 81.64335 -16.313108 -40.62992
v 85.73969 -12.883742 -54.63826
v 81.68782 -14.302918 -54.773506
v 86.06948 -14.1195 -47.195927
v 81.66558 -16.092634 -47.188515
v 81.621124 15.099584 -33.554424
v 86.24363 13.556276 -33.645206
v 91.158875 12.598426 -33.343216
v 81.68782 14.302918 -54.773506
v 85.73969 12.883742 -54.63826
v 86.156555 14.195461 -40.694767
v 86.06948 14.1195 -47.195927
v 81.66558 16.092634 -47.188515
v 81.64335 16.313108 -40.62992
v 99.5257 9.472904 -167.93517
v 100.45947 12.159333 -162.46411
v 115.78509 12.159333 -163.15332
v 116.52247 9.472904 -167.2126
v 101.193146 9.472904 -157.1913
v 115.25521 9.472904 -158.45299
v 101.58036 -0 -154.92543
v 114.99027 -0 -156.1686
v 101.58036 -0 -154.92543
v 101.193146 -9.472904 -157.1913
v 115.25521 -9.472904 -158.45299
v 114.99027 -0 -156.1686
v 100.45947 -12.161186 -162.46411
v 115.78509 -12.161186 -163.15332
v 99.5257 -9.472904 -167.93517
v 116.52247 -9.472904 -167.2126
v 99.13849 -0 -170.20287
v 116.78741 -0 -169.497
v 131.49606 12.926354 -154.67162
v 134.29922 10.069477 -158.1547
v 135.66096 -0 -159.95369
v 134.29922 -10.069477 -158.1547
v 131.49606 -12.926354 -154.67162
v 128.43724 -8.905975 -150.51227
v 127.0755 -0 -148.7133
v 127.0755 -0 -148.7133
v 128.43724 10.069477 -150.51227
v 145.96387 13.748958 -120.9634
v 150.29921 10.710514 -121.72858
v 144.96156 10.710514 -140.49467
v 141.00046 13.748958 -138.82724
v 152.55952 -0 -122.113945
v 147.05327 -0 -141.40807
v 150.29921 -10.710514 -121.72858
v 144.96156 -10.710514 -140.49467
v 145.96387 -13.748958 -120.9634
v 141.00046 -13.748958 -138.82724
v 145.96387 -13.748958 -120.9634
v 141.70078 -10.710514 -120.478
v 137.36176 -10.710514 -137.14128
v 141.00046 -13.748958 -138.82724
v 139.43863 -0 -120.09448
v 135.27003 -0 -136.22787
v 139.43863 -0 -120.09448
v 141.70078 10.710514 -120.478
v 137.36176 10.710514 -137.14128
v 135.27003 -0 -136.22787
v 145.96387 13.748958 -120.9634
v 90.76239 -9.472904 -164.86707
v 90.25845 -0 -167.1107
v 90.76239 9.472904 -164.86707
v 87.85919 -0 -131.1422
v 87.11256 7.2329783 -132.77814
v 85.40806 9.472904 -130.95508
v 85.65632 -0 -128.71329
v 87.11256 -7.2329783 -132.77814
v 85.40806 -9.472904 -130.95508
v 82.0843 9.472904 -129.93979
v 83.1422 -0 -127.69616
v 82.0843 -9.472904 -129.93979
v 90.25845 -0 -167.1107
v 90.76239 -9.472904 -164.86707
v 86.434456 -9.472904 -164.98935
v 86.71422 -0 -167.65726
v 90.76239 9.472904 -164.86707
v 90.25845 -0 -167.1107
v 86.71422 -0 -167.65726
v 86.434456 9.472904 -164.98935
v 81.989815 -11.125521 -166.73831
v 83.0755 -0 -171.26817
v 83.0755 -0 -171.26817
v 81.989815 11.125521 -166.73831
v 91.158875 12.598426 -159.87587
v 92.915245 9.472904 -152.18713
v 91.158875 -12.598426 -159.87587
v 92.915245 -9.472904 -152.18713
v 94.14729 -0 -150.4289
v 94.14729 -0 -150.4289
v 94.14729 -0 -150.4289
v 92.915245 9.472904 -152.18713
v 90.58453 9.472904 -144.91708
v 91.87772 -0 -143.88698
v 90.58453 -9.472904 -144.91708
v 92.915245 -9.472904 -152.18713
v 90.23622 -0 -137.05418
v 89.124596 8.353868 -137.92682
v 89.124596 -8.353868 -137.92682
v 86.24363 -13.556276 -159.57202
v 81.621124 -14.856879 -159.66467
v 91.158875 -12.598426 -159.87587
v 86.156555 -13.837888 -152.5243
v 81.64335 -16.313108 -152.58916
v 81.68782 -13.700788 -138.44557
v 85.73969 -12.883742 -138.58083
v 86.06948 -14.1195 -146.02315
v 81.66558 -15.6794815 -146.03056
v 81.621124 14.856879 -159.66467
v 86.24363 13.556276 -159.57202
v 91.158875 12.598426 -159.87587
v 81.68782 13.700788 -138.44557
v 85.73969 12.883742 -138.58083
v 86.156555 13.837888 -152.5243
v 81.64335 16.313108 -152.58916
v 81.66558 15.6794815 -146.03056
v 86.06948 14.1195 -146.02315
v 153.15239 10.710514 -96.60954
v 155.42566 -0 -96.60954
v 153.15239 -10.710514 -96.60954
v 148.79295 -13.748958 -96.60954
v 148.79295 -13.748958 -96.60954
v 144.5169 -10.710514 -96.60954
v 142.24362 -0 -96.60954
v 142.24362 -0 -96.60954
v 144.5169 10.710514 -96.60954
v 148.79295 13.748958 -96.60954
v 148.79295 13.748958 -96.60954
v -66.92543 35.125523 -193.9194
v -73.385826 18.088003 -193.9194
v -78.72904 19.405281 -193.9194
v -71.7962 37.68226 -193.9194
v -84.53914 -0 -190.49004
v -84.53914 -0 -1.741547
v -82.08244 20.231588 -1.741547
v -82.08244 20.231588 -190.49004
v -42.936543 62.202873 -193.9194
v -56.57434 50.121353 -193.9194
v -60.692913 53.76934 -193.9194
v -46.06207 66.730896 -193.9194
v -26.801296 70.67161 -193.9194
v -28.7522 75.81473 -193.9194
v -9.109773 75.03103 -193.9194
v -9.773043 80.49282 -193.9194
v 9.109773 75.03103 -193.9194
v 9.773043 80.49282 -193.9194
v 26.801296 70.67161 -193.9194
v 28.7522 75.81473 -193.9194
v 42.936543 62.202873 -193.9194
v 46.06207 66.730896 -193.9194
v 56.57434 50.121353 -193.9194
v 60.692913 53.76934 -193.9194
v 66.92543 35.125523 -193.9194
v 71.7962 37.68226 -193.9194
v 73.385826 18.088003 -193.9194
v 78.72904 19.405281 -193.9194
v 75.583145 -0 -193.9194
v 81.08384 -0 -193.9194
v 73.385826 -18.088003 -193.9194
v 75.583145 -0 -193.9194
v 81.08384 -0 -193.9194
v 78.72904 -19.405281 -193.9194
v 56.57434 -50.121353 -193.9194
v 66.92543 -35.125523 -193.9194
v 71.7962 -37.68226 -193.9194
v 60.692913 -53.76934 -193.9194
v 42.936543 -62.202873 -193.9194
v 46.06207 -66.730896 -193.9194
v 26.801296 -70.67161 -193.9194
v 28.7522 -75.81473 -193.9194
v 9.109773 -75.03103 -193.9194
v 9.773043 -80.49282 -193.9194
v -9.109773 -75.03103 -193.9194
v -9.773043 -80.49282 -193.9194
v -26.801296 -70.67161 -193.9194
v -28.7522 -75.81473 -193.9194
v -42.936543 -62.202873 -193.9194
v -46.06207 -66.730896 -193.9194
v -56.57434 -50.121353 -193.9194
v -60.692913 -53.76934 -193.9194
v -66.92543 -35.125523 -193.9194
v -71.7962 -37.68226 -193.9194
v -73.385826 -18.088003 -193.9194
v -78.72904 -19.405281 -193.9194
v -75.583145 -0 -193.9194
v -81.08384 -0 -193.9194
v -68.85596 16.97082 -19.019917
v -70.91617 -0 -19.019917
v -72.10375 -0 -190.49004
v -70.01019 17.256136 -190.49004
v -74.85503 39.28671 -190.49004
v -74.85503 39.28671 -1.741547
v -63.277447 56.059288 -1.741547
v -63.277447 56.059288 -190.49004
v -48.024086 69.57481 -1.741547
v -48.024086 69.57481 -190.49004
v -29.978693 79.04586 -1.741547
v -29.978693 79.04586 -190.49004
v -10.189902 83.92219 -1.741547
v -10.189902 83.92219 -190.49004
v 10.189902 83.92219 -1.741547
v 10.189902 83.92219 -190.49004
v 29.978693 79.04586 -1.741547
v 29.978693 79.04586 -190.49004
v 48.024086 69.57481 -1.741547
v 48.024086 69.57481 -190.49004
v 63.277447 56.059288 -1.741547
v 63.277447 56.059288 -190.49004
v 74.85503 39.28671 -1.741547
v 74.85503 39.28671 -190.49004
v 82.08244 20.231588 -1.741547
v 82.08244 20.231588 -190.49004
v 84.53914 0 -1.741547
v 84.53914 -0 -190.49004
v 84.53914 -0 -190.49004
v 84.53914 0 -1.741547
v 82.08244 -20.231588 -1.741547
v 82.08244 -20.231588 -190.49004
v 74.85503 -39.28671 -1.741547
v 74.85503 -39.28671 -190.49004
v 63.277447 -56.059288 -1.741547
v 63.277447 -56.059288 -190.49004
v 48.024086 -69.57481 -1.741547
v 48.024086 -69.57481 -190.49004
v 29.978693 -79.04586 -1.741547
v 29.978693 -79.04586 -190.49004
v 10.189902 -83.92219 -190.49004
v 10.189902 -83.92219 -1.741547
v -10.189902 -83.92219 -1.741547
v -10.189902 -83.92219 -190.49004
v -29.978693 -79.04586 -1.741547
v -29.978693 -79.04586 -190.49004
v -48.024086 -69.57481 -1.741547
v -48.024086 -69.57481 -190.49004
v -63.277447 -56.059288 -1.741547
v -63.277447 -56.059288 -190.49004
v -74.85503 -39.28671 -1.741547
v -74.85503 -39.28671 -190.49004
v -82.08244 -20.231588 -1.741547
v -82.08244 -20.231588 -190.49004
v 75.60352 0 -0
v 73.408066 -18.093563 0
v 80.39092 -19.81473 0
v 82.79759 0 -0
v -56.591015 50.134323 -0
v -42.947662 62.221397 -0
v -47.03474 68.14081 -0
v -61.974987 54.90505 -0
v -26.81056 70.691986 -0
v -29.359888 77.415474 -0
v 73.31357 38.477074 -0
v 66.943954 35.134785 -0
v 73.408066 18.093563 -0
v 80.39092 19.81473 -0
v -66.943954 35.134785 -0
v -73.31357 38.477074 -0
v -56.591015 -50.134323 0
v -61.974987 -54.90505 0
v -47.03474 -68.14081 0
v -42.947662 -62.221397 0
v -9.113479 -75.05326 0
v -26.81056 -70.691986 0
v -29.359888 -77.415474 0
v -9.980546 -82.19361 0
v 42.947662 62.221397 -0
v 56.591015 50.134323 -0
v 61.974987 54.90505 -0
v 47.03474 68.14081 -0
v 9.113479 -75.05326 0
v 9.980546 -82.19361 0
v 29.359888 77.415474 -0
v 26.81056 70.691986 -0
v 25.157944 66.33812 -3.3978693
v 9.113479 75.05326 -0
v 8.552108 70.430756 -3.3978693
v 40.303844 58.389996 -3.3978693
v 53.106068 47.047707 -3.3978693
v 62.821674 32.97082 -3.3978693
v 68.88744 16.978231 -3.3978693
v 28.685503 31.081055 -12.479852
v 30.573414 15.753591 -13.083836
v 52.022232 16.337193 -10.703103
v 48.09634 32.166744 -10.132469
v 26.31033 45.508106 -11.358962
v 42.527096 46.147293 -9.302455
v 24.891153 58.54377 -8.835572
v 35.412693 53.51737 -8.085225
v 8.631774 60.29273 -8.870774
v 8.920797 45.66188 -12.081519
v 9.589624 30.855024 -13.687819
v 10.165818 15.607225 -14.275127
v -9.113479 75.05326 -0
v -9.980546 82.19361 -0
v -40.303844 58.389996 -3.3978693
v -25.157944 66.33812 -3.3978693
v -68.88744 16.978231 -3.3978693
v -62.821674 32.97082 -3.3978693
v -73.408066 18.093563 -0
v -53.106068 47.047707 -3.3978693
v 9.980546 82.19361 -0
v -8.552108 70.430756 -3.3978693
v -24.881891 58.732742 -8.696619
v -26.339973 45.765633 -11.788791
v -8.889301 45.711903 -12.077814
v -8.613247 60.318665 -8.804076
v -28.696619 31.507181 -13.38768
v -9.496989 30.969893 -13.858268
v -30.475222 16.153774 -13.94905
v -9.96202 15.6813345 -14.354794
v -35.481243 53.311718 -8.285317
v -42.464104 46.47522 -9.404354
v -47.924038 32.737377 -10.162112
v -51.664658 16.905975 -10.42705
v -80.39092 19.81473 -0
v 70.94952 0 -3.3978693
v 31.270031 -0.055581287 -13.104215
v 53.367302 -0.16859658 -11.095879
v 10.401112 0.13710052 -14.421492
v -75.60352 -0 0
v -70.94952 -0 -3.3978693
v -31.082909 0.27049562 -13.956461
v -10.112089 0.25937936 -14.458546
v -52.943027 0.14821677 -10.3492365
v 66.943954 -35.134785 0
v 56.591015 -50.134323 0
v 61.974987 -54.90505 0
v 73.31357 -38.477074 0
v -82.79759 -0 0
v 68.88744 -16.978231 -3.3978693
v -68.88744 -16.978231 -3.3978693
v -73.408066 -18.093563 0
v 30.667902 -15.6665125 -13.532191
v 52.1686 -16.635479 -11.108847
v 10.23622 -15.264475 -14.245484
v -9.854563 -15.153311 -14.189902
v -30.26957 -15.6516905 -13.293191
v -51.50718 -16.570635 -10.125058
v -66.943954 -35.134785 0
v -73.31357 -38.477074 0
v 26.81056 -70.691986 0
v 29.359888 -77.415474 0
v 42.947662 -62.221397 0
v 47.03474 -68.14081 0
v -80.39092 -19.81473 0
v 62.821674 -32.97082 -3.3978693
v 53.106068 -47.047707 -3.3978693
v 40.303844 -58.389996 -3.3978693
v 25.157944 -66.33812 -3.3978693
v 8.552108 -70.430756 -3.3978693
v 26.454842 -45.174618 -11.566465
v 9.03196 -45.15053 -12.168597
v 8.700324 -59.757294 -9.202409
v 25.063456 -58.110237 -8.891153
v -25.157944 -66.33812 -3.3978693
v -40.303844 -58.389996 -3.3978693
v -53.106068 -47.047707 -3.3978693
v -62.821674 -32.97082 -3.3978693
v -8.552108 -70.430756 -3.3978693
v -8.755906 -45.365448 -12.301991
v -26.136175 -45.38953 -11.6424265
v -24.804077 -58.517834 -9.193145
v -8.616952 -59.84993 -9.528485
v 28.798517 -30.930986 -12.898564
v 48.268642 -32.43168 -10.617879
v 9.69523 -30.401112 -13.526632
v -9.352478 -30.586384 -13.648911
v -28.418713 -31.04956 -12.767022
v -47.733208 -32.42427 -9.73599
v 42.779064 -46.299213 -9.94905
v 35.662807 -53.495136 -8.529875
v -42.23807 -46.26401 -9.141269
v -35.314495 -53.367302 -8.477999
v -82.08244 20.231588 -1.741547
v -74.85503 39.28671 -1.741547
v -84.53914 -0 -1.741547
v -63.277447 56.059288 -1.741547
v -48.024086 69.57481 -1.741547
v -29.978693 79.04586 -1.741547
v -10.189902 83.92219 -1.741547
v 10.189902 83.92219 -1.741547
v 29.978693 79.04586 -1.741547
v 48.024086 69.57481 -1.741547
v 63.277447 56.059288 -1.741547
v 74.85503 39.28671 -1.741547
v 82.08244 20.231588 -1.741547
v 84.53914 0 -1.741547
v 82.08244 -20.231588 -1.741547
v 74.85503 -39.28671 -1.741547
v 63.277447 -56.059288 -1.741547
v 48.024086 -69.57481 -1.741547
v 29.978693 -79.04586 -1.741547
v 10.189902 -83.92219 -1.741547
v -10.189902 -83.92219 -1.741547
v -29.978693 -79.04586 -1.741547
v -48.024086 -69.57481 -1.741547
v -63.277447 -56.059288 -1.741547
v -74.85503 -39.28671 -1.741547
v -82.08244 -20.231588 -1.741547
v 0 -0 -17.70264
v -53.08198 47.025475 -19.019917
v -40.285316 58.3622 -19.019917
v -25.146828 66.30848 -19.019917
v -8.548403 70.399254 -19.019917
v 8.548403 70.399254 -19.019917
v 25.146828 66.30848 -19.019917
v 40.285316 58.3622 -19.019917
v 53.08198 47.025475 -19.019917
v 62.79203 32.955997 -19.019917
v 70.91617 0 -19.019917
v 68.85596 -16.97082 -19.019917
v 62.79203 -32.955997 -19.019917
v 53.08198 -47.025475 -19.019917
v 40.285316 -58.3622 -19.019917
v 25.146828 -66.30848 -19.019917
v 8.548403 -70.399254 -19.019917
v -8.548403 -70.399254 -19.019917
v -25.146828 -66.30848 -19.019917
v -40.285316 -58.3622 -19.019917
v -53.08198 -47.025475 -19.019917
v -62.79203 -32.955997 -19.019917
v -68.85596 -16.97082 -19.019917
v 68.85596 16.97082 -19.019917
v -70.91617 -0 -19.019917
v -68.85596 16.97082 -19.019917
v -62.793888 32.955997 -19.019917
v 62.79203 32.955997 -19.019917
v 63.846222 33.508106 -190.49004
v 70.01019 17.256136 -190.49004
v 68.85596 16.97082 -19.019917
v 72.105606 -0 -190.49004
v 70.91617 0 -19.019917
v 8.548403 70.399254 -19.019917
v 8.691061 71.57944 -190.49004
v 25.569244 67.41825 -190.49004
v 25.146828 66.30848 -19.019917
v 40.9597 59.340435 -190.49004
v 40.285316 58.3622 -19.019917
v 53.971283 47.814728 -190.49004
v 53.08198 47.025475 -19.019917
v -53.08198 47.025475 -19.019917
v -53.971283 47.814728 -190.49004
v -40.9597 59.340435 -190.49004
v -40.285316 58.3622 -19.019917
v -25.569244 67.41825 -190.49004
v -25.146828 66.30848 -19.019917
v -8.691061 71.57944 -190.49004
v -8.548403 70.399254 -19.019917
v -68.85596 -16.97082 -19.019917
v -70.01019 -17.256136 -190.49004
v -62.793888 32.955997 -19.019917
v -63.846222 33.508106 -190.49004
v -25.146828 -66.30848 -19.019917
v -25.569244 -67.41825 -190.49004
v -40.9597 -59.340435 -190.49004
v -40.285316 -58.3622 -19.019917
v -53.971283 -47.814728 -190.49004
v -53.08198 -47.025475 -19.019917
v -63.846222 -33.508106 -190.49004
v -62.79203 -32.955997 -19.019917
v 62.79203 -32.955997 -19.019917
v 63.846222 -33.508106 -190.49004
v 53.971283 -47.814728 -190.49004
v 53.08198 -47.025475 -19.019917
v 40.9597 -59.340435 -190.49004
v 40.285316 -58.3622 -19.019917
v 25.569244 -67.41825 -190.49004
v 25.146828 -66.30848 -19.019917
v 8.691061 -71.57944 -190.49004
v 8.548403 -70.399254 -19.019917
v -8.691061 -71.57944 -190.49004
v -8.548403 -70.399254 -19.019917
v 70.91617 0 -19.019917
v 72.105606 -0 -190.49004
v 70.01019 -17.256136 -190.49004
v 68.85596 -16.97082 -19.019917
v -83.52756 -0 -192.91524
v -81.10051 19.988884 -192.91524
v -84.53914 -0 -190.49004
v -82.08244 20.231588 -190.49004
v -73.96017 38.816116 -192.91524
v -74.85503 39.28671 -190.49004
v -62.521538 55.388607 -192.91524
v -63.277447 56.059288 -190.49004
v -47.449745 68.74109 -192.91524
v -48.024086 69.57481 -190.49004
v -29.619267 78.09912 -192.91524
v -29.978693 79.04586 -190.49004
v -10.067624 82.91802 -192.91524
v -10.189902 83.92219 -190.49004
v 10.067624 82.91802 -192.91524
v 10.189902 83.92219 -190.49004
v 29.619267 78.09912 -192.91524
v 29.978693 79.04586 -190.49004
v 47.449745 68.74109 -192.91524
v 48.024086 69.57481 -190.49004
v 62.521538 55.388607 -192.91524
v 63.277447 56.059288 -190.49004
v 73.96017 38.816116 -192.91524
v 74.85503 39.28671 -190.49004
v 81.10051 19.988884 -192.91524
v 82.08244 20.231588 -190.49004
v 83.52756 -0 -192.91524
v 84.53914 -0 -190.49004
v 83.52756 -0 -192.91524
v 81.10051 -19.988884 -192.91524
v 84.53914 -0 -190.49004
v 82.08244 -20.231588 -190.49004
v 73.96017 -38.816116 -192.91524
v 74.85503 -39.28671 -190.49004
v 62.521538 -55.388607 -192.91524
v 63.277447 -56.059288 -190.49004
v 47.449745 -68.74109 -192.91524
v 48.024086 -69.57481 -190.49004
v 29.619267 -78.09912 -192.91524
v 29.978693 -79.04586 -190.49004
v 10.067624 -82.91802 -192.91524
v 10.189902 -83.92219 -190.49004
v -10.067624 -82.91802 -192.91524
v -10.189902 -83.92219 -190.49004
v -29.619267 -78.09912 -192.91524
v -29.978693 -79.04586 -190.49004
v -47.44789 -68.74109 -192.91524
v -48.024086 -69.57481 -190.49004
v -62.521538 -55.388607 -192.91524
v -63.277447 -56.059288 -190.49004
v -73.96017 -38.816116 -192.91524
v -74.85503 -39.28671 -190.49004
v -81.10051 -19.988884 -192.91524
v -82.08244 -20.231588 -190.49004
v -64.755905 33.986103 -192.91524
v -71.008804 17.502548 -192.91524
v -63.846222 33.508106 -190.49004
v -70.01019 17.256136 -190.49004
v -54.740158 48.496525 -192.91524
v -53.971283 47.814728 -190.49004
v -41.54516 60.187122 -192.91524
v -40.9597 59.340435 -190.49004
v -25.934229 68.38166 -192.91524
v -25.569244 67.41825 -190.49004
v -8.815192 72.60028 -192.91524
v -8.691061 71.57944 -190.49004
v 8.815192 72.60028 -192.91524
v 8.691061 71.57944 -190.49004
v 25.934229 68.38166 -192.91524
v 25.569244 67.41825 -190.49004
v 41.54516 60.187122 -192.91524
v 40.9597 59.340435 -190.49004
v 54.740158 48.496525 -192.91524
v 53.971283 47.814728 -190.49004
v 64.755905 33.986103 -192.91524
v 63.846222 33.508106 -190.49004
v 71.008804 17.502548 -192.91524
v 70.01019 17.256136 -190.49004
v 73.13386 -0 -192.91524
v 72.105606 -0 -190.49004
v 71.008804 -17.502548 -192.91524
v 73.13386 -0 -192.91524
v 70.01019 -17.256136 -190.49004
v 72.105606 -0 -190.49004
v 64.755905 -33.986103 -192.91524
v 63.846222 -33.508106 -190.49004
v 54.740158 -48.496525 -192.91524
v 53.971283 -47.814728 -190.49004
v 41.54516 -60.187122 -192.91524
v 40.9597 -59.340435 -190.49004
v 25.934229 -68.38166 -192.91524
v 25.569244 -67.41825 -190.49004
v 8.815192 -72.60028 -192.91524
v 8.691061 -71.57944 -190.49004
v -8.815192 -72.60028 -192.91524
v -8.691061 -71.57944 -190.49004
v -25.934229 -68.38166 -192.91524
v -25.569244 -67.41825 -190.49004
v -41.54516 -60.187122 -192.91524
v -40.9597 -59.340435 -190.49004
v -54.740158 -48.496525 -192.91524
v -53.971283 -47.814728 -190.49004
v -64.755905 -33.986103 -192.91524
v -63.846222 -33.508106 -190.49004
v -71.008804 -17.502548 -192.91524
v -70.01019 -17.256136 -190.49004
v -73.13386 -0 -192.91524
v -72.10375 -0 -190.49004
vt 0.828309 0.360242
vt 0.828309 0.387281
vt 0.818915 0.387281
vt 0.818915 0.360242
vt 0.808693 0.387281
vt 0.808693 0.360242
vt 0.791021 0.387281
vt 0.791021 0.360242
vt 0.900829 0.360242
vt 0.900829 0.387281
vt 0.883457 0.387281
vt 0.883457 0.360242
vt 0.873065 0.387281
vt 0.873065 0.360242
vt 0.863671 0.387281
vt 0.863671 0.360242
vt 0.84599 0.387281
vt 0.84599 0.360242
vt 0.818915 0.41727
vt 0.828309 0.41727
vt 0.84599 0.41727
vt 0.863671 0.41727
vt 0.873065 0.41727
vt 0.883457 0.41727
vt 0.900829 0.41727
vt 0.791021 0.41727
vt 0.808693 0.41727
vt 0.818915 0.4798
vt 0.818915 0.44842398
vt 0.828309 0.44842398
vt 0.828309 0.4798
vt 0.84599 0.44842398
vt 0.84599 0.4798
vt 0.863671 0.44842398
vt 0.863671 0.4798
vt 0.873065 0.44842398
vt 0.873065 0.4798
vt 0.873065 0.4798
vt 0.873065 0.44842398
vt 0.883457 0.44842398
vt 0.883457 0.4798
vt 0.900829 0.44842398
vt 0.900829 0.4798
vt 0.791021 0.4798
vt 0.791021 0.44842398
vt 0.808693 0.44842398
vt 0.808693 0.4798
vt 0.818915 0.4798
vt 0.84599 0.34402704
vt 0.863671 0.34402704
vt 0.828309 0.34402704
vt 0.679945 0.698929
vt 0.675008 0.69893003
vt 0.677676 0.684534
vt 0.681391 0.687966
vt 0.681396 0.70989197
vt 0.677683 0.71332598
vt 0.670369 0.69893098
vt 0.67272 0.681517
vt 0.672728 0.71634603
vt 0.753632 0.73046702
vt 0.753685 0.73694903
vt 0.734475 0.73705798
vt 0.736064 0.729092
vt 0.735977 0.66865999
vt 0.734416 0.66067803
vt 0.753652 0.660855
vt 0.753575 0.667345
vt 0.755515 0.74579102
vt 0.733612 0.74553502
vt 0.73358 0.65218502
vt 0.755515 0.65200597
vt 0.818915 0.34402704
vt 0.808693 0.34402704
vt 0.873065 0.34402704
vt 0.883457 0.34402704
vt 0.791021 0.34402704
vt 0.900829 0.34402704
vt 0.713162 0.69891202
vt 0.701052 0.69892102
vt 0.701292 0.682504
vt 0.714608 0.681538
vt 0.701312 0.715351
vt 0.714638 0.716282
vt 0.689539 0.69892597
vt 0.689788 0.68571597
vt 0.689796 0.712138
vt 0.719298 0.742746
vt 0.722524 0.734505
vt 0.726031 0.72625703
vt 0.710373 0.73016202
vt 0.707038 0.738819
vt 0.688003 0.721107
vt 0.684187 0.72754002
vt 0.699404 0.726542
vt 0.696241 0.734347
vt 0.719217 0.654934
vt 0.722464 0.66319197
vt 0.72592 0.67145997
vt 0.684171 0.670321
vt 0.687992 0.676746
vt 0.710241 0.667347
vt 0.699417 0.671295
vt 0.696212 0.663491
vt 0.707004 0.658988
vt 0.828309 0.683644
vt 0.818915 0.683644
vt 0.818915 0.656605
vt 0.828309 0.656605
vt 0.808693 0.683644
vt 0.808693 0.656605
vt 0.791021 0.683644
vt 0.791021 0.656605
vt 0.900829 0.683644
vt 0.883457 0.683644
vt 0.883457 0.656605
vt 0.900829 0.656605
vt 0.873065 0.683644
vt 0.873065 0.656605
vt 0.863671 0.683644
vt 0.863671 0.656605
vt 0.84599 0.683644
vt 0.84599 0.656605
vt 0.818915 0.626616
vt 0.828309 0.626616
vt 0.84599 0.626616
vt 0.863671 0.626616
vt 0.873065 0.626616
vt 0.883457 0.626616
vt 0.900829 0.626616
vt 0.791021 0.626616
vt 0.808693 0.626616
vt 0.818915 0.56430602
vt 0.828309 0.56430602
vt 0.828309 0.59568202
vt 0.818915 0.59568202
vt 0.84599 0.56430602
vt 0.84599 0.59568202
vt 0.863671 0.56430602
vt 0.863671 0.59568202
vt 0.873065 0.56430602
vt 0.873065 0.59568202
vt 0.873065 0.56430602
vt 0.883457 0.56430602
vt 0.883457 0.59568202
vt 0.873065 0.59568202
vt 0.900829 0.56430602
vt 0.900829 0.59568202
vt 0.791021 0.56430602
vt 0.808693 0.56430602
vt 0.808693 0.59568202
vt 0.791021 0.59568202
vt 0.818915 0.56430602
vt 0.863671 0.699857
vt 0.84599 0.699857
vt 0.828309 0.699857
vt 0.583368 0.70060003
vt 0.584899 0.711316
vt 0.58135 0.71460402
vt 0.57844 0.70060003
vt 0.584899 0.689883
vt 0.58135 0.68659598
vt 0.576014 0.716484
vt 0.574198 0.70060003
vt 0.576014 0.684716
vt 0.656696 0.667207
vt 0.639244 0.66972798
vt 0.638035 0.66163403
vt 0.656439 0.660896
vt 0.639244 0.73147
vt 0.656695 0.733989
vt 0.656439 0.7403
vt 0.638035 0.739563
vt 0.636057 0.652503
vt 0.65779 0.65200597
vt 0.65779 0.74918902
vt 0.636059 0.748693
vt 0.818915 0.699857
vt 0.808693 0.699857
vt 0.873065 0.699857
vt 0.883457 0.699857
vt 0.791021 0.699857
vt 0.900829 0.699857
vt 0.616506 0.700599
vt 0.617824 0.718154
vt 0.604463 0.71700698
vt 0.604331 0.700599
vt 0.604462 0.684191
vt 0.617824 0.68304402
vt 0.592875 0.700599
vt 0.593075 0.71361
vt 0.593075 0.68758798
vt 0.625442 0.66448802
vt 0.622086 0.65632898
vt 0.629133 0.67274302
vt 0.613239 0.66909802
vt 0.60967 0.66043502
vt 0.586977 0.672799
vt 0.591114 0.67875898
vt 0.602297 0.67302698
vt 0.598986 0.66553903
vt 0.622087 0.74486798
vt 0.625442 0.736709
vt 0.629133 0.728454
vt 0.586978 0.7284
vt 0.591114 0.72244
vt 0.61324 0.7321
vt 0.609671 0.740763
vt 0.598987 0.735659
vt 0.602298 0.728171
vt 0.828309 0.522053
vt 0.84599 0.522053
vt 0.863671 0.522053
vt 0.873065 0.522053
vt 0.873065 0.522053
vt 0.883457 0.522053
vt 0.900829 0.522053
vt 0.791021 0.522053
vt 0.808693 0.522053
vt 0.818915 0.522053
vt 0.818915 0.522053
vt 0.363234 0.975202978
vt 0.395683 0.975202978
vt 0.395683 0.98465699
vt 0.363234 0.98465699
vt 0.462706 0.33144796
vt 0.462706 0.0062890053
vt 0.497814 0.0062890053
vt 0.497815 0.33144796
vt 0.298335 0.975202978
vt 0.330784 0.975202978
vt 0.330784 0.98465699
vt 0.298335 0.98465699
vt 0.265885 0.975202978
vt 0.265885 0.98465699
vt 0.233436 0.975202978
vt 0.233436 0.98465699
vt 0.200986 0.975202978
vt 0.200986 0.98465699
vt 0.168537 0.975202978
vt 0.168537 0.98465699
vt 0.136087 0.975202978
vt 0.136087 0.98465699
vt 0.103638 0.975202978
vt 0.103638 0.98465699
vt 0.071188 0.975202978
vt 0.071188 0.98465699
vt 0.038739 0.975202978
vt 0.038739 0.98465699
vt 0.006289 0.975202978
vt 0.006289 0.98465699
vt 0.817526 0.975202978
vt 0.849976 0.975202978
vt 0.849976 0.98465699
vt 0.817526 0.98465699
vt 0.752627 0.975202978
vt 0.785077 0.975202978
vt 0.785077 0.98465699
vt 0.752627 0.98465699
vt 0.720178 0.975202978
vt 0.720178 0.98465699
vt 0.687728 0.975202978
vt 0.687728 0.98465699
vt 0.655279 0.975202978
vt 0.655279 0.98465699
vt 0.622829 0.975202978
vt 0.622829 0.98465699
vt 0.59038 0.975202978
vt 0.59038 0.98465699
vt 0.55793 0.975202978
vt 0.55793 0.98465699
vt 0.525481 0.975202978
vt 0.525481 0.98465699
vt 0.493032 0.975202978
vt 0.493032 0.98465699
vt 0.460582 0.975202978
vt 0.460582 0.98465699
vt 0.428133 0.975202978
vt 0.428133 0.98465699
vt 0.362668 0.34402704
vt 0.392366 0.34402704
vt 0.392366 0.63942802
vt 0.362668 0.63942802
vt 0.532923 0.33144796
vt 0.532923 0.0062890053
vt 0.568032 0.0062890053
vt 0.568032 0.33144796
vt 0.603141 0.0062890053
vt 0.603141 0.33144796
vt 0.63825 0.0062890053
vt 0.63825 0.33144796
vt 0.673359 0.0062890053
vt 0.673359 0.33144796
vt 0.708468 0.0062890053
vt 0.708468 0.33144796
vt 0.743577 0.0062890053
vt 0.743577 0.33144796
vt 0.778686 0.0062890053
vt 0.778686 0.33144796
vt 0.813795 0.0062890053
vt 0.813795 0.33144796
vt 0.848904 0.0062890053
vt 0.848904 0.33144796
vt 0.884013 0.0062890053
vt 0.884013 0.33144796
vt 0.919122 0.0062890053
vt 0.919122 0.33144796
vt 0.006289 0.33144796
vt 0.006289 0.0062890053
vt 0.041398 0.0062890053
vt 0.041398 0.33144796
vt 0.076507 0.0062890053
vt 0.076507 0.33144796
vt 0.111616 0.0062890053
vt 0.111616 0.33144796
vt 0.146725 0.0062890053
vt 0.146725 0.33144796
vt 0.181834 0.0062890053
vt 0.181834 0.33144796
vt 0.216943 0.33144796
vt 0.216943 0.0062890053
vt 0.252052 0.0062890053
vt 0.252052 0.33144796
vt 0.287161 0.0062890053
vt 0.287161 0.33144796
vt 0.32227 0.0062890053
vt 0.32227 0.33144796
vt 0.357379 0.0062890053
vt 0.357379 0.33144796
vt 0.392488 0.0062890053
vt 0.392488 0.33144796
vt 0.427597 0.0062890053
vt 0.427597 0.33144796
vt 0.157934 0.66902
vt 0.125949 0.67254698
vt 0.123062 0.66015702
vt 0.158068 0.65640497
vt 0.245451 0.90294403
vt 0.266838 0.878880024
vt 0.277363 0.88616198
vt 0.253859 0.912498
vt 0.281787 0.85039699
vt 0.293688 0.85490102
vt 0.225831 0.67362797
vt 0.219797 0.684906
vt 0.189807 0.673222
vt 0.192952 0.660913
vt 0.218878 0.92118698
vt 0.224736 0.932404995
vt 0.067556 0.90272099
vt 0.059114 0.91227102
vt 0.035467 0.88572401
vt 0.04603 0.87843698
vt 0.023495 0.81804699
vt 0.031009 0.849639
vt 0.018915 0.85416198
vt 0.010716 0.819489
vt 0.267291 0.727449
vt 0.246133 0.703355
vt 0.254618 0.693919
vt 0.277675 0.720374
vt 0.023727 0.78557903
vt 0.011015 0.78391802
vt 0.293839 0.75149202
vt 0.281995 0.75592601
vt 0.272571 0.75944602
vt 0.289519 0.78707701
vt 0.279569 0.78825599
vt 0.25894 0.73314297
vt 0.239438 0.710813
vt 0.215038 0.69379503
vt 0.187291 0.683007
vt 0.209753 0.75447899
vt 0.183899 0.751109
vt 0.185272 0.71455902
vt 0.212109 0.72146398
vt 0.23411 0.75858903
vt 0.235546 0.731211
vt 0.256382 0.76088798
vt 0.248347 0.742907
vt 0.259736 0.78832501
vt 0.234262 0.78791201
vt 0.209126 0.78672898
vt 0.183399 0.785631
vt 0.289511 0.81918299
vt 0.302101 0.820719
vt 0.25855 0.87314802
vt 0.272397 0.84684002
vt 0.186268 0.92270702
vt 0.214191 0.91221702
vt 0.188692 0.932531
vt 0.238776 0.895361006
vt 0.302106 0.78557801
vt 0.279449 0.81795597
vt 0.256535 0.84531403
vt 0.234103 0.847404
vt 0.234266 0.81800902
vt 0.259743 0.81776297
vt 0.209969 0.85123497
vt 0.209184 0.81890202
vt 0.184101 0.85423702
vt 0.183376 0.819597
vt 0.247527 0.863321
vt 0.235527 0.87468702
vt 0.212463 0.88411701
vt 0.185588 0.890661
vt 0.191748 0.944965005
vt 0.157819 0.67913097
vt 0.157173 0.74972498
vt 0.157209 0.71208298
vt 0.157285 0.78509301
vt 0.156681 0.936459005
vt 0.156669 0.92631
vt 0.157243 0.85527498
vt 0.157323 0.81976599
vt 0.156964 0.89297998
vt 0.095615 0.68360198
vt 0.068774 0.70165598
vt 0.060363 0.69194
vt 0.089826 0.672211
vt 0.156685 0.949131012
vt 0.128248 0.68240798
vt 0.127034 0.92269099
vt 0.124615 0.932567
vt 0.130765 0.75068098
vt 0.129231 0.714055
vt 0.131257 0.78523302
vt 0.13126 0.81921399
vt 0.130226 0.85385501
vt 0.128318 0.89045501
vt 0.094311 0.92108399
vt 0.088336 0.932500005
vt 0.031795 0.75414097
vt 0.01987 0.74949402
vt 0.047061 0.725604
vt 0.036672 0.71828997
vt 0.121574 0.944979012
vt 0.100211 0.692654
vt 0.075403 0.709328
vt 0.055358 0.73144197
vt 0.041269 0.75782502
vt 0.033882 0.786901
vt 0.080754 0.75735903
vt 0.080491 0.78688502
vt 0.054977 0.78711897
vt 0.058327 0.75919902
vt 0.040597 0.84605902
vt 0.054411 0.872652
vt 0.074306 0.89507198
vt 0.099027 0.91205901
vt 0.033576 0.81690598
vt 0.079958 0.817092
vt 0.079809 0.84654701
vt 0.057291 0.84434801
vt 0.054753 0.816858
vt 0.104971 0.753676
vt 0.102398 0.720537
vt 0.105627 0.785981
vt 0.105123 0.818219
vt 0.104123 0.85054898
vt 0.101202 0.88380003
vt 0.079158 0.72990102
vt 0.066356 0.74125302
vt 0.07777 0.87407303
vt 0.065598 0.86239201
vt 0.192793 0.949253976
vt 0.226772 0.93631899
vt 0.156678 0.953548014
vt 0.256766 0.91581899
vt 0.280988 0.88867903
vt 0.297807 0.856466
vt 0.306465 0.82125598
vt 0.306465 0.785065
vt 0.297947 0.74996197
vt 0.281305 0.71791202
vt 0.257569 0.69066
vt 0.227919 0.669747
vt 0.194045 0.65664798
vt 0.158124 0.65200597
vt 0.122075 0.65585703
vt 0.087832 0.668257
vt 0.057465 0.68858403
vt 0.033052 0.715733
vt 0.015739 0.74787003
vt 0.006606 0.78333199
vt 0.006289 0.81997901
vt 0.014735 0.85571402
vt 0.0318 0.88824999
vt 0.056163 0.915594995
vt 0.086268 0.936432004
vt 0.120519 0.949280977
vt 0.440331 0.774185
vt 0.383552 0.66600102
vt 0.411092 0.65555602
vt 0.440331 0.65200597
vt 0.469571 0.65555602
vt 0.497111 0.66600102
vt 0.521351 0.682733
vt 0.540882 0.70477903
vt 0.55457 0.73086
vt 0.561619 0.759458
vt 0.55457 0.81751001
vt 0.540882 0.84359002
vt 0.521351 0.865637
vt 0.49711 0.88236803
vt 0.469571 0.89281303
vt 0.440331 0.89636302
vt 0.411092 0.89281303
vt 0.383552 0.88236803
vt 0.359312 0.865637
vt 0.33978 0.84359002
vt 0.326093 0.81751001
vt 0.319044 0.788912
vt 0.319044 0.759458
vt 0.561619 0.788912
vt 0.326093 0.73085898
vt 0.339781 0.70477903
vt 0.359312 0.682733
vt 0.065686 0.34402704
vt 0.065686 0.63942802
vt 0.035988 0.63942802
vt 0.035988 0.34402704
vt 0.006289 0.63942802
vt 0.006289 0.34402704
vt 0.184478 0.34402704
vt 0.184479 0.63942802
vt 0.15478 0.63942802
vt 0.15478 0.34402704
vt 0.125082 0.63942802
vt 0.125082 0.34402704
vt 0.095384 0.63942802
vt 0.095384 0.34402704
vt 0.303271 0.34402704
vt 0.303271 0.63942802
vt 0.273573 0.63942802
vt 0.273573 0.34402704
vt 0.243875 0.63942802
vt 0.243875 0.34402704
vt 0.214177 0.63942802
vt 0.214177 0.34402704
vt 0.422064 0.34402704
vt 0.422064 0.63942802
vt 0.332969 0.34402704
vt 0.332969 0.63942802
vt 0.540857 0.34402704
vt 0.540857 0.63942802
vt 0.511159 0.63942802
vt 0.511159 0.34402704
vt 0.481461 0.63942802
vt 0.48146 0.34402704
vt 0.451762 0.63942802
vt 0.451762 0.34402704
vt 0.719046 0.34402704
vt 0.719046 0.63942802
vt 0.689348 0.63942802
vt 0.689348 0.34402704
vt 0.65965 0.63942802
vt 0.65965 0.34402704
vt 0.629951 0.63942802
vt 0.629951 0.34402704
vt 0.600253 0.63942802
vt 0.600253 0.34402704
vt 0.570555 0.63942802
vt 0.570555 0.34402704
vt 0.778442 0.34402704
vt 0.778442 0.63942802
vt 0.748744 0.63942802
vt 0.748744 0.34402704
vt 0.428133 0.9891960025
vt 0.395683 0.9891960025
vt 0.428133 0.9937109947
vt 0.395683 0.9937109947
vt 0.363234 0.9891960025
vt 0.363234 0.9937109947
vt 0.330784 0.9891960025
vt 0.330784 0.9937109947
vt 0.298335 0.9891960025
vt 0.298335 0.9937109947
vt 0.265885 0.9891960025
vt 0.265885 0.9937109947
vt 0.233436 0.9891960025
vt 0.233436 0.9937109947
vt 0.200986 0.9891960025
vt 0.200986 0.9937109947
vt 0.168537 0.9891960025
vt 0.168537 0.9937109947
vt 0.136087 0.9891960025
vt 0.136087 0.9937109947
vt 0.103638 0.9891960025
vt 0.103638 0.9937109947
vt 0.071188 0.9891960025
vt 0.071188 0.9937109947
vt 0.038739 0.9891960025
vt 0.038739 0.9937109947
vt 0.006289 0.9891960025
vt 0.006289 0.9937109947
vt 0.849976 0.9891960025
vt 0.817526 0.9891960025
vt 0.849976 0.9937109947
vt 0.817526 0.9937109947
vt 0.785077 0.9891960025
vt 0.785077 0.9937109947
vt 0.752627 0.9891960025
vt 0.752627 0.9937109947
vt 0.720178 0.9891960025
vt 0.720178 0.9937109947
vt 0.687728 0.9891960025
vt 0.687728 0.9937109947
vt 0.655279 0.9891960025
vt 0.655279 0.9937109947
vt 0.622829 0.9891960025
vt 0.622829 0.9937109947
vt 0.59038 0.9891960025
vt 0.59038 0.9937109947
vt 0.55793 0.9891960025
vt 0.55793 0.9937109947
vt 0.525481 0.9891960025
vt 0.525481 0.9937109947
vt 0.493032 0.9891960025
vt 0.493032 0.9937109947
vt 0.460582 0.9891960025
vt 0.460582 0.9937109947
vt 0.363234 0.970652997
vt 0.395683 0.970652997
vt 0.363234 0.96612698
vt 0.395683 0.96612698
vt 0.330784 0.970652997
vt 0.330784 0.96612698
vt 0.298335 0.970652997
vt 0.298335 0.96612698
vt 0.265885 0.970652997
vt 0.265885 0.96612698
vt 0.233436 0.970652997
vt 0.233436 0.96612698
vt 0.200986 0.970652997
vt 0.200986 0.96612698
vt 0.168537 0.970652997
vt 0.168537 0.96612698
vt 0.136087 0.970652997
vt 0.136087 0.96612698
vt 0.103638 0.970652997
vt 0.103638 0.96612698
vt 0.071188 0.970652997
vt 0.071188 0.96612698
vt 0.038739 0.970652997
vt 0.038739 0.96612698
vt 0.006289 0.970652997
vt 0.006289 0.96612698
vt 0.817526 0.970652997
vt 0.849976 0.970652997
vt 0.817526 0.96612698
vt 0.849976 0.96612698
vt 0.785077 0.970652997
vt 0.785077 0.96612698
vt 0.752627 0.970652997
vt 0.752627 0.96612698
vt 0.720178 0.970652997
vt 0.720178 0.96612698
vt 0.687728 0.970652997
vt 0.687728 0.96612698
vt 0.655279 0.970652997
vt 0.655279 0.96612698
vt 0.622829 0.970652997
vt 0.622829 0.96612698
vt 0.59038 0.970652997
vt 0.59038 0.96612698
vt 0.55793 0.970652997
vt 0.55793 0.96612698
vt 0.525481 0.970652997
vt 0.525481 0.96612698
vt 0.493032 0.970652997
vt 0.493032 0.96612698
vt 0.460582 0.970652997
vt 0.460582 0.96612698
vt 0.428133 0.970652997
vt 0.428133 0.96612698
vn -0.1149 0.5842 0.8034
vn 0.2015 0.5651 0.8
vn 0.0215 0.994 0.1072
vn 0.019 0.9977 0.0648
vn -0.1892 0.6509 -0.7352
vn 0.2199 0.6584 -0.7198
vn -0.2316 -0.0037 -0.9728
vn 0.317 -0 -0.9484
vn 0.317 -0 -0.9484
vn -0.2316 -0.0037 -0.9728
vn -0.1839 -0.6379 -0.7478
vn 0.2199 -0.6584 -0.7198
vn 0.0199 -0.9957 0.0907
vn 0.019 -0.9977 0.0648
vn 0.2015 -0.5651 0.8
vn -0.1149 -0.5842 0.8034
vn 0.2471 -0 0.969
vn -0.1474 -0 0.9891
vn 0.0505 0.9938 0.0988
vn 0.5624 0.5411 0.6252
vn 0.6744 -0 0.7384
vn 0.5624 -0.5411 0.6252
vn 0.027 -0.997 0.0728
vn -0.5922 -0.5633 -0.5761
vn -0.6998 -0.0069 -0.7143
vn -0.6998 -0.0069 -0.7143
vn -0.5729 0.6062 -0.5517
vn 0.5613 0.8201 0.111
vn 0.032 0.9989 0.0344
vn 0.7663 0.5436 0.3424
vn 0.8231 0.5441 0.1623
vn 0.9156 -0 0.4022
vn 0.9811 -0 0.1935
vn 0.7663 -0.5436 0.3424
vn 0.8231 -0.5441 0.1623
vn 0.5153 -0.8232 0.2385
vn 0.5613 -0.8201 0.111
vn -0.5761 -0.81 -0.1094
vn -0.5713 -0.7902 -0.2218
vn -0.7659 -0.5599 -0.3161
vn -0.8188 -0.5523 -0.1565
vn -0.9151 -0.003 -0.4032
vn -0.9827 -0 -0.1851
vn -0.9827 -0 -0.1851
vn -0.9151 -0.003 -0.4032
vn -0.7549 0.5729 -0.3193
vn -0.8188 0.5523 -0.1565
vn -0.5761 0.81 -0.1094
vn -0.1135 -0 0.9935
vn -0.0612 -0.6131 0.7877
vn -0.0615 0.6132 0.7875
vn 0.8561 -0 -0.5168
vn 0.5781 -0 -0.816
vn 0.567 0.5297 -0.6309
vn 0.837 0.3063 -0.4535
vn 0.837 -0.3063 -0.4535
vn 0.567 -0.5297 -0.6309
vn 0.3593 -0 -0.9332
vn 0.3715 0.6161 -0.6946
vn 0.3715 -0.6161 -0.6946
vn -0.1135 -0 0.9935
vn 0.3806 -0 0.9247
vn 0.3224 -0.6027 0.7299
vn -0.0612 -0.6131 0.7877
vn -0.0615 0.6132 0.7875
vn 0.3229 0.6026 0.7298
vn 0.3806 -0 0.9247
vn -0.1135 -0 0.9935
vn 0.6076 -0 0.7942
vn 0.4867 -0.5877 0.6463
vn 0.488 0.5871 0.6459
vn 0.6076 -0 0.7942
vn 0.1896 0.973 0.1319
vn 0.6313 0.6493 -0.4242
vn 0.1828 -0.9753 0.1239
vn 0.625 -0.6549 -0.4249
vn 0.7903 -0 -0.6127
vn 0.7903 -0 -0.6127
vn 0.7903 -0 -0.6127
vn 0.9623 -0 -0.2719
vn 0.8485 0.4795 -0.2239
vn 0.6313 0.6493 -0.4242
vn 0.8474 -0.484 -0.2184
vn 0.625 -0.6549 -0.4249
vn 0.9504 -0 -0.3111
vn 0.8755 0.387 -0.2892
vn 0.8755 -0.387 -0.2892
vn 0.3811 -0.8838 0.2716
vn 0.3426 -0.9061 0.2481
vn 0.1828 -0.9753 0.1239
vn 0.4719 -0.8811 -0.0309
vn 0.4238 -0.9045 0.0481
vn 0.5577 -0.7807 -0.2819
vn 0.3521 -0.8913 -0.2857
vn 0.5404 -0.8332 -0.1176
vn 0.411 -0.9071 -0.0912
vn 0.366 0.8863 0.2837
vn 0.3411 0.9032 0.2604
vn 0.1896 0.973 0.1319
vn 0.3521 0.8913 -0.2857
vn 0.5577 0.7807 -0.2819
vn 0.466 0.8843 -0.0286
vn 0.5372 0.8333 -0.1306
vn 0.3948 0.9129 -0.1039
vn 0.3953 0.9173 0.0477
vn -0.1149 0.5842 -0.8034
vn 0.019 0.9977 -0.0648
vn 0.0215 0.994 -0.1072
vn 0.2015 0.5651 -0.8
vn 0.2199 0.6584 0.7198
vn -0.1892 0.6509 0.7352
vn 0.317 -0 0.9484
vn -0.2316 -0.0037 0.9728
vn 0.317 -0 0.9484
vn 0.2199 -0.6584 0.7198
vn -0.1839 -0.6379 0.7478
vn -0.2316 -0.0037 0.9728
vn 0.019 -0.9977 -0.0648
vn 0.0199 -0.9957 -0.0907
vn -0.1149 -0.5842 -0.8034
vn 0.2015 -0.5651 -0.8
vn -0.1474 -0 -0.9891
vn 0.2471 -0 -0.969
vn 0.0505 0.9938 -0.0988
vn 0.5624 0.5411 -0.6252
vn 0.6744 -0 -0.7384
vn 0.5624 -0.5411 -0.6252
vn 0.027 -0.997 -0.0728
vn -0.5922 -0.5633 0.5761
vn -0.6998 -0.0069 0.7143
vn -0.6998 -0.0069 0.7143
vn -0.5729 0.6062 0.5517
vn 0.5613 0.8201 -0.111
vn 0.8231 0.5441 -0.1623
vn 0.7663 0.5436 -0.3424
vn 0.032 0.9989 -0.0344
vn 0.9811 -0 -0.1935
vn 0.9156 -0 -0.4022
vn 0.8231 -0.5441 -0.1623
vn 0.7663 -0.5436 -0.3424
vn 0.5613 -0.8201 -0.111
vn 0.5153 -0.8232 -0.2385
vn -0.5761 -0.81 0.1094
vn -0.8188 -0.5523 0.1565
vn -0.7659 -0.5599 0.3161
vn -0.5713 -0.7902 0.2218
vn -0.9827 -0 0.1851
vn -0.9151 -0.003 0.4032
vn -0.9827 -0 0.1851
vn -0.8188 0.5523 0.1565
vn -0.7549 0.5729 0.3193
vn -0.9151 -0.003 0.4032
vn -0.5761 0.81 0.1094
vn -0.0796 -0.6158 -0.7839
vn -0.1219 -0 -0.9925
vn -0.0796 0.6158 -0.7839
vn 0.8561 -0 0.5168
vn 0.837 0.3063 0.4535
vn 0.5118 0.5761 0.6374
vn 0.564 -0 0.8258
vn 0.837 -0.3063 0.4535
vn 0.5118 -0.5761 0.6374
vn 0.2715 0.5985 0.7537
vn 0.3287 -0 0.9444
vn 0.2715 -0.5985 0.7537
vn -0.1219 -0 -0.9925
vn -0.0796 -0.6158 -0.7839
vn 0.3067 -0.582 -0.7532
vn 0.3671 -0 -0.9302
vn -0.0796 0.6158 -0.7839
vn -0.1219 -0 -0.9925
vn 0.3671 -0 -0.9302
vn 0.3067 0.582 -0.7532
vn 0.4808 -0.5918 -0.647
vn 0.5972 -0 -0.8021
vn 0.5972 -0 -0.8021
vn 0.4807 0.5918 -0.647
vn 0.1694 0.9765 -0.1332
vn 0.6249 0.6551 0.4248
vn 0.1694 -0.9765 -0.1332
vn 0.6249 -0.6551 0.4248
vn 0.7903 -0 0.6127
vn 0.7903 -0 0.6127
vn 0.7903 -0 0.6127
vn 0.6249 0.6551 0.4248
vn 0.8474 0.484 0.2184
vn 0.9623 -0 0.2719
vn 0.8474 -0.484 0.2184
vn 0.6249 -0.6551 0.4248
vn 0.9504 -0 0.3111
vn 0.8755 0.387 0.2892
vn 0.8755 -0.387 0.2892
vn 0.3327 -0.9052 -0.2644
vn 0.3778 -0.8788 -0.2915
vn 0.1694 -0.9765 -0.1332
vn 0.4591 -0.8878 0.0338
vn 0.3977 -0.9166 -0.0419
vn 0.2197 -0.9242 0.3123
vn 0.4977 -0.8141 0.2992
vn 0.509 -0.8509 0.13
vn 0.345 -0.9317 0.1138
vn 0.3778 0.8788 -0.2915
vn 0.3327 0.9052 -0.2644
vn 0.1694 0.9765 -0.1332
vn 0.2197 0.9242 0.3123
vn 0.4977 0.8141 0.2992
vn 0.4591 0.8878 0.0338
vn 0.3977 0.9166 -0.0419
vn 0.345 0.9317 0.1138
vn 0.509 0.8509 0.13
vn 0.8399 0.5428 0
vn 1 -0 0
vn 0.8399 -0.5428 0
vn 0.5691 -0.8223 0
vn -0.5772 -0.8166 0
vn -0.8262 -0.5634 0
vn -1 -0 0
vn -1 -0 0
vn -0.8262 0.5634 0
vn -0.5772 0.8166 0
vn 0.5691 0.8223 0
vn 0.1584 -0.0832 -0.9839
vn 0.1737 -0.0428 -0.9839
vn -0.202 0.0498 -0.9781
vn -0.1843 0.0967 -0.9781
vn -1 -0 0
vn -1 -0 0
vn -0.9709 0.2393 0
vn -0.9709 0.2393 0
vn 0.1016 -0.1473 -0.9839
vn 0.1339 -0.1187 -0.9839
vn -0.1558 0.138 -0.9781
vn -0.1182 0.1713 -0.9781
vn 0.0635 -0.1673 -0.9839
vn -0.0738 0.1946 -0.9781
vn 0.0216 -0.1776 -0.9839
vn -0.0251 0.2066 -0.9781
vn -0.0216 -0.1776 -0.9839
vn 0.0251 0.2066 -0.9781
vn -0.0635 -0.1673 -0.9839
vn 0.0738 0.1946 -0.9781
vn -0.1016 -0.1473 -0.9839
vn 0.1182 0.1713 -0.9781
vn -0.1339 -0.1187 -0.9839
vn 0.1558 0.138 -0.9781
vn -0.1584 -0.0832 -0.9839
vn 0.1843 0.0967 -0.9781
vn -0.1737 -0.0428 -0.9839
vn 0.202 0.0498 -0.9781
vn -0.1789 -0 -0.9839
vn 0.2081 -0 -0.9781
vn -0.1737 0.0428 -0.9839
vn -0.1789 -0 -0.9839
vn 0.2081 -0 -0.9781
vn 0.202 -0.0498 -0.9781
vn -0.1339 0.1187 -0.9839
vn -0.1584 0.0832 -0.9839
vn 0.1843 -0.0967 -0.9781
vn 0.1558 -0.138 -0.9781
vn -0.1017 0.1473 -0.9839
vn 0.1182 -0.1713 -0.9781
vn -0.0635 0.1673 -0.9839
vn 0.0738 -0.1946 -0.9781
vn -0.0216 0.1776 -0.9839
vn 0.0251 -0.2066 -0.9781
vn 0.0216 0.1776 -0.9839
vn -0.0251 -0.2066 -0.9781
vn 0.0635 0.1673 -0.9839
vn -0.0738 -0.1946 -0.9781
vn 0.1016 0.1473 -0.9839
vn -0.1182 -0.1713 -0.9781
vn 0.1339 0.1187 -0.9839
vn -0.1558 -0.138 -0.9781
vn 0.1584 0.0832 -0.9839
vn -0.1843 -0.0967 -0.9781
vn 0.1737 0.0428 -0.9839
vn -0.202 -0.0498 -0.9781
vn 0.1789 -0 -0.9839
vn -0.2081 -0 -0.9781
vn 0.9709 -0.2393 -0.0069
vn 1 -0 -0.0069
vn 1 -0 -0.0069
vn 0.9709 -0.2393 -0.0069
vn -0.8855 0.4647 0
vn -0.8855 0.4647 0
vn -0.7485 0.6631 0
vn -0.7485 0.6631 0
vn -0.5681 0.823 0
vn -0.5681 0.823 0
vn -0.3546 0.935 0
vn -0.3546 0.935 0
vn -0.1205 0.9927 0
vn -0.1205 0.9927 0
vn 0.1205 0.9927 0
vn 0.1205 0.9927 0
vn 0.3546 0.935 0
vn 0.3546 0.935 0
vn 0.5681 0.823 0
vn 0.5681 0.823 0
vn 0.7485 0.6631 0
vn 0.7485 0.6631 0
vn 0.8855 0.4647 0
vn 0.8855 0.4647 0
vn 0.9709 0.2393 0
vn 0.9709 0.2393 0
vn 1 -0 0
vn 1 -0 0
vn 1 -0 0
vn 1 -0 0
vn 0.9709 -0.2393 0
vn 0.9709 -0.2393 0
vn 0.8855 -0.4647 0
vn 0.8855 -0.4647 0
vn 0.7485 -0.6631 0
vn 0.7485 -0.6631 0
vn 0.5681 -0.823 0
vn 0.5681 -0.823 0
vn 0.3546 -0.935 0
vn 0.3546 -0.935 0
vn 0.1205 -0.9927 0
vn 0.1205 -0.9927 0
vn -0.1205 -0.9927 0
vn -0.1205 -0.9927 0
vn -0.3546 -0.935 0
vn -0.3546 -0.935 0
vn -0.5681 -0.823 0
vn -0.5681 -0.823 0
vn -0.7485 -0.6631 0
vn -0.7485 -0.6631 0
vn -0.8855 -0.4647 0
vn -0.8855 -0.4647 0
vn -0.9709 -0.2393 0
vn -0.9709 -0.2393 0
vn -0.2882 -0 0.9576
vn -0.2798 0.069 0.9576
vn 0.3954 -0.0975 0.9133
vn 0.4072 -0 0.9133
vn 0.2157 -0.1911 0.9576
vn 0.1637 -0.2372 0.9576
vn -0.2313 0.3352 0.9133
vn -0.3048 0.27 0.9133
vn 0.1022 -0.2695 0.9576
vn -0.1444 0.3808 0.9133
vn 0.3606 0.1893 0.9133
vn -0.2552 -0.1339 0.9576
vn -0.2798 -0.069 0.9576
vn 0.3954 0.0975 0.9133
vn 0.2552 -0.1339 0.9576
vn -0.3606 0.1893 0.9133
vn 0.2157 0.1911 0.9576
vn -0.3048 -0.27 0.9133
vn -0.2313 -0.3352 0.9133
vn 0.1637 0.2372 0.9576
vn 0.0347 0.2861 0.9576
vn 0.1022 0.2695 0.9576
vn -0.1444 -0.3808 0.9133
vn -0.0491 -0.4043 0.9133
vn -0.1637 -0.2372 0.9576
vn -0.2157 -0.1911 0.9576
vn 0.3048 0.27 0.9133
vn 0.2313 0.3352 0.9133
vn -0.0347 0.2861 0.9576
vn 0.0491 -0.4043 0.9133
vn 0.1444 0.3808 0.9133
vn -0.1022 -0.2695 0.9576
vn -0.1925 -0.5378 0.8208
vn -0.0347 -0.2861 0.9576
vn -0.0576 -0.5435 0.8375
vn -0.337 -0.4863 0.8062
vn -0.4264 -0.3577 0.8308
vn -0.4692 -0.2322 0.852
vn -0.4935 -0.1181 0.8617
vn -0.0862 -0.0748 0.9935
vn -0.084 -0.0321 0.9959
vn -0.2618 -0.0703 0.9626
vn -0.2717 -0.1451 0.9514
vn -0.0858 -0.1592 0.9835
vn -0.2803 -0.2788 0.9185
vn -0.1453 -0.3895 0.9095
vn -0.2517 -0.3865 0.8873
vn -0.0322 -0.3623 0.9315
vn -0.0222 -0.1587 0.9871
vn -0.0311 -0.0725 0.9969
vn -0.0328 -0.0236 0.9992
vn 0.0347 -0.2861 0.9576
vn -0.0491 0.4043 0.9133
vn 0.3381 -0.4907 0.803
vn 0.192 -0.5378 0.8209
vn 0.4852 -0.1106 0.8674
vn 0.4687 -0.2281 0.8534
vn 0.2798 -0.069 0.9576
vn 0.43 -0.3596 0.8281
vn 0.0491 0.4043 0.9133
vn 0.0581 -0.5429 0.8378
vn 0.143 -0.4027 0.9041
vn 0.0829 -0.1831 0.9796
vn 0.0091 -0.1688 0.9856
vn 0.0303 -0.3659 0.9302
vn 0.0887 -0.0828 0.9926
vn 0.0071 -0.0755 0.9971
vn 0.0939 -0.0257 0.9952
vn 0.0085 -0.0208 0.9997
vn 0.2542 -0.4012 0.88
vn 0.2955 -0.2969 0.908
vn 0.2924 -0.1471 0.9449
vn 0.2786 -0.0588 0.9586
vn -0.3954 0.0975 0.9133
vn -0.5058 -0.0029 0.8627
vn -0.0784 -0.0103 0.9969
vn -0.2623 -0.0095 0.9649
vn -0.0283 -0.0019 0.9996
vn 0.2882 -0 0.9576
vn 0.4885 0.0023 0.8726
vn 0.0952 0.0143 0.9954
vn 0.0133 0.0083 0.9999
vn 0.2681 0.0096 0.9633
vn -0.2552 0.1339 0.9576
vn -0.2157 0.1911 0.9576
vn 0.3048 -0.27 0.9133
vn 0.3606 -0.1893 0.9133
vn -0.4072 -0 0.9133
vn -0.5016 0.1158 0.8573
vn 0.4785 0.1128 0.8708
vn 0.2798 0.069 0.9576
vn -0.0745 0.0221 0.997
vn -0.2727 0.0621 0.9601
vn -0.021 0.0239 0.9995
vn 0.0192 0.031 0.9993
vn 0.0961 0.0407 0.9945
vn 0.264 0.0678 0.9621
vn 0.2552 0.1339 0.9576
vn -0.3606 -0.1893 0.9133
vn -0.1022 0.2695 0.9576
vn 0.1444 -0.3808 0.9133
vn -0.1637 0.2372 0.9576
vn 0.2313 -0.3352 0.9133
vn -0.3954 -0.0975 0.9133
vn -0.4829 0.2359 0.8433
vn -0.4427 0.369 0.8173
vn -0.3416 0.5016 0.7948
vn -0.1907 0.5396 0.82
vn -0.0612 0.5461 0.8355
vn -0.0671 0.1582 0.9851
vn -0.0226 0.1457 0.9891
vn -0.0407 0.3585 0.9327
vn -0.1374 0.3942 0.9087
vn 0.1964 0.5477 0.8133
vn 0.3413 0.4871 0.8039
vn 0.422 0.35 0.8363
vn 0.458 0.2244 0.8602
vn 0.0567 0.5525 0.8316
vn 0.0135 0.1406 0.99
vn 0.093 0.146 0.9849
vn 0.1532 0.3953 0.9057
vn 0.0287 0.3626 0.9315
vn -0.0694 0.074 0.9948
vn -0.2862 0.1508 0.9462
vn -0.0186 0.0685 0.9975
vn 0.0189 0.0646 0.9977
vn 0.0958 0.0704 0.9929
vn 0.2747 0.1356 0.9519
vn -0.2903 0.2987 0.9091
vn -0.2415 0.4081 0.8804
vn 0.2901 0.2686 0.9185
vn 0.2613 0.3769 0.8886
vn -0.6866 0.1692 0.7071
vn -0.6261 0.3286 0.7071
vn -0.7071 -0 0.7071
vn -0.5293 0.4689 0.7071
vn -0.4017 0.5819 0.7071
vn -0.2507 0.6612 0.7071
vn -0.0852 0.702 0.7071
vn 0.0852 0.702 0.7071
vn 0.2507 0.6612 0.7071
vn 0.4017 0.5819 0.7071
vn 0.5293 0.4689 0.7071
vn 0.6261 0.3286 0.7071
vn 0.6866 0.1692 0.7071
vn 0.7071 -0 0.7071
vn 0.6866 -0.1692 0.7071
vn 0.6261 -0.3286 0.7071
vn 0.5293 -0.4689 0.7071
vn 0.4017 -0.5819 0.7071
vn 0.2507 -0.6612 0.7071
vn 0.0852 -0.7019 0.7071
vn -0.0852 -0.702 0.7071
vn -0.2507 -0.6612 0.7071
vn -0.4017 -0.5819 0.7071
vn -0.5293 -0.4689 0.7071
vn -0.6261 -0.3286 0.7071
vn -0.6866 -0.1692 0.7071
vn -0 -0 -1
vn 0.0135 -0.012 -0.9998
vn 0.0106 -0.0153 -0.9998
vn 0.0064 -0.0169 -0.9998
vn 0.0022 -0.0184 -0.9998
vn -0.0022 -0.0179 -0.9998
vn -0.0066 -0.0174 -0.9998
vn -0.0102 -0.0148 -0.9998
vn -0.0139 -0.0123 -0.9998
vn -0.016 -0.0084 -0.9998
vn -0.018 -0 -0.9998
vn -0.018 0.0044 -0.9998
vn -0.016 0.0084 -0.9998
vn -0.0139 0.0123 -0.9998
vn -0.0102 0.0148 -0.9998
vn -0.0066 0.0174 -0.9998
vn -0.0022 0.0179 -0.9998
vn 0.0022 0.0184 -0.9998
vn 0.0064 0.0169 -0.9998
vn 0.0106 0.0153 -0.9998
vn 0.0135 0.012 -0.9998
vn 0.0165 0.0086 -0.9998
vn 0.0175 0.0043 -0.9998
vn -0.018 -0.0044 -0.9998
vn 0.0186 -0 -0.9998
vn 0.0175 -0.0043 -0.9998
vn 0.0165 -0.0086 -0.9998
vn -0.8854 -0.4647 -0.0069
vn -0.8854 -0.4647 -0.0069
vn -0.9709 -0.2393 -0.0069
vn -0.9709 -0.2393 -0.0069
vn -1 -0 -0.0069
vn -1 -0 -0.0069
vn -0.1205 -0.9927 -0.0069
vn -0.1205 -0.9927 -0.0069
vn -0.3546 -0.935 -0.0069
vn -0.3546 -0.935 -0.0069
vn -0.5681 -0.823 -0.0069
vn -0.5681 -0.823 -0.0069
vn -0.7485 -0.6631 -0.0069
vn -0.7485 -0.6631 -0.0069
vn 0.7485 -0.6631 -0.0069
vn 0.7485 -0.6631 -0.0069
vn 0.5681 -0.823 -0.0069
vn 0.5681 -0.823 -0.0069
vn 0.3546 -0.935 -0.0069
vn 0.3546 -0.935 -0.0069
vn 0.1205 -0.9927 -0.0069
vn 0.1205 -0.9927 -0.0069
vn 0.9709 0.2393 -0.0069
vn 0.9709 0.2393 -0.0069
vn 0.8854 -0.4647 -0.0069
vn 0.8854 -0.4647 -0.0069
vn 0.3546 0.935 -0.0069
vn 0.3546 0.935 -0.0069
vn 0.5681 0.823 -0.0069
vn 0.5681 0.823 -0.0069
vn 0.7485 0.6631 -0.0069
vn 0.7485 0.6631 -0.0069
vn 0.8854 0.4647 -0.0069
vn 0.8854 0.4647 -0.0069
vn -0.8854 0.4647 -0.0069
vn -0.8854 0.4647 -0.0069
vn -0.7485 0.6631 -0.0069
vn -0.7485 0.6631 -0.0069
vn -0.5681 0.823 -0.0069
vn -0.5681 0.823 -0.0069
vn -0.3546 0.935 -0.0069
vn -0.3546 0.935 -0.0069
vn -0.1205 0.9927 -0.0069
vn -0.1205 0.9927 -0.0069
vn 0.1205 0.9927 -0.0069
vn 0.1205 0.9927 -0.0069
vn -1 -0 -0.0069
vn -1 -0 -0.0069
vn -0.9709 0.2393 -0.0069
vn -0.9709 0.2393 -0.0069
vn -0.7195 -0 -0.6945
vn -0.6986 0.1722 -0.6945
vn -0.9229 -0 -0.3851
vn -0.8961 0.2209 -0.3851
vn -0.6371 0.3344 -0.6945
vn -0.8172 0.4289 -0.3851
vn -0.5385 0.4771 -0.6945
vn -0.6908 0.612 -0.3851
vn -0.4087 0.5921 -0.6945
vn -0.5243 0.7595 -0.3851
vn -0.2551 0.6727 -0.6945
vn -0.3273 0.8629 -0.3851
vn -0.0867 0.7142 -0.6945
vn -0.1112 0.9162 -0.3851
vn 0.0867 0.7142 -0.6945
vn 0.1112 0.9162 -0.3851
vn 0.2551 0.6727 -0.6945
vn 0.3273 0.8629 -0.3851
vn 0.4087 0.5921 -0.6945
vn 0.5243 0.7595 -0.3851
vn 0.5385 0.4771 -0.6945
vn 0.6908 0.612 -0.3851
vn 0.6371 0.3344 -0.6945
vn 0.8172 0.4289 -0.3851
vn 0.6986 0.1722 -0.6945
vn 0.8961 0.2209 -0.3851
vn 0.7195 -0 -0.6945
vn 0.9229 -0 -0.3851
vn 0.7195 -0 -0.6945
vn 0.6986 -0.1722 -0.6945
vn 0.9229 -0 -0.3851
vn 0.8961 -0.2209 -0.3851
vn 0.6371 -0.3344 -0.6945
vn 0.8172 -0.4289 -0.3851
vn 0.5385 -0.4771 -0.6945
vn 0.6908 -0.612 -0.3851
vn 0.4087 -0.5921 -0.6945
vn 0.5243 -0.7595 -0.3851
vn 0.2551 -0.6727 -0.6945
vn 0.3273 -0.8629 -0.3851
vn 0.0867 -0.7142 -0.6945
vn 0.1112 -0.9162 -0.3851
vn -0.0867 -0.7142 -0.6945
vn -0.1112 -0.9162 -0.3851
vn -0.2551 -0.6727 -0.6945
vn -0.3273 -0.8629 -0.3851
vn -0.4087 -0.5921 -0.6945
vn -0.5243 -0.7595 -0.3851
vn -0.5385 -0.4771 -0.6945
vn -0.6908 -0.612 -0.3851
vn -0.6371 -0.3344 -0.6945
vn -0.8172 -0.4289 -0.3851
vn -0.6986 -0.1722 -0.6945
vn -0.8961 -0.2209 -0.3851
vn 0.6087 -0.3195 -0.7263
vn 0.6674 -0.1645 -0.7263
vn 0.8151 -0.4278 -0.3905
vn 0.8938 -0.2203 -0.3905
vn 0.5145 -0.4558 -0.7263
vn 0.6891 -0.6105 -0.3905
vn 0.3905 -0.5657 -0.7263
vn 0.523 -0.7576 -0.3905
vn 0.2438 -0.6427 -0.7263
vn 0.3265 -0.8608 -0.3905
vn 0.0829 -0.6824 -0.7263
vn 0.111 -0.9139 -0.3905
vn -0.0829 -0.6824 -0.7263
vn -0.111 -0.9139 -0.3905
vn -0.2438 -0.6427 -0.7263
vn -0.3264 -0.8608 -0.3905
vn -0.3905 -0.5657 -0.7263
vn -0.523 -0.7576 -0.3905
vn -0.5145 -0.4558 -0.7263
vn -0.6891 -0.6105 -0.3905
vn -0.6087 -0.3195 -0.7263
vn -0.8151 -0.4278 -0.3905
vn -0.6674 -0.1645 -0.7263
vn -0.8938 -0.2203 -0.3905
vn -0.6874 -0 -0.7263
vn -0.9206 -0 -0.3905
vn -0.6674 0.1645 -0.7263
vn -0.6874 -0 -0.7263
vn -0.8938 0.2203 -0.3905
vn -0.9206 -0 -0.3905
vn -0.6087 0.3195 -0.7263
vn -0.8151 0.4278 -0.3905
vn -0.5145 0.4558 -0.7263
vn -0.6891 0.6105 -0.3905
vn -0.3905 0.5657 -0.7263
vn -0.523 0.7576 -0.3905
vn -0.2438 0.6427 -0.7263
vn -0.3264 0.8608 -0.3905
vn -0.0829 0.6824 -0.7263
vn -0.111 0.9139 -0.3905
vn 0.0829 0.6824 -0.7263
vn 0.111 0.9139 -0.3905
vn 0.2438 0.6427 -0.7263
vn 0.3264 0.8608 -0.3905
vn 0.3905 0.5657 -0.7263
vn 0.523 0.7576 -0.3905
vn 0.5145 0.4558 -0.7263
vn 0.6891 0.6105 -0.3905
vn 0.6087 0.3195 -0.7263
vn 0.8151 0.4278 -0.3905
vn 0.6674 0.1645 -0.7263
vn 0.8938 0.2203 -0.3905
vn 0.6874 -0 -0.7263
vn 0.9206 -0 -0.3905
f 1/1/1 2/2/2 3/3/3
f 1/1/1 3/3/3 4/4/4
f 4/4/4 3/3/3 5/5/5
f 4/4/4 5/5/5 6/6/6
f 6/6/6 5/5/5 7/7/7
f 6/6/6 7/7/7 8/8/8
f 9/9/9 10/10/10 11/11/11
f 9/9/9 11/11/11 12/12/12
f 12/12/12 11/11/11 13/13/13
f 12/12/12 13/13/13 14/14/14
f 14/14/14 13/13/13 15/15/15
f 14/14/14 15/15/15 16/16/16
f 16/16/16 15/15/15 17/17/17
f 16/16/16 17/17/17 18/18/18
f 18/18/18 17/17/17 2/2/2
f 18/18/18 2/2/2 1/1/1
f 19/19/19 3/3/3 2/2/2
f 19/19/19 2/2/2 20/20/20
f 20/20/20 2/2/2 17/17/17
f 20/20/20 17/17/17 21/21/21
f 21/21/21 17/17/17 15/15/15
f 21/21/21 15/15/15 22/22/22
f 22/22/22 15/15/15 13/13/13
f 22/22/22 13/13/13 23/23/23
f 23/23/23 13/13/13 11/11/11
f 23/23/23 11/11/11 24/24/24
f 24/24/24 11/11/11 10/10/10
f 24/24/24 10/10/10 25/25/25
f 26/26/26 7/7/7 5/5/5
f 26/26/26 5/5/5 27/27/27
f 27/27/27 5/5/5 3/3/3
f 27/27/27 3/3/3 19/19/19
f 28/28/28 29/29/29 30/30/30
f 28/28/28 30/30/30 31/31/31
f 31/31/31 30/30/30 32/32/32
f 31/31/31 32/32/32 33/33/33
f 33/33/33 32/32/32 34/34/34
f 33/33/33 34/34/34 35/35/35
f 35/35/35 34/34/34 36/36/36
f 35/35/35 36/36/36 37/37/37
f 38/38/38 39/39/39 40/40/40
f 38/38/38 40/40/40 41/41/41
f 41/41/41 40/40/40 42/42/42
f 41/41/41 42/42/42 43/43/43
f 44/44/44 45/45/45 46/46/46
f 44/44/44 46/46/46 47/47/47
f 47/47/47 46/46/46 29/29/29
f 47/47/47 29/29/29 48/48/48
f 29/29/29 19/19/19 20/20/20
f 29/29/29 20/20/20 30/30/30
f 30/30/30 20/20/20 21/21/21
f 30/30/30 21/21/21 32/32/32
f 32/32/32 21/21/21 22/22/22
f 32/32/32 22/22/22 34/34/34
f 34/34/34 22/22/22 23/23/23
f 34/34/34 23/23/23 36/36/36
f 39/39/39 23/23/23 24/24/24
f 39/39/39 24/24/24 40/40/40
f 40/40/40 24/24/24 25/25/25
f 40/40/40 25/25/25 42/42/42
f 45/45/45 26/26/26 27/27/27
f 45/45/45 27/27/27 46/46/46
f 46/46/46 27/27/27 19/19/19
f 46/46/46 19/19/19 29/29/29
f 18/18/18 49/49/49 50/50/50
f 18/18/18 50/50/50 16/16/16
f 1/1/1 51/51/51 49/49/49
f 1/1/1 49/49/49 18/18/18
f 52/52/52 53/53/53 54/54/54
f 52/52/52 54/54/54 55/55/55
f 56/56/56 57/57/57 53/53/53
f 56/56/56 53/53/53 52/52/52
f 53/53/53 58/58/58 59/59/59
f 53/53/53 59/59/59 54/54/54
f 57/57/57 60/60/60 58/58/58
f 57/57/57 58/58/58 53/53/53
f 61/61/61 62/62/62 63/63/63
f 61/61/61 63/63/63 64/64/64
f 65/65/65 66/66/66 67/67/67
f 65/65/65 67/67/67 68/68/68
f 62/62/62 69/69/69 70/70/70
f 62/62/62 70/70/70 63/63/63
f 66/66/66 71/71/71 72/72/72
f 66/66/66 72/72/72 67/67/67
f 4/4/4 73/73/73 51/51/51
f 4/4/4 51/51/51 1/1/1
f 6/6/6 74/74/74 73/73/73
f 6/6/6 73/73/73 4/4/4
f 75/75/75 76/76/76 12/12/12
f 75/75/75 12/12/12 14/14/14
f 50/50/50 75/75/75 14/14/14
f 50/50/50 14/14/14 16/16/16
f 8/8/8 77/77/77 74/74/74
f 8/8/8 74/74/74 6/6/6
f 76/76/76 78/78/78 9/9/9
f 76/76/76 9/9/9 12/12/12
f 79/79/79 80/80/80 81/81/81
f 79/79/79 81/81/81 82/82/82
f 83/83/83 80/80/80 79/79/79
f 83/83/83 79/79/79 84/84/84
f 85/85/85 52/52/52 55/55/55
f 85/85/85 55/55/55 86/86/86
f 56/56/56 52/52/52 85/85/85
f 56/56/56 85/85/85 87/87/87
f 63/63/63 70/70/70 88/88/88
f 63/63/63 88/88/88 89/89/89
f 64/64/64 63/63/63 89/89/89
f 64/64/64 89/89/89 90/90/90
f 91/91/91 89/89/89 88/88/88
f 91/91/91 88/88/88 92/92/92
f 57/57/57 93/93/93 94/94/94
f 57/57/57 94/94/94 60/60/60
f 93/93/93 57/57/57 56/56/56
f 93/93/93 56/56/56 87/87/87
f 95/95/95 83/83/83 84/84/84
f 95/95/95 84/84/84 91/91/91
f 92/92/92 96/96/96 95/95/95
f 92/92/92 95/95/95 91/91/91
f 97/97/97 71/71/71 66/66/66
f 97/97/97 66/66/66 98/98/98
f 98/98/98 66/66/66 65/65/65
f 98/98/98 65/65/65 99/99/99
f 100/100/100 101/101/101 54/54/54
f 100/100/100 54/54/54 59/59/59
f 102/102/102 103/103/103 104/104/104
f 102/102/102 104/104/104 105/105/105
f 55/55/55 54/54/54 101/101/101
f 55/55/55 101/101/101 86/86/86
f 82/82/82 81/81/81 103/103/103
f 82/82/82 103/103/103 102/102/102
f 105/105/105 97/97/97 98/98/98
f 105/105/105 98/98/98 102/102/102
f 98/98/98 99/99/99 82/82/82
f 98/98/98 82/82/82 102/102/102
f 89/89/89 91/91/91 84/84/84
f 89/89/89 84/84/84 90/90/90
f 93/93/93 95/95/95 96/96/96
f 93/93/93 96/96/96 94/94/94
f 95/95/95 93/93/93 87/87/87
f 95/95/95 87/87/87 83/83/83
f 85/85/85 80/80/80 83/83/83
f 85/85/85 83/83/83 87/87/87
f 80/80/80 85/85/85 86/86/86
f 80/80/80 86/86/86 81/81/81
f 101/101/101 103/103/103 81/81/81
f 101/101/101 81/81/81 86/86/86
f 104/104/104 103/103/103 101/101/101
f 104/104/104 101/101/101 100/100/100
f 106/106/106 107/107/107 108/108/108
f 106/106/106 108/108/108 109/109/109
f 107/107/107 110/110/110 111/111/111
f 107/107/107 111/111/111 108/108/108
f 110/110/110 112/112/112 113/113/113
f 110/110/110 113/113/113 111/111/111
f 114/114/114 115/115/115 116/116/116
f 114/114/114 116/116/116 117/117/117
f 115/115/115 118/118/118 119/119/119
f 115/115/115 119/119/119 116/116/116
f 118/118/118 120/120/120 121/121/121
f 118/118/118 121/121/121 119/119/119
f 120/120/120 122/122/122 123/123/123
f 120/120/120 123/123/123 121/121/121
f 122/122/122 106/106/106 109/109/109
f 122/122/122 109/109/109 123/123/123
f 124/124/124 125/125/125 109/109/109
f 124/124/124 109/109/109 108/108/108
f 125/125/125 126/126/126 123/123/123
f 125/125/125 123/123/123 109/109/109
f 126/126/126 127/127/127 121/121/121
f 126/126/126 121/121/121 123/123/123
f 127/127/127 128/128/128 119/119/119
f 127/127/127 119/119/119 121/121/121
f 128/128/128 129/129/129 116/116/116
f 128/128/128 116/116/116 119/119/119
f 129/129/129 130/130/130 117/117/117
f 129/129/129 117/117/117 116/116/116
f 131/131/131 132/132/132 111/111/111
f 131/131/131 111/111/111 113/113/113
f 132/132/132 124/124/124 108/108/108
f 132/132/132 108/108/108 111/111/111
f 133/133/133 134/134/134 135/135/135
f 133/133/133 135/135/135 136/136/136
f 134/134/134 137/137/137 138/138/138
f 134/134/134 138/138/138 135/135/135
f 137/137/137 139/139/139 140/140/140
f 137/137/137 140/140/140 138/138/138
f 139/139/139 141/141/141 142/142/142
f 139/139/139 142/142/142 140/140/140
f 143/143/143 144/144/144 145/145/145
f 143/143/143 145/145/145 146/146/146
f 144/144/144 147/147/147 148/148/148
f 144/144/144 148/148/148 145/145/145
f 149/149/149 150/150/150 151/151/151
f 149/149/149 151/151/151 152/152/152
f 150/150/150 153/153/153 136/136/136
f 150/150/150 136/136/136 151/151/151
f 136/136/136 135/135/135 125/125/125
f 136/136/136 125/125/125 124/124/124
f 135/135/135 138/138/138 126/126/126
f 135/135/135 126/126/126 125/125/125
f 138/138/138 140/140/140 127/127/127
f 138/138/138 127/127/127 126/126/126
f 140/140/140 142/142/142 128/128/128
f 140/140/140 128/128/128 127/127/127
f 146/146/146 145/145/145 129/129/129
f 146/146/146 129/129/129 128/128/128
f 145/145/145 148/148/148 130/130/130
f 145/145/145 130/130/130 129/129/129
f 152/152/152 151/151/151 132/132/132
f 152/152/152 132/132/132 131/131/131
f 151/151/151 136/136/136 124/124/124
f 151/151/151 124/124/124 132/132/132
f 122/122/122 120/120/120 154/154/154
f 122/122/122 154/154/154 155/155/155
f 106/106/106 122/122/122 155/155/155
f 106/106/106 155/155/155 156/156/156
f 157/157/157 158/158/158 159/159/159
f 157/157/157 159/159/159 160/160/160
f 161/161/161 157/157/157 160/160/160
f 161/161/161 160/160/160 162/162/162
f 160/160/160 159/159/159 163/163/163
f 160/160/160 163/163/163 164/164/164
f 162/162/162 160/160/160 164/164/164
f 162/162/162 164/164/164 165/165/165
f 166/166/166 167/167/167 168/168/168
f 166/166/166 168/168/168 169/169/169
f 170/170/170 171/171/171 172/172/172
f 170/170/170 172/172/172 173/173/173
f 169/169/169 168/168/168 174/174/174
f 169/169/169 174/174/174 175/175/175
f 173/173/173 172/172/172 176/176/176
f 173/173/173 176/176/176 177/177/177
f 107/107/107 106/106/106 156/156/156
f 107/107/107 156/156/156 178/178/178
f 110/110/110 107/107/107 178/178/178
f 110/110/110 178/178/178 179/179/179
f 180/180/180 118/118/118 115/115/115
f 180/180/180 115/115/115 181/181/181
f 154/154/154 120/120/120 118/118/118
f 154/154/154 118/118/118 180/180/180
f 112/112/112 110/110/110 179/179/179
f 112/112/112 179/179/179 182/182/182
f 181/181/181 115/115/115 114/114/114
f 181/181/181 114/114/114 183/183/183
f 184/184/184 185/185/185 186/186/186
f 184/184/184 186/186/186 187/187/187
f 188/188/188 189/189/189 184/184/184
f 188/188/188 184/184/184 187/187/187
f 190/190/190 191/191/191 158/158/158
f 190/190/190 158/158/158 157/157/157
f 161/161/161 192/192/192 190/190/190
f 161/161/161 190/190/190 157/157/157
f 168/168/168 193/193/193 194/194/194
f 168/168/168 194/194/194 174/174/174
f 167/167/167 195/195/195 193/193/193
f 167/167/167 193/193/193 168/168/168
f 196/196/196 197/197/197 194/194/194
f 196/196/196 194/194/194 193/193/193
f 162/162/162 165/165/165 198/198/198
f 162/162/162 198/198/198 199/199/199
f 199/199/199 192/192/192 161/161/161
f 199/199/199 161/161/161 162/162/162
f 200/200/200 196/196/196 189/189/189
f 200/200/200 189/189/189 188/188/188
f 197/197/197 196/196/196 200/200/200
f 197/197/197 200/200/200 201/201/201
f 202/202/202 203/203/203 173/173/173
f 202/202/202 173/173/173 177/177/177
f 203/203/203 204/204/204 170/170/170
f 203/203/203 170/170/170 173/173/173
f 205/205/205 163/163/163 159/159/159
f 205/205/205 159/159/159 206/206/206
f 207/207/207 208/208/208 209/209/209
f 207/207/207 209/209/209 210/210/210
f 158/158/158 191/191/191 206/206/206
f 158/158/158 206/206/206 159/159/159
f 185/185/185 207/207/207 210/210/210
f 185/185/185 210/210/210 186/186/186
f 208/208/208 207/207/207 203/203/203
f 208/208/208 203/203/203 202/202/202
f 203/203/203 207/207/207 185/185/185
f 203/203/203 185/185/185 204/204/204
f 193/193/193 195/195/195 189/189/189
f 193/193/193 189/189/189 196/196/196
f 199/199/199 198/198/198 201/201/201
f 199/199/199 201/201/201 200/200/200
f 200/200/200 188/188/188 192/192/192
f 200/200/200 192/192/192 199/199/199
f 190/190/190 192/192/192 188/188/188
f 190/190/190 188/188/188 187/187/187
f 187/187/187 186/186/186 191/191/191
f 187/187/187 191/191/191 190/190/190
f 206/206/206 191/191/191 186/186/186
f 206/206/206 186/186/186 210/210/210
f 209/209/209 205/205/205 206/206/206
f 209/209/209 206/206/206 210/210/210
f 211/211/211 212/212/212 137/137/137
f 211/211/211 137/137/137 134/134/134
f 212/212/212 213/213/213 139/139/139
f 212/212/212 139/139/139 137/137/137
f 213/213/213 214/214/214 141/141/141
f 213/213/213 141/141/141 139/139/139
f 215/215/215 216/216/216 144/144/144
f 215/215/215 144/144/144 143/143/143
f 216/216/216 217/217/217 147/147/147
f 216/216/216 147/147/147 144/144/144
f 218/218/218 219/219/219 150/150/150
f 218/218/218 150/150/150 149/149/149
f 219/219/219 220/220/220 153/153/153
f 219/219/219 153/153/153 150/150/150
f 221/221/221 211/211/211 134/134/134
f 221/221/221 134/134/134 133/133/133
f 31/31/31 33/33/33 212/212/212
f 31/31/31 212/212/212 211/211/211
f 33/33/33 35/35/35 213/213/213
f 33/33/33 213/213/213 212/212/212
f 35/35/35 37/37/37 214/214/214
f 35/35/35 214/214/214 213/213/213
f 38/38/38 41/41/41 216/216/216
f 38/38/38 216/216/216 215/215/215
f 41/41/41 43/43/43 217/217/217
f 41/41/41 217/217/217 216/216/216
f 44/44/44 47/47/47 219/219/219
f 44/44/44 219/219/219 218/218/218
f 47/47/47 48/48/48 220/220/220
f 47/47/47 220/220/220 219/219/219
f 28/28/28 31/31/31 211/211/211
f 28/28/28 211/211/211 221/221/221
f 222/222/222 223/223/223 224/224/224
f 222/222/222 224/224/224 225/225/225
f 226/226/226 227/227/227 228/228/228
f 226/226/226 228/228/228 229/229/229
f 230/230/230 231/231/231 232/232/232
f 230/230/230 232/232/232 233/233/233
f 234/234/234 230/230/230 233/233/233
f 234/234/234 233/233/233 235/235/235
f 236/236/236 234/234/234 235/235/235
f 236/236/236 235/235/235 237/237/237
f 238/238/238 236/236/236 237/237/237
f 238/238/238 237/237/237 239/239/239
f 240/240/240 238/238/238 239/239/239
f 240/240/240 239/239/239 241/241/241
f 242/242/242 240/240/240 241/241/241
f 242/242/242 241/241/241 243/243/243
f 244/244/244 242/242/242 243/243/243
f 244/244/244 243/243/243 245/245/245
f 246/246/246 244/244/244 245/245/245
f 246/246/246 245/245/245 247/247/247
f 248/248/248 246/246/246 247/247/247
f 248/248/248 247/247/247 249/249/249
f 250/250/250 248/248/248 249/249/249
f 250/250/250 249/249/249 251/251/251
f 252/252/252 253/253/253 254/254/254
f 252/252/252 254/254/254 255/255/255
f 256/256/256 257/257/257 258/258/258
f 256/256/256 258/258/258 259/259/259
f 260/260/260 256/256/256 259/259/259
f 260/260/260 259/259/259 261/261/261
f 262/262/262 260/260/260 261/261/261
f 262/262/262 261/261/261 263/263/263
f 264/264/264 262/262/262 263/263/263
f 264/264/264 263/263/263 265/265/265
f 266/266/266 264/264/264 265/265/265
f 266/266/266 265/265/265 267/267/267
f 268/268/268 266/266/266 267/267/267
f 268/268/268 267/267/267 269/269/269
f 270/270/270 268/268/268 269/269/269
f 270/270/270 269/269/269 271/271/271
f 272/272/272 270/270/270 271/271/271
f 272/272/272 271/271/271 273/273/273
f 274/274/274 272/272/272 273/273/273
f 274/274/274 273/273/273 275/275/275
f 276/276/276 274/274/274 275/275/275
f 276/276/276 275/275/275 277/277/277
f 278/278/278 276/276/276 277/277/277
f 278/278/278 277/277/277 279/279/279
f 280/280/280 281/281/281 282/282/282
f 280/280/280 282/282/282 283/283/283
f 257/257/257 252/252/252 255/255/255
f 257/257/257 255/255/255 258/258/258
f 231/231/231 222/222/222 225/225/225
f 231/231/231 225/225/225 232/232/232
f 284/284/284 285/285/285 286/286/286
f 284/284/284 286/286/286 287/287/287
f 287/287/287 286/286/286 288/288/288
f 287/287/287 288/288/288 289/289/289
f 289/289/289 288/288/288 290/290/290
f 289/289/289 290/290/290 291/291/291
f 291/291/291 290/290/290 292/292/292
f 291/291/291 292/292/292 293/293/293
f 293/293/293 292/292/292 294/294/294
f 293/293/293 294/294/294 295/295/295
f 295/295/295 294/294/294 296/296/296
f 295/295/295 296/296/296 297/297/297
f 297/297/297 296/296/296 298/298/298
f 297/297/297 298/298/298 299/299/299
f 299/299/299 298/298/298 300/300/300
f 299/299/299 300/300/300 301/301/301
f 301/301/301 300/300/300 302/302/302
f 301/301/301 302/302/302 303/303/303
f 303/303/303 302/302/302 304/304/304
f 303/303/303 304/304/304 305/305/305
f 305/305/305 304/304/304 306/306/306
f 305/305/305 306/306/306 307/307/307
f 308/308/308 309/309/309 310/310/310
f 308/308/308 310/310/310 311/311/311
f 311/311/311 310/310/310 312/312/312
f 311/311/311 312/312/312 313/313/313
f 313/313/313 312/312/312 314/314/314
f 313/313/313 314/314/314 315/315/315
f 315/315/315 314/314/314 316/316/316
f 315/315/315 316/316/316 317/317/317
f 317/317/317 316/316/316 318/318/318
f 317/317/317 318/318/318 319/319/319
f 320/320/320 321/321/321 322/322/322
f 320/320/320 322/322/322 323/323/323
f 323/323/323 322/322/322 324/324/324
f 323/323/323 324/324/324 325/325/325
f 325/325/325 324/324/324 326/326/326
f 325/325/325 326/326/326 327/327/327
f 327/327/327 326/326/326 328/328/328
f 327/327/327 328/328/328 329/329/329
f 329/329/329 328/328/328 330/330/330
f 329/329/329 330/330/330 331/331/331
f 331/331/331 330/330/330 332/332/332
f 331/331/331 332/332/332 333/333/333
f 333/333/333 332/332/332 227/227/227
f 333/333/333 227/227/227 226/226/226
f 334/334/334 335/335/335 336/336/336
f 334/334/334 336/336/336 337/337/337
f 338/338/338 339/339/339 340/340/340
f 338/338/338 340/340/340 341/341/341
f 342/342/342 343/343/343 340/340/340
f 342/342/342 340/340/340 339/339/339
f 344/344/344 345/345/345 346/346/346
f 344/344/344 346/346/346 347/347/347
f 348/348/348 338/338/338 341/341/341
f 348/348/348 341/341/341 349/349/349
f 347/347/347 346/346/346 334/334/334
f 347/347/347 334/334/334 337/337/337
f 350/350/350 351/351/351 352/352/352
f 350/350/350 352/352/352 353/353/353
f 354/354/354 355/355/355 356/356/356
f 354/354/354 356/356/356 357/357/357
f 353/353/353 352/352/352 356/356/356
f 353/353/353 356/356/356 355/355/355
f 358/358/358 359/359/359 360/360/360
f 358/358/358 360/360/360 361/361/361
f 359/359/359 345/345/345 344/344/344
f 359/359/359 344/344/344 360/360/360
f 362/362/362 354/354/354 357/357/357
f 362/362/362 357/357/357 363/363/363
f 358/358/358 361/361/361 364/364/364
f 358/358/358 364/364/364 365/365/365
f 366/366/366 365/365/365 367/367/367
f 366/366/366 367/367/367 368/368/368
f 369/369/369 358/358/358 365/365/365
f 369/369/369 365/365/365 366/366/366
f 369/369/369 370/370/370 359/359/359
f 369/369/369 359/359/359 358/358/358
f 359/359/359 370/370/370 371/371/371
f 359/359/359 371/371/371 345/345/345
f 345/345/345 371/371/371 372/372/372
f 345/345/345 372/372/372 346/346/346
f 373/373/373 374/374/374 375/375/375
f 373/373/373 375/375/375 376/376/376
f 377/377/377 373/373/373 376/376/376
f 377/377/377 376/376/376 378/378/378
f 379/379/379 377/377/377 378/378/378
f 379/379/379 378/378/378 380/380/380
f 377/377/377 379/379/379 381/381/381
f 377/377/377 381/381/381 382/382/382
f 373/373/373 377/377/377 382/382/382
f 373/373/373 382/382/382 383/383/383
f 374/374/374 373/373/373 383/383/383
f 374/374/374 383/383/383 384/384/384
f 343/343/343 342/342/342 385/385/385
f 343/343/343 385/385/385 386/386/386
f 342/342/342 339/339/339 387/387/387
f 342/342/342 387/387/387 388/388/388
f 389/389/389 390/390/390 348/348/348
f 389/389/389 348/348/348 391/391/391
f 390/390/390 392/392/392 338/338/338
f 390/390/390 338/338/338 348/348/348
f 392/392/392 387/387/387 339/339/339
f 392/392/392 339/339/339 338/338/338
f 386/386/386 385/385/385 367/367/367
f 386/386/386 367/367/367 393/393/393
f 393/393/393 367/367/367 365/365/365
f 393/393/393 365/365/365 364/364/364
f 394/394/394 385/385/385 342/342/342
f 394/394/394 342/342/342 388/388/388
f 395/395/395 396/396/396 397/397/397
f 395/395/395 397/397/397 398/398/398
f 396/396/396 399/399/399 400/400/400
f 396/396/396 400/400/400 397/397/397
f 399/399/399 401/401/401 402/402/402
f 399/399/399 402/402/402 400/400/400
f 394/394/394 368/368/368 367/367/367
f 394/394/394 367/367/367 385/385/385
f 398/398/398 397/397/397 382/382/382
f 398/398/398 382/382/382 381/381/381
f 397/397/397 400/400/400 383/383/383
f 397/397/397 383/383/383 382/382/382
f 400/400/400 402/402/402 384/384/384
f 400/400/400 384/384/384 383/383/383
f 396/396/396 395/395/395 403/403/403
f 396/396/396 403/403/403 404/404/404
f 399/399/399 396/396/396 404/404/404
f 399/399/399 404/404/404 405/405/405
f 401/401/401 399/399/399 405/405/405
f 401/401/401 405/405/405 406/406/406
f 407/407/407 391/391/391 348/348/348
f 407/407/407 348/348/348 349/349/349
f 346/346/346 372/372/372 408/408/408
f 346/346/346 408/408/408 334/334/334
f 375/375/375 374/374/374 409/409/409
f 375/375/375 409/409/409 410/410/410
f 411/411/411 409/409/409 374/374/374
f 411/411/411 374/374/374 384/384/384
f 389/389/389 391/391/391 412/412/412
f 389/389/389 412/412/412 413/413/413
f 402/402/402 401/401/401 414/414/414
f 402/402/402 414/414/414 415/415/415
f 384/384/384 402/402/402 415/415/415
f 384/384/384 415/415/415 411/411/411
f 414/414/414 401/401/401 406/406/406
f 414/414/414 406/406/406 416/416/416
f 417/417/417 418/418/418 419/419/419
f 417/417/417 419/419/419 420/420/420
f 412/412/412 391/391/391 407/407/407
f 412/412/412 407/407/407 421/421/421
f 334/334/334 408/408/408 422/422/422
f 334/334/334 422/422/422 335/335/335
f 423/423/423 413/413/413 412/412/412
f 423/423/423 412/412/412 424/424/424
f 409/409/409 425/425/425 426/426/426
f 409/409/409 426/426/426 410/410/410
f 411/411/411 427/427/427 425/425/425
f 411/411/411 425/425/425 409/409/409
f 415/415/415 428/428/428 427/427/427
f 415/415/415 427/427/427 411/411/411
f 414/414/414 429/429/429 428/428/428
f 414/414/414 428/428/428 415/415/415
f 430/430/430 429/429/429 414/414/414
f 430/430/430 414/414/414 416/416/416
f 350/350/350 431/431/431 432/432/432
f 350/350/350 432/432/432 351/351/351
f 433/433/433 362/362/362 363/363/363
f 433/433/433 363/363/363 434/434/434
f 419/419/419 418/418/418 435/435/435
f 419/419/419 435/435/435 436/436/436
f 432/432/432 431/431/431 424/424/424
f 432/432/432 424/424/424 437/437/437
f 435/435/435 433/433/433 434/434/434
f 435/435/435 434/434/434 436/436/436
f 437/437/437 424/424/424 412/412/412
f 437/437/437 412/412/412 421/421/421
f 335/335/335 422/422/422 438/438/438
f 335/335/335 438/438/438 417/417/417
f 417/417/417 438/438/438 439/439/439
f 417/417/417 439/439/439 418/418/418
f 418/418/418 439/439/439 440/440/440
f 418/418/418 440/440/440 435/435/435
f 435/435/435 440/440/440 441/441/441
f 435/435/435 441/441/441 433/433/433
f 433/433/433 441/441/441 442/442/442
f 433/433/433 442/442/442 362/362/362
f 443/443/443 444/444/444 445/445/445
f 443/443/443 445/445/445 446/446/446
f 447/447/447 448/448/448 353/353/353
f 447/447/447 353/353/353 355/355/355
f 448/448/448 449/449/449 350/350/350
f 448/448/448 350/350/350 353/353/353
f 449/449/449 450/450/450 431/431/431
f 449/449/449 431/431/431 350/350/350
f 450/450/450 423/423/423 424/424/424
f 450/450/450 424/424/424 431/431/431
f 354/354/354 451/451/451 447/447/447
f 354/354/354 447/447/447 355/355/355
f 452/452/452 453/453/453 454/454/454
f 452/452/452 454/454/454 455/455/455
f 354/354/354 362/362/362 442/442/442
f 354/354/354 442/442/442 451/451/451
f 444/444/444 452/452/452 455/455/455
f 444/444/444 455/455/455 445/445/445
f 425/425/425 456/456/456 457/457/457
f 425/425/425 457/457/457 426/426/426
f 427/427/427 458/458/458 456/456/456
f 427/427/427 456/456/456 425/425/425
f 428/428/428 459/459/459 458/458/458
f 428/428/428 458/458/458 427/427/427
f 429/429/429 460/460/460 459/459/459
f 429/429/429 459/459/459 428/428/428
f 461/461/461 460/460/460 429/429/429
f 461/461/461 429/429/429 430/430/430
f 462/462/462 443/443/443 446/446/446
f 462/462/462 446/446/446 463/463/463
f 453/453/453 464/464/464 465/465/465
f 453/453/453 465/465/465 454/454/454
f 443/443/443 462/462/462 457/457/457
f 443/443/443 457/457/457 456/456/456
f 444/444/444 443/443/443 456/456/456
f 444/444/444 456/456/456 458/458/458
f 452/452/452 444/444/444 458/458/458
f 452/452/452 458/458/458 459/459/459
f 453/453/453 452/452/452 459/459/459
f 453/453/453 459/459/459 460/460/460
f 464/464/464 453/453/453 460/460/460
f 464/464/464 460/460/460 461/461/461
f 438/438/438 457/457/457 462/462/462
f 438/438/438 462/462/462 439/439/439
f 440/440/440 439/439/439 462/462/462
f 440/440/440 462/462/462 463/463/463
f 441/441/441 440/440/440 463/463/463
f 441/441/441 463/463/463 446/446/446
f 442/442/442 441/441/441 446/446/446
f 442/442/442 446/446/446 445/445/445
f 451/451/451 442/442/442 445/445/445
f 451/451/451 445/445/445 455/455/455
f 447/447/447 451/451/451 455/455/455
f 447/447/447 455/455/455 454/454/454
f 454/454/454 465/465/465 448/448/448
f 454/454/454 448/448/448 447/447/447
f 465/465/465 464/464/464 449/449/449
f 465/465/465 449/449/449 448/448/448
f 464/464/464 461/461/461 450/450/450
f 464/464/464 450/450/450 449/449/449
f 461/461/461 430/430/430 423/423/423
f 461/461/461 423/423/423 450/450/450
f 430/430/430 416/416/416 413/413/413
f 430/430/430 413/413/413 423/423/423
f 406/406/406 389/389/389 413/413/413
f 406/406/406 413/413/413 416/416/416
f 406/406/406 405/405/405 390/390/390
f 406/406/406 390/390/390 389/389/389
f 405/405/405 404/404/404 392/392/392
f 405/405/405 392/392/392 390/390/390
f 404/404/404 403/403/403 387/387/387
f 404/404/404 387/387/387 392/392/392
f 388/388/388 387/387/387 403/403/403
f 388/388/388 403/403/403 395/395/395
f 398/398/398 394/394/394 388/388/388
f 398/398/398 388/388/388 395/395/395
f 398/398/398 381/381/381 368/368/368
f 398/398/398 368/368/368 394/394/394
f 379/379/379 366/366/366 368/368/368
f 379/379/379 368/368/368 381/381/381
f 380/380/380 369/369/369 366/366/366
f 380/380/380 366/366/366 379/379/379
f 380/380/380 378/378/378 370/370/370
f 380/380/380 370/370/370 369/369/369
f 371/371/371 370/370/370 378/378/378
f 371/371/371 378/378/378 376/376/376
f 372/372/372 371/371/371 376/376/376
f 372/372/372 376/376/376 375/375/375
f 408/408/408 372/372/372 375/375/375
f 408/408/408 375/375/375 410/410/410
f 422/422/422 408/408/408 410/410/410
f 422/422/422 410/410/410 426/426/426
f 438/438/438 422/422/422 426/426/426
f 438/438/438 426/426/426 457/457/457
f 466/466/466 407/407/407 349/349/349
f 466/466/466 349/349/349 467/467/467
f 407/407/407 466/466/466 468/468/468
f 407/407/407 468/468/468 421/421/421
f 467/467/467 349/349/349 341/341/341
f 467/467/467 341/341/341 469/469/469
f 469/469/469 341/341/341 340/340/340
f 469/469/469 340/340/340 470/470/470
f 470/470/470 340/340/340 343/343/343
f 470/470/470 343/343/343 471/471/471
f 471/471/471 343/343/343 386/386/386
f 471/471/471 386/386/386 472/472/472
f 472/472/472 386/386/386 393/393/393
f 472/472/472 393/393/393 473/473/473
f 473/473/473 393/393/393 364/364/364
f 473/473/473 364/364/364 474/474/474
f 474/474/474 364/364/364 361/361/361
f 474/474/474 361/361/361 475/475/475
f 475/475/475 361/361/361 360/360/360
f 475/475/475 360/360/360 476/476/476
f 476/476/476 360/360/360 344/344/344
f 476/476/476 344/344/344 477/477/477
f 477/477/477 344/344/344 347/347/347
f 477/477/477 347/347/347 478/478/478
f 478/478/478 347/347/347 337/337/337
f 478/478/478 337/337/337 479/479/479
f 479/479/479 337/337/337 336/336/336
f 479/479/479 336/336/336 480/480/480
f 480/480/480 336/336/336 420/420/420
f 480/480/480 420/420/420 481/481/481
f 481/481/481 420/420/420 419/419/419
f 481/481/481 419/419/419 482/482/482
f 482/482/482 419/419/419 436/436/436
f 482/482/482 436/436/436 483/483/483
f 483/483/483 436/436/436 434/434/434
f 483/483/483 434/434/434 484/484/484
f 484/484/484 434/434/434 363/363/363
f 484/484/484 363/363/363 485/485/485
f 485/485/485 363/363/363 357/357/357
f 485/485/485 357/357/357 486/486/486
f 486/486/486 357/357/357 356/356/356
f 486/486/486 356/356/356 487/487/487
f 487/487/487 356/356/356 352/352/352
f 487/487/487 352/352/352 488/488/488
f 488/488/488 352/352/352 351/351/351
f 488/488/488 351/351/351 489/489/489
f 489/489/489 351/351/351 432/432/432
f 489/489/489 432/432/432 490/490/490
f 490/490/490 432/432/432 437/437/437
f 490/490/490 437/437/437 491/491/491
f 491/491/491 437/437/437 421/421/421
f 491/491/491 421/421/421 468/468/468
f 492/492/492 493/493/493 494/494/494
f 492/492/492 494/494/494 495/495/495
f 492/492/492 495/495/495 496/496/496
f 492/492/492 496/496/496 497/497/497
f 492/492/492 497/497/497 498/498/498
f 492/492/492 498/498/498 499/499/499
f 492/492/492 499/499/499 500/500/500
f 492/492/492 500/500/500 501/501/501
f 492/492/492 502/502/502 503/503/503
f 492/492/492 503/503/503 504/504/504
f 492/492/492 504/504/504 505/505/505
f 492/492/492 505/505/505 506/506/506
f 492/492/492 506/506/506 507/507/507
f 492/492/492 507/507/507 508/508/508
f 492/492/492 508/508/508 509/509/509
f 492/492/492 509/509/509 510/510/510
f 492/492/492 510/510/510 511/511/511
f 492/492/492 511/511/511 512/512/512
f 492/492/492 512/512/512 513/513/513
f 492/492/492 513/513/513 514/514/514
f 492/492/492 501/501/501 515/515/515
f 492/492/492 515/515/515 502/502/502
f 492/492/492 514/514/514 516/516/516
f 492/492/492 516/516/516 517/517/517
f 492/492/492 517/517/517 518/518/518
f 492/492/492 518/518/518 493/493/493
f 519/519/519 520/520/520 521/521/521
f 519/519/519 521/521/521 522/522/522
f 522/522/522 521/521/521 523/523/523
f 522/522/522 523/523/523 524/524/524
f 525/525/525 526/526/526 527/527/527
f 525/525/525 527/527/527 528/528/528
f 528/528/528 527/527/527 529/529/529
f 528/528/528 529/529/529 530/530/530
f 530/530/530 529/529/529 531/531/531
f 530/530/530 531/531/531 532/532/532
f 532/532/532 531/531/531 520/520/520
f 532/532/532 520/520/520 519/519/519
f 533/533/533 534/534/534 535/535/535
f 533/533/533 535/535/535 536/536/536
f 536/536/536 535/535/535 537/537/537
f 536/536/536 537/537/537 538/538/538
f 538/538/538 537/537/537 539/539/539
f 538/538/538 539/539/539 540/540/540
f 540/540/540 539/539/539 526/526/526
f 540/540/540 526/526/526 525/525/525
f 541/541/541 542/542/542 282/282/282
f 541/541/541 282/282/282 281/281/281
f 543/543/543 544/544/544 534/534/534
f 543/543/543 534/534/534 533/533/533
f 545/545/545 546/546/546 547/547/547
f 545/545/545 547/547/547 548/548/548
f 548/548/548 547/547/547 549/549/549
f 548/548/548 549/549/549 550/550/550
f 550/550/550 549/549/549 551/551/551
f 550/550/550 551/551/551 552/552/552
f 552/552/552 551/551/551 542/542/542
f 552/552/552 542/542/542 541/541/541
f 553/553/553 554/554/554 555/555/555
f 553/553/553 555/555/555 556/556/556
f 556/556/556 555/555/555 557/557/557
f 556/556/556 557/557/557 558/558/558
f 558/558/558 557/557/557 559/559/559
f 558/558/558 559/559/559 560/560/560
f 560/560/560 559/559/559 561/561/561
f 560/560/560 561/561/561 562/562/562
f 562/562/562 561/561/561 563/563/563
f 562/562/562 563/563/563 564/564/564
f 564/564/564 563/563/563 546/546/546
f 564/564/564 546/546/546 545/545/545
f 565/565/565 566/566/566 567/567/567
f 565/565/565 567/567/567 568/568/568
f 568/568/568 567/567/567 554/554/554
f 568/568/568 554/554/554 553/553/553
f 319/319/319 318/318/318 321/321/321
f 319/319/319 321/321/321 320/320/320
f 229/229/229 228/228/228 285/285/285
f 229/229/229 285/285/285 284/284/284
f 280/280/280 283/283/283 544/544/544
f 280/280/280 544/544/544 543/543/543
f 335/335/335 417/417/417 420/420/420
f 335/335/335 420/420/420 336/336/336
f 224/224/224 279/279/279 569/569/569
f 224/224/224 569/569/569 570/570/570
f 570/570/570 569/569/569 571/571/571
f 570/570/570 571/571/571 572/572/572
f 225/225/225 224/224/224 570/570/570
f 225/225/225 570/570/570 573/573/573
f 573/573/573 570/570/570 572/572/572
f 573/573/573 572/572/572 574/574/574
f 232/232/232 225/225/225 573/573/573
f 232/232/232 573/573/573 575/575/575
f 575/575/575 573/573/573 574/574/574
f 575/575/575 574/574/574 576/576/576
f 233/233/233 232/232/232 575/575/575
f 233/233/233 575/575/575 577/577/577
f 577/577/577 575/575/575 576/576/576
f 577/577/577 576/576/576 578/578/578
f 235/235/235 233/233/233 577/577/577
f 235/235/235 577/577/577 579/579/579
f 579/579/579 577/577/577 578/578/578
f 579/579/579 578/578/578 580/580/580
f 237/237/237 235/235/235 579/579/579
f 237/237/237 579/579/579 581/581/581
f 581/581/581 579/579/579 580/580/580
f 581/581/581 580/580/580 582/582/582
f 239/239/239 237/237/237 581/581/581
f 239/239/239 581/581/581 583/583/583
f 583/583/583 581/581/581 582/582/582
f 583/583/583 582/582/582 584/584/584
f 241/241/241 239/239/239 583/583/583
f 241/241/241 583/583/583 585/585/585
f 585/585/585 583/583/583 584/584/584
f 585/585/585 584/584/584 586/586/586
f 243/243/243 241/241/241 585/585/585
f 243/243/243 585/585/585 587/587/587
f 587/587/587 585/585/585 586/586/586
f 587/587/587 586/586/586 588/588/588
f 245/245/245 243/243/243 587/587/587
f 245/245/245 587/587/587 589/589/589
f 589/589/589 587/587/587 588/588/588
f 589/589/589 588/588/588 590/590/590
f 247/247/247 245/245/245 589/589/589
f 247/247/247 589/589/589 591/591/591
f 591/591/591 589/589/589 590/590/590
f 591/591/591 590/590/590 592/592/592
f 249/249/249 247/247/247 591/591/591
f 249/249/249 591/591/591 593/593/593
f 593/593/593 591/591/591 592/592/592
f 593/593/593 592/592/592 594/594/594
f 251/251/251 249/249/249 593/593/593
f 251/251/251 593/593/593 595/595/595
f 595/595/595 593/593/593 594/594/594
f 595/595/595 594/594/594 596/596/596
f 255/255/255 254/254/254 597/597/597
f 255/255/255 597/597/597 598/598/598
f 598/598/598 597/597/597 599/599/599
f 598/598/598 599/599/599 600/600/600
f 258/258/258 255/255/255 598/598/598
f 258/258/258 598/598/598 601/601/601
f 601/601/601 598/598/598 600/600/600
f 601/601/601 600/600/600 602/602/602
f 259/259/259 258/258/258 601/601/601
f 259/259/259 601/601/601 603/603/603
f 603/603/603 601/601/601 602/602/602
f 603/603/603 602/602/602 604/604/604
f 261/261/261 259/259/259 603/603/603
f 261/261/261 603/603/603 605/605/605
f 605/605/605 603/603/603 604/604/604
f 605/605/605 604/604/604 606/606/606
f 263/263/263 261/261/261 605/605/605
f 263/263/263 605/605/605 607/607/607
f 607/607/607 605/605/605 606/606/606
f 607/607/607 606/606/606 608/608/608
f 265/265/265 263/263/263 607/607/607
f 265/265/265 607/607/607 609/609/609
f 609/609/609 607/607/607 608/608/608
f 609/609/609 608/608/608 610/610/610
f 267/267/267 265/265/265 609/609/609
f 267/267/267 609/609/609 611/611/611
f 611/611/611 609/609/609 610/610/610
f 611/611/611 610/610/610 612/612/612
f 269/269/269 267/267/267 611/611/611
f 269/269/269 611/611/611 613/613/613
f 613/613/613 611/611/611 612/612/612
f 613/613/613 612/612/612 614/614/614
f 271/271/271 269/269/269 613/613/613
f 271/271/271 613/613/613 615/615/615
f 615/615/615 613/613/613 614/614/614
f 615/615/615 614/614/614 616/616/616
f 273/273/273 271/271/271 615/615/615
f 273/273/273 615/615/615 617/617/617
f 617/617/617 615/615/615 616/616/616
f 617/617/617 616/616/616 618/618/618
f 275/275/275 273/273/273 617/617/617
f 275/275/275 617/617/617 619/619/619
f 619/619/619 617/617/617 618/618/618
f 619/619/619 618/618/618 620/620/620
f 277/277/277 275/275/275 619/619/619
f 277/277/277 619/619/619 621/621/621
f 621/621/621 619/619/619 620/620/620
f 621/621/621 620/620/620 622/622/622
f 279/279/279 277/277/277 621/621/621
f 279/279/279 621/621/621 569/569/569
f 569/569/569 621/621/621 622/622/622
f 569/569/569 622/622/622 571/571/571
f 223/223/223 222/222/222 623/623/623
f 223/223/223 623/623/623 624/624/624
f 624/624/624 623/623/623 625/625/625
f 624/624/624 625/625/625 626/626/626
f 222/222/222 231/231/231 627/627/627
f 222/222/222 627/627/627 623/623/623
f 623/623/623 627/627/627 628/628/628
f 623/623/623 628/628/628 625/625/625
f 231/231/231 230/230/230 629/629/629
f 231/231/231 629/629/629 627/627/627
f 627/627/627 629/629/629 630/630/630
f 627/627/627 630/630/630 628/628/628
f 230/230/230 234/234/234 631/631/631
f 230/230/230 631/631/631 629/629/629
f 629/629/629 631/631/631 632/632/632
f 629/629/629 632/632/632 630/630/630
f 234/234/234 236/236/236 633/633/633
f 234/234/234 633/633/633 631/631/631
f 631/631/631 633/633/633 634/634/634
f 631/631/631 634/634/634 632/632/632
f 236/236/236 238/238/238 635/635/635
f 236/236/236 635/635/635 633/633/633
f 633/633/633 635/635/635 636/636/636
f 633/633/633 636/636/636 634/634/634
f 238/238/238 240/240/240 637/637/637
f 238/238/238 637/637/637 635/635/635
f 635/635/635 637/637/637 638/638/638
f 635/635/635 638/638/638 636/636/636
f 240/240/240 242/242/242 639/639/639
f 240/240/240 639/639/639 637/637/637
f 637/637/637 639/639/639 640/640/640
f 637/637/637 640/640/640 638/638/638
f 242/242/242 244/244/244 641/641/641
f 242/242/242 641/641/641 639/639/639
f 639/639/639 641/641/641 642/642/642
f 639/639/639 642/642/642 640/640/640
f 244/244/244 246/246/246 643/643/643
f 244/244/244 643/643/643 641/641/641
f 641/641/641 643/643/643 644/644/644
f 641/641/641 644/644/644 642/642/642
f 246/246/246 248/248/248 645/645/645
f 246/246/246 645/645/645 643/643/643
f 643/643/643 645/645/645 646/646/646
f 643/643/643 646/646/646 644/644/644
f 248/248/248 250/250/250 647/647/647
f 248/248/248 647/647/647 645/645/645
f 645/645/645 647/647/647 648/648/648
f 645/645/645 648/648/648 646/646/646
f 253/253/253 252/252/252 649/649/649
f 253/253/253 649/649/649 650/650/650
f 650/650/650 649/649/649 651/651/651
f 650/650/650 651/651/651 652/652/652
f 252/252/252 257/257/257 653/653/653
f 252/252/252 653/653/653 649/649/649
f 649/649/649 653/653/653 654/654/654
f 649/649/649 654/654/654 651/651/651
f 257/257/257 256/256/256 655/655/655
f 257/257/257 655/655/655 653/653/653
f 653/653/653 655/655/655 656/656/656
f 653/653/653 656/656/656 654/654/654
f 256/256/256 260/260/260 657/657/657
f 256/256/256 657/657/657 655/655/655
f 655/655/655 657/657/657 658/658/658
f 655/655/655 658/658/658 656/656/656
f 260/260/260 262/262/262 659/659/659
f 260/260/260 659/659/659 657/657/657
f 657/657/657 659/659/659 660/660/660
f 657/657/657 660/660/660 658/658/658
f 262/262/262 264/264/264 661/661/661
f 262/262/262 661/661/661 659/659/659
f 659/659/659 661/661/661 662/662/662
f 659/659/659 662/662/662 660/660/660
f 264/264/264 266/266/266 663/663/663
f 264/264/264 663/663/663 661/661/661
f 661/661/661 663/663/663 664/664/664
f 661/661/661 664/664/664 662/662/662
f 266/266/266 268/268/268 665/665/665
f 266/266/266 665/665/665 663/663/663
f 663/663/663 665/665/665 666/666/666
f 663/663/663 666/666/666 664/664/664
f 268/268/268 270/270/270 667/667/667
f 268/268/268 667/667/667 665/665/665
f 665/665/665 667/667/667 668/668/668
f 665/665/665 668/668/668 666/666/666
f 270/270/270 272/272/272 669/669/669
f 270/270/270 669/669/669 667/667/667
f 667/667/667 669/669/669 670/670/670
f 667/667/667 670/670/670 668/668/668
f 272/272/272 274/274/274 671/671/671
f 272/272/272 671/671/671 669/669/669
f 669/669/669 671/671/671 672/672/672
f 669/669/669 672/672/672 670/670/670
f 274/274/274 276/276/276 673/673/673
f 274/274/274 673/673/673 671/671/671
f 671/671/671 673/673/673 674/674/674
f 671/671/671 674/674/674 672/672/672
f 276/276/276 278/278/278 675/675/675
f 276/276/276 675/675/675 673/673/673
f 673/673/673 675/675/675 676/676/676
f 673/673/673 676/676/676 674/674/674
f 278/278/278 223/223/223 624/624/624
f 278/278/278 624/624/624 675/675/675
f 675/675/675 624/624/624 626/626/626
f 675/675/675 626/626/626 676/676/676
f 223/223/223 278/278/278 279/279/279
f 223/223/223 279/279/279 224/224/224
