# VPXTOOL table OBJ file
# VPXTOOL OBJ file
# numVerts: 538 numFaces: 684
o psw_ramp4
v -2.9198704 -7.0458546 -40.696617
v -1.6266791 -7.3330245 -41.63409
v -1.8100972 -7.3330245 -40.696617
v 3.0977306 -7.0458546 -43.225567
v 1.5303382 -7.3330245 -42.960632
v 1.9546087 -7.0458546 -44
v 3.8610468 -7.0458546 -39.32747
v 2.3140342 -7.3330245 -38.964336
v 2.8364985 -7.3330245 -39.759148
v 1.9546087 -7.0458546 -37.391384
v 0.60583603 -7.3330245 -38.245483
v 1.5303382 -7.3330245 -38.432606
v 4.1296897 -7.0458546 -40.696617
v 2.8364985 -7.3330245 -41.63409
v 3.8610468 -7.0458546 -42.06392
v -1.887911 -7.0458546 -43.225567
v -0.31866604 -7.3330245 -42.960632
v -1.1023622 -7.3330245 -42.4289
v 0.60583603 -7.3330245 -43.1459
v 0.60583603 -7.0458546 -44.272346
v -1.887911 -7.0458546 -38.16767
v -0.31866604 -7.3330245 -38.432606
v -0.74293655 -7.0458546 -37.391384
v -2.6512272 -7.0458546 -39.32747
v -1.1023622 -7.3330245 -38.964336
v 2.3140342 -7.3330245 -42.4289
v 3.0199165 -7.3330245 -40.696617
v -0.74293655 -7.0458546 -44
v -1.6266791 -7.3330245 -39.759148
v 3.0977306 -7.0458546 -38.16767
v -2.6512272 -7.0458546 -42.06392
v 0.60583603 -7.0458546 -37.12089
v 0.60583603 -7.5071797 -40.696617
v 12.757758 -7.1607227 -24.405743
v 12.891153 -6.9254284 -24.446503
v 12.718851 -6.9254284 -24.276054
v 12.731821 -7.257063 -24.659565
v 12.86892 -7.116257 -24.487263
v 12.757758 -7.1607227 -24.405743
v 12.961556 -6.9254284 -24.679945
v 12.86892 -7.116257 -24.487263
v 12.893006 -7.1607227 -24.666977
v 12.891153 -6.9254284 -56.94488
v 12.757758 -7.15887 -56.965263
v 12.718851 -6.9254284 -57.11533
v 12.961556 -6.9254284 -56.71329
v 12.86892 -7.116257 -56.8893
v 12.735526 -7.257063 -56.66327
v 12.86892 -7.116257 -56.8893
v 12.894858 -7.1607227 -56.68365
v 12.629921 -3.2978232 -56.7874
v 12.846688 -3.4367764 -56.918945
v 12.705882 -3.3941638 -57.01158
v 12.961556 -3.6294582 -56.71329
v 12.846688 -3.4367764 -56.918945
v 12.865215 -3.3941638 -56.750347
v 12.718851 -3.6294582 -57.11533
v 12.846688 -3.4367764 -56.918945
v 12.891153 -3.6294582 -56.94488
v -11.751738 -3.6294582 -56.71329
v -11.636869 -3.4367764 -56.918945
v -11.6794815 -3.6294582 -56.94488
v -11.418249 -3.2978232 -56.7874
v -11.636869 -3.4367764 -56.918945
v -11.653543 -3.3941638 -56.750347
v -11.507179 -3.6294582 -57.11533
v -11.636869 -3.4367764 -56.918945
v -11.496063 -3.3941638 -57.01158
v -11.751738 -6.9254284 -56.71329
v -11.6591015 -7.116257 -56.8893
v -11.683187 -7.1607227 -56.68365
v -11.547939 -7.15887 -56.965263
v -11.6794815 -6.9254284 -56.94488
v -11.507179 -6.9254284 -57.11533
v -11.523853 -7.257063 -56.66327
v -11.6591015 -7.116257 -56.8893
v -11.547939 -7.15887 -56.965263
v -11.520148 -7.257063 -24.659565
v -11.6572485 -7.116257 -24.487263
v -11.683187 -7.1607227 -24.666977
v -11.6794815 -6.9254284 -24.446503
v -11.546086 -7.1607227 -24.405743
v -11.507179 -6.9254284 -24.276054
v -11.751738 -6.9254284 -24.679945
v -11.6572485 -7.116257 -24.487263
v -11.418249 -3.2978232 -24.605835
v -11.636869 -3.4367764 -24.474293
v -11.496063 -3.3941638 -24.379807
v -11.751738 -3.6294582 -24.679945
v -11.636869 -3.4367764 -24.474293
v -11.653543 -3.3941638 -24.64289
v -11.507179 -3.6294582 -24.276054
v -11.6794815 -3.6294582 -24.446503
v 12.629921 -3.2978232 -24.605835
v 12.846688 -3.4367764 -24.474293
v 12.865215 -3.3941638 -24.64289
v 12.718851 -3.6294582 -24.276054
v 12.846688 -3.4367764 -24.474293
v 12.705882 -3.3941638 -24.379807
v 12.961556 -3.6294582 -24.679945
v 12.846688 -3.4367764 -24.474293
v 12.891153 -3.6294582 -24.446503
v -8.894858 -2.7290413 -47.56832
v -8.754052 -2.538212 -47.761
v -8.796665 -2.7290413 -47.80361
v -8.561371 -2.397406 -47.56832
v -8.754052 -2.538212 -47.761
v -8.796665 -2.4937472 -47.56832
v -8.561371 -2.7290413 -47.901806
v -8.754052 -2.538212 -47.761
v -8.561371 -2.4937472 -47.80361
v 9.773043 -3.2978232 -47.56832
v 9.963872 -3.1570172 -47.761
v 10.008338 -3.1996295 -47.56832
v 9.773043 -2.9643352 -47.901806
v 9.963872 -3.1570172 -47.761
v 9.773043 -3.1996295 -47.80361
v 10.104678 -2.9643352 -47.56832
v 9.963872 -3.1570172 -47.761
v 10.008338 -2.9643352 -47.80361
v -8.561371 -2.9643352 -47.901806
v -8.754052 -3.1570172 -47.761
v -8.796665 -2.9643352 -47.80361
v -8.561371 -3.2978232 -47.56832
v -8.754052 -3.1570172 -47.761
v -8.561371 -3.1996295 -47.80361
v -8.894858 -2.9643352 -47.56832
v -8.754052 -3.1570172 -47.761
v -8.796665 -3.1996295 -47.56832
v 9.773043 -2.397406 -47.56832
v 9.963872 -2.538212 -47.761
v 9.773043 -2.4937472 -47.80361
v 10.104678 -2.7290413 -47.56832
v 9.963872 -2.538212 -47.761
v 10.008338 -2.4937472 -47.56832
v 9.773043 -2.7290413 -47.901806
v 9.963872 -2.538212 -47.761
v 10.008338 -2.7290413 -47.80361
v 10.247336 0.4557666 -62.695694
v 10.440019 0.26308477 -62.55489
v 10.247336 0.22047244 -62.59935
v 10.580825 0.4557666 -62.36406
v 10.440019 0.26308477 -62.55489
v 10.482631 0.4557666 -62.59935
v 10.247336 0.12227883 -62.36406
v 10.440019 0.26308477 -62.55489
v 10.482631 0.22047244 -62.36406
v 10.247336 0.4557666 -19.896248
v 10.440019 0.26308477 -20.037054
v 10.482631 0.4557666 -19.994442
v 10.247336 0.12227883 -20.229736
v 10.440019 0.26308477 -20.037054
v 10.247336 0.22047244 -19.994442
v 10.580825 0.4557666 -20.229736
v 10.440019 0.26308477 -20.037054
v 10.482631 0.22047244 -20.229736
v -9.037518 0.4557666 -62.695694
v -9.228347 0.26308477 -62.55489
v -9.272812 0.4557666 -62.59935
v -9.037518 0.12227883 -62.36406
v -9.228347 0.26308477 -62.55489
v -9.037518 0.22047244 -62.59935
v -9.369153 0.4557666 -62.36406
v -9.228347 0.26308477 -62.55489
v -9.272812 0.22047244 -62.36406
v -9.369153 0.4557666 -20.229736
v -9.228347 0.26308477 -20.037054
v -9.272812 0.4557666 -19.994442
v -9.037518 0.12227883 -20.229736
v -9.228347 0.26308477 -20.037054
v -9.272812 0.22047244 -20.229736
v -9.037518 0.4557666 -19.896248
v -9.228347 0.26308477 -20.037054
v -9.037518 0.22047244 -19.994442
v -9.511811 7.321908 -62.764244
v -9.704493 7.182955 -62.955074
v -9.747105 7.2255673 -62.764244
v -9.511811 6.9902735 -63.09588
v -9.704493 7.182955 -62.955074
v -9.511811 7.2255673 -62.999535
v -9.845299 6.9902735 -62.764244
v -9.704493 7.182955 -62.955074
v -9.747105 6.9902735 -62.999535
v -9.511811 5.8564153 -63.09588
v -9.704493 5.663733 -62.955074
v -9.747105 5.8564153 -62.999535
v -9.511811 5.5229273 -62.764244
v -9.704493 5.663733 -62.955074
v -9.511811 5.621121 -62.999535
v -9.845299 5.8564153 -62.764244
v -9.704493 5.663733 -62.955074
v -9.747105 5.621121 -62.764244
v 11.055119 6.9902735 -62.764244
v 10.914312 7.182955 -62.955074
v 10.958777 7.2255673 -62.764244
v 10.723483 6.9902735 -63.09588
v 10.914312 7.182955 -62.955074
v 10.958777 6.9902735 -62.999535
v 10.723483 7.321908 -62.764244
v 10.914312 7.182955 -62.955074
v 10.723483 7.2255673 -62.999535
v 10.723483 5.8564153 -63.09588
v 10.914312 5.663733 -62.955074
v 10.723483 5.621121 -62.999535
v 11.055119 5.8564153 -62.764244
v 10.914312 5.663733 -62.955074
v 10.958777 5.8564153 -62.999535
v 10.723483 5.5229273 -62.764244
v 10.914312 5.663733 -62.955074
v 10.958777 5.621121 -62.764244
v 2.1584067 -6.72163 -44.49838
v 3.6516907 -6.6808705 -43.786938
v 3.4738305 -6.72163 -43.607227
v 2.2547474 -6.679018 -44.735527
v 3.803613 -6.819824 -43.940712
v 12.718851 -6.9254284 -57.11533
v 9.402502 -7.1607227 -58.725338
v 9.509958 -6.9254284 -58.799442
v 9.402502 -7.1607227 -58.725338
v 9.143122 -7.257063 -58.549328
v 9.389532 -3.2978232 -58.486332
v 9.474756 -3.3941638 -58.706806
v 9.474756 -3.3941638 -58.706806
v 9.509958 -3.6294582 -58.799442
v 5.144974 -3.6294582 -59.912926
v 5.1283 -3.3941638 -59.81658
v 0.60583603 -3.6294582 -60.29088
v 5.1283 -3.3941638 -59.81658
v 0.60583603 -3.3941638 -60.192684
v 5.089393 -3.2978232 -59.584995
v -8.179712 -7.257063 -22.906902
v -3.9184809 -7.1607227 -21.574804
v -8.263084 -7.1607227 -22.684576
v -8.263084 -7.1607227 -22.684576
v -3.9333026 -6.9254284 -21.478462
v -8.298286 -6.9254284 -22.593794
v -3.9333026 -3.6294582 -59.912926
v -8.263084 -3.3941638 -58.706806
v -3.9184809 -3.3941638 -59.81658
v -3.9184809 -3.3941638 -59.81658
v -8.179712 -3.2978232 -58.486332
v -3.8777213 -3.2978232 -59.584995
v -11.6794815 -3.6294582 -56.94488
v -11.6794815 -6.9254284 -56.94488
v 5.144974 -3.6294582 -21.478462
v 9.474756 -3.3941638 -22.684576
v 5.1283 -3.3941638 -21.574804
v 5.1283 -3.3941638 -21.574804
v 9.389532 -3.2978232 -22.906902
v 5.089393 -3.2978232 -21.808245
v -2.2621584 -6.72163 -43.607227
v -3.3756368 -6.6808705 -42.369617
v -2.4418714 -6.6808705 -43.786938
v -3.572024 -6.819824 -42.452988
v -2.5919406 -6.819824 -43.940712
v 9.773043 -3.1996295 -47.80361
v -8.561371 -3.1996295 -47.80361
v 5.089393 -7.257063 -59.584995
v 0.60583603 -7.1607227 -60.192684
v 5.1283 -7.1607227 -59.81658
v 5.1283 -7.1607227 -59.81658
v 0.60583603 -6.9254284 -60.29088
v 5.144974 -6.9254284 -59.912926
v -3.9166281 -6.819824 -40.696617
v -3.3756368 -6.6808705 -39.02362
v -3.572024 -6.819824 -38.94025
v -3.7035666 -6.6808705 -40.696617
v -3.1421955 -6.72163 -39.121815
v -2.2621584 -6.72163 -37.78601
v -2.4418714 -6.6808705 -37.604446
v 0.60583603 -6.72163 -36.5799
v -1.0430754 -6.679018 -36.65771
v -0.9467346 -6.72163 -36.893005
v 0.60583603 -6.679018 -36.324223
v -1.1245948 -6.819824 -36.45762
v 2.1584067 -6.72163 -36.893005
v 3.6516907 -6.6808705 -37.604446
v 2.2547474 -6.679018 -36.65771
v 3.803613 -6.819824 -37.452522
v 2.336267 -6.819824 -36.45762
v 4.3538675 -6.72163 -39.121815
v 4.9152384 -6.6808705 -40.696617
v 4.587309 -6.6808705 -39.02362
v 5.1283 -6.819824 -40.696617
v 4.783696 -6.819824 -38.94025
v 4.587309 -6.6808705 -42.369617
v 4.3538675 -6.72163 -42.271423
v 4.783696 -6.819824 -42.452988
v 0.60583603 -6.72163 -44.81149
v 0.60583603 -6.679018 -45.069016
v 2.336267 -6.819824 -44.93562
v -0.9467346 -6.72163 -44.49838
v -1.0430754 -6.679018 -44.735527
v -1.1245948 -6.819824 -44.93562
v -3.1421955 -6.72163 -42.271423
v -3.451598 -6.72163 -40.696617
v -9.747105 7.2255673 61.617413
v -9.511811 7.321908 61.617413
v -9.747105 7.2255673 61.617413
v -9.845299 6.9902735 61.617413
v 9.389532 -7.257063 -22.906902
v 5.1283 -7.1607227 -21.574804
v 5.089393 -7.257063 -21.808245
v 9.474756 -7.1607227 -22.684576
v 5.144974 -6.9254284 -21.478462
v 5.1283 -7.1607227 -21.574804
v 10.482631 5.5229273 -19.994442
v 10.247336 5.5229273 -19.896248
v 10.482631 0.4557666 -19.994442
v 10.580825 5.5229273 -20.229736
v 10.482631 5.5229273 -19.994442
v 0.60583603 -6.819824 -45.283928
v 12.718851 -3.6294582 -57.11533
v 0.60583603 -3.3941638 -60.192684
v 0.60583603 -3.2978232 -59.955536
v -7.9333024 -7.257063 -58.549328
v -3.9184809 -7.1607227 -59.81658
v -3.8777213 -7.257063 -59.584995
v -8.190829 -7.1607227 -58.725338
v -3.9333026 -6.9254284 -59.912926
v -3.9184809 -7.1607227 -59.81658
v -8.298286 -3.6294582 -58.799442
v -11.496063 -3.3941638 -57.01158
v -8.263084 -3.3941638 -58.706806
v 9.773043 -2.397406 61.622974
v 10.008338 -2.4937472 -47.56832
v 10.008338 -2.4937472 61.622974
v -2.5919406 -6.819824 -37.452522
v 0.60583603 -6.819824 -36.107456
v 3.4738305 -6.72163 -37.78601
v -8.190829 -7.1607227 -58.725338
v -8.298286 -6.9254284 -58.799442
v -9.272812 5.5229273 -19.994442
v -9.369153 5.5229273 -20.229736
v -9.272812 5.5229273 -19.994442
v -9.037518 5.5229273 -19.896248
v 10.958777 7.2255673 61.617413
v 11.055119 6.9902735 61.617413
v 10.958777 7.2255673 -62.764244
v 10.723483 7.321908 61.617413
v 10.958777 7.2255673 61.617413
v 9.509958 -3.6294582 -22.593794
v 12.705882 -3.3941638 -24.379807
v 9.474756 -3.3941638 -22.684576
v 0.60583603 -7.1607227 -21.200556
v 0.60583603 -7.257063 -21.43585
v 0.60583603 -6.9254284 -21.102362
v 0.60583603 -7.1607227 -21.200556
v 4.6614175 -6.72163 -40.696617
v -11.507179 -6.9254284 -24.276054
v -11.546086 -7.1607227 -24.405743
v -8.179712 -3.2978232 -22.906902
v -8.263084 -3.3941638 -22.684576
v -8.263084 -3.3941638 -22.684576
v -11.507179 -3.6294582 -24.276054
v -8.298286 -3.6294582 -22.593794
v -3.9333026 -3.6294582 -21.478462
v -3.9184809 -3.3941638 -21.574804
v 0.60583603 -3.6294582 -21.102362
v -3.9184809 -3.3941638 -21.574804
v 0.60583603 -3.3941638 -21.200556
v -3.8777213 -3.2978232 -21.808245
v 12.891153 -3.6294582 -24.446503
v 12.891153 -6.9254284 -24.446503
v 12.865215 -3.3941638 -24.64289
v 12.893006 -7.1607227 -24.666977
v 12.894858 -7.1607227 -56.68365
v -8.561371 -3.2978232 61.622974
v -8.796665 -3.1996295 -47.56832
v -8.796665 -3.1996295 61.622974
v -8.796665 -2.9643352 -47.80361
v 10.008338 -2.9643352 -47.80361
v 10.008338 -2.7290413 -47.80361
v 10.104678 -2.9643352 61.622974
v 10.008338 -3.1996295 -47.56832
v 10.008338 -3.1996295 61.622974
v -8.561371 -2.4937472 -47.80361
v 9.773043 -2.4937472 -47.80361
v -9.272812 5.5229273 -62.59935
v -9.037518 5.5229273 -62.695694
v -9.272812 0.4557666 -62.59935
v -9.369153 5.5229273 -62.36406
v -9.272812 5.5229273 -62.59935
v 10.482631 5.5229273 -62.59935
v 10.580825 5.5229273 -62.36406
v 10.482631 0.4557666 -62.59935
v 10.247336 5.5229273 -62.695694
v 10.482631 5.5229273 -62.59935
v 10.482631 0.22047244 -20.229736
v 10.482631 0.22047244 -62.36406
v 10.247336 0.22047244 -19.994442
v -9.037518 0.22047244 -19.994442
v -9.747105 6.9902735 -62.999535
v -9.511811 7.2255673 -62.999535
v 10.723483 7.2255673 -62.999535
v 10.958777 6.9902735 -62.999535
v 10.958777 5.621121 61.617413
v 10.723483 5.5229273 61.617413
v 10.958777 5.621121 -62.764244
v 11.055119 5.8564153 61.617413
v 10.958777 5.621121 61.617413
v 9.474756 -7.1607227 -22.684576
v 9.509958 -6.9254284 -22.593794
v -9.272812 0.22047244 -62.36406
v -9.272812 0.22047244 -20.229736
v -3.8777213 -7.257063 -21.808245
v -3.9184809 -7.1607227 -21.574804
v 0.60583603 -7.257063 -59.955536
v 0.60583603 -7.1607227 -60.192684
v -11.683187 -7.1607227 -24.666977
v -11.653543 -3.3941638 -24.64289
v -11.653543 -3.3941638 -56.750347
v -8.796665 -2.4937472 61.622974
v -8.561371 -2.397406 61.622974
v -8.796665 -2.4937472 -47.56832
v -8.894858 -2.7290413 61.622974
v -8.796665 -2.4937472 61.622974
v 10.247336 0.22047244 -62.59935
v -9.037518 0.22047244 -62.59935
v -9.747105 5.621121 61.617413
v -9.747105 5.621121 -62.764244
v -9.747105 5.621121 61.617413
v 10.723483 5.621121 -62.999535
v -9.511811 5.621121 -62.999535
v 2.3937006 -7.038444 -45.078278
v 4.033349 -7.1940713 -44.192684
v 3.9110699 -7.038444 -44.050022
v 2.4733675 -7.1940713 -45.25058
v 4.1760073 -7.257063 -44.38536
v -2.699398 -7.038444 -44.050022
v -3.8869846 -7.1940713 -42.575268
v -2.8216767 -7.1940713 -44.192684
v -4.1093097 -7.257063 -42.647522
v -2.9643352 -7.257063 -44.38536
v -4.4928207 -7.257063 -40.696617
v -3.8851318 -7.1940713 -38.810562
v -4.103752 -7.257063 -38.719776
v -4.255674 -7.1940713 -40.696617
v -3.7128298 -7.038444 -38.880962
v -2.699398 -7.038444 -37.343216
v -2.832793 -7.1940713 -37.20982
v 0.60583603 -7.038444 -35.953682
v -1.2542844 -7.1940713 -36.14081
v -1.1838814 -7.038444 -36.31496
v 0.60583603 -7.1940713 -35.764706
v -1.3469199 -7.257063 -35.922188
v 2.3937006 -7.038444 -36.31496
v 4.0426126 -7.1940713 -37.20982
v 2.4659564 -7.1940713 -36.14081
v 4.211209 -7.257063 -37.043076
v 2.5567393 -7.257063 -35.922188
v 4.9226494 -7.038444 -38.880962
v 5.4654937 -7.1940713 -40.696617
v 5.096804 -7.1940713 -38.810562
v 5.70264 -7.257063 -40.696617
v 5.315424 -7.257063 -38.719776
v 5.0986567 -7.1940713 -42.575268
v 4.9226494 -7.038444 -42.51042
v 5.320982 -7.257063 -42.647522
v 0.60583603 -7.1940713 -45.62668
v 0.60583603 -7.257063 -45.863823
v 2.5808244 -7.257063 -45.465492
v -1.1838814 -7.038444 -45.078278
v -1.2616953 -7.1940713 -45.25058
v -1.3691523 -7.257063 -45.465492
v -4.06855 -7.038444 -40.696617
v 0.60583603 -7.038444 -45.437702
v -3.0013895 -7.257063 -37.043076
v 0.60583603 -7.257063 -35.52941
v 3.9110699 -7.038444 -37.343216
v 5.27837 -7.038444 -40.696617
v 0.60583603 -3.2978232 -21.43585
v -8.894858 -2.9643352 61.622974
v 9.773043 -3.2978232 61.622974
v 10.104678 -2.7290413 61.622974
v -3.572024 -6.819824 -38.94025
v -4.06855 -7.038444 -40.696617
v -3.9166281 -6.819824 -40.696617
v -2.5919406 -6.819824 -37.452522
v -3.7128298 -7.038444 -38.880962
v -3.572024 -6.819824 -42.452988
v -3.7128298 -7.038444 -42.51042
v -1.1245948 -6.819824 -36.45762
v -2.699398 -7.038444 -37.343216
v -2.5919406 -6.819824 -37.452522
v 0.60583603 -6.819824 -36.107456
v -1.1838814 -7.038444 -36.31496
v 2.3937006 -7.038444 -36.31496
v 0.60583603 -7.038444 -35.953682
v 2.336267 -6.819824 -36.45762
v 3.9110699 -7.038444 -37.343216
v 3.803613 -6.819824 -37.452522
v 4.9226494 -7.038444 -38.880962
v 3.9110699 -7.038444 -37.343216
v 4.783696 -6.819824 -38.94025
v 5.27837 -7.038444 -40.696617
v 4.783696 -6.819824 -42.452988
v 5.1283 -6.819824 -40.696617
v 3.803613 -6.819824 -43.940712
v 4.9226494 -7.038444 -42.51042
v 2.336267 -6.819824 -44.93562
v 3.9110699 -7.038444 -44.050022
v 3.803613 -6.819824 -43.940712
v 0.60583603 -6.819824 -45.283928
v 2.3937006 -7.038444 -45.078278
v -1.1838814 -7.038444 -45.078278
v 0.60583603 -7.038444 -45.437702
v -1.1245948 -6.819824 -44.93562
v -2.699398 -7.038444 -44.050022
v -2.5919406 -6.819824 -43.940712
v -2.699398 -7.038444 -44.050022
v -9.845299 5.8564153 61.617413
v -9.511811 5.5229273 61.617413
v 12.86892 -7.116257 -24.487263
v 12.757758 -7.15887 -56.965263
v 12.865215 -3.3941638 -56.750347
v 12.891153 -3.6294582 -56.94488
v 12.705882 -3.3941638 -57.01158
v -11.6591015 -7.116257 -56.8893
v -11.683187 -7.1607227 -56.68365
v -11.496063 -3.3941638 -24.379807
v -8.796665 -2.7290413 -47.80361
v -9.272812 0.4557666 -19.994442
v -9.747105 7.2255673 -62.764244
v -9.747105 5.8564153 -62.999535
v 10.958777 5.8564153 -62.999535
v 12.757758 -7.15887 -56.965263
v 10.008338 -2.4937472 61.622974
v -11.546086 -7.1607227 -24.405743
v -11.496063 -3.3941638 -24.379807
v 0.60583603 -3.3941638 -21.200556
v -8.796665 -3.1996295 61.622974
v 10.008338 -3.1996295 61.622974
v -3.7128298 -7.038444 -42.51042
v -2.699398 -7.038444 -37.343216
v 3.803613 -6.819824 -37.452522
v 3.9110699 -7.038444 -44.050022
v -2.5919406 -6.819824 -43.940712
vt 0.531137 0.91945201
vt 0.539806 0.910026014
vt 0.539806 0.91767299
vt 0.574502 0.890305996
vt 0.562547 0.894741
vt 0.564327 0.88598502
vt 0.586505 0.919726014
vt 0.574856 0.92491102
vt 0.577744 0.917860985
vt 0.574503 0.937868
vt 0.562548 0.933183014
vt 0.56952 0.930291
vt 0.586505 0.90856701
vt 0.574855 0.903135
vt 0.58229 0.89823598
vt 0.535351 0.89800298
vt 0.548029 0.897596
vt 0.542693 0.90297598
vt 0.555001 0.894703984
vt 0.553313 0.885931015
vt 0.54314 0.937713027
vt 0.555002 0.933146
vt 0.553315 0.942034006
vt 0.535352 0.929784
vt 0.54803 0.93018502
vt 0.569519 0.89770198
vt 0.577744 0.91021401
vt 0.543138 0.890151024
vt 0.542694 0.924752
vt 0.582291 0.93001598
vt 0.531137 0.90829301
vt 0.564328 0.94208902
vt 0.558747 0.913903
vt 0.704721 0.689259
vt 0.706586 0.68817002
vt 0.706656 0.689605
vt 0.979679 0.62947398
vt 0.980794 0.63088298
vt 0.979896 0.631517
vt 0.856574 0.26045096
vt 0.855014 0.261927
vt 0.854663 0.26050496
vt 0.856572 0.0029630065
vt 0.854663 0.0027149916
vt 0.856529 0.0014879704
vt 0.85659 0.004859984
vt 0.855029 0.0033990145
vt 0.979721 0.373407
vt 0.980809 0.371629
vt 0.981004 0.37326097
vt 0.786153 0.68730903
vt 0.784411 0.68617702
vt 0.78554 0.68545198
vt 0.882954 0.0047940016
vt 0.884462 0.0030769706
vt 0.884812 0.0044320226
vt 0.741316 0.68570697
vt 0.739807 0.684698
vt 0.741341 0.684345
vt 0.889542 0.003362
vt 0.888049 0.0019140244
vt 0.889569 0.0016329885
vt 0.978668 0.68730903
vt 0.98041 0.68617702
vt 0.980552 0.68754703
vt 0.741316 0.879637
vt 0.739807 0.88068402
vt 0.739448 0.87954599
vt 0.91589 0.0031520128
vt 0.917462 0.0018810034
vt 0.917809 0.0034630299
vt 0.769587 0.879957974
vt 0.767714 0.88102603
vt 0.767689 0.87963098
vt 0.785531 0.373487
vt 0.784475 0.37171102
vt 0.785361 0.371086
vt 0.785555 0.629555
vt 0.78447 0.630965
vt 0.78427 0.629511
vt 0.915877 0.25766802
vt 0.917809 0.25815904
vt 0.915942 0.259252
vt 0.915851 0.255741
vt 0.917422 0.25737298
vt 0.978668 0.94425702
vt 0.98041 0.945227027
vt 0.979282 0.946000993
vt 0.889503 0.255951
vt 0.888009 0.25774097
vt 0.887658 0.256391
vt 0.889594 0.259462
vt 0.889529 0.257877
vt 0.786153 0.94425702
vt 0.784411 0.945227027
vt 0.78427 0.943907022
vt 0.732999 0.68954802
vt 0.734454 0.688451
vt 0.734837 0.68961
vt 0.882939 0.26038504
vt 0.884447 0.261945
vt 0.882921 0.26218903
vt 0.687051 0.0031589866
vt 0.685568 0.0018510222
vt 0.687088 0.0014380217
vt 0.671992 0.0033580065
vt 0.67353 0.0017430186
vt 0.673875 0.0033010244
vt 0.774302 0.83298099
vt 0.772784 0.83453298
vt 0.772433 0.832991
vt 0.518596 0.003279984
vt 0.520149 0.0017790198
vt 0.52049 0.003305018
vt 0.776177 0.68621898
vt 0.777735 0.684694
vt 0.778075 0.68622798
vt 0.678628 0.00336802
vt 0.677055 0.0017480254
vt 0.678603 0.0014280081
vt 0.776177 0.83298099
vt 0.777735 0.83453202
vt 0.776191 0.83487397
vt 0.371838 0.0033469796
vt 0.370316 0.0018460155
vt 0.371849 0.0014889836
vt 0.688925 0.0031430125
vt 0.690514 0.0018100142
vt 0.690843 0.0032629967
vt 0.525219 0.0033580065
vt 0.523681 0.0017430186
vt 0.525219 0.0014230013
vt 0.680503 0.0033640265
vt 0.682005 0.001734972
vt 0.682361 0.0032950044
vt 0.774302 0.68621898
vt 0.772784 0.684695
vt 0.774316 0.684345
vt 0.961213 0.17188203
vt 0.962771 0.17035699
vt 0.96311 0.17189097
vt 0.695596 0.34727204
vt 0.694023 0.34565198
vt 0.695571 0.345331
vt 0.849923 0.0032809973
vt 0.851477 0.0017790198
vt 0.851817 0.003305018
vt 0.938268 0.0034260154
vt 0.936675 0.0018450022
vt 0.938228 0.0015109777
vt 0.849923 0.340405
vt 0.851477 0.341978
vt 0.849934 0.342313
vt 0.695596 0.68345302
vt 0.694023 0.68489802
vt 0.693689 0.68339503
vt 0.961213 0.326248
vt 0.962771 0.32779896
vt 0.961227 0.32814097
vt 0.695561 0.0033500195
vt 0.694039 0.001850009
vt 0.695572 0.0014929771
vt 0.779506 0.34694898
vt 0.781095 0.34561598
vt 0.781424 0.347068
vt 0.779506 0.67918003
vt 0.781095 0.68087697
vt 0.779542 0.68117
vt 0.695561 0.34047496
vt 0.694039 0.342049
vt 0.693689 0.340501
vt 0.938268 0.157664
vt 0.936675 0.15915596
vt 0.936347 0.15763497
vt 0.333868 0.0033580065
vt 0.335405 0.0017430186
vt 0.335751 0.0033010244
vt 0.922524 0.16526997
vt 0.921007 0.166821
vt 0.920655 0.16527903
vt 0.35613 0.003216982
vt 0.354646 0.0019090176
vt 0.356166 0.001496017
vt 0.931604 0.165268
vt 0.933162 0.16681898
vt 0.931618 0.16716099
vt 0.003295 0.003354013
vt 0.001773 0.0018529892
vt 0.003306 0.001496017
vt 0.365202 0.0031440258
vt 0.366791 0.0018100142
vt 0.36712 0.0032629967
vt 0.349581 0.0033640265
vt 0.351083 0.001734972
vt 0.351439 0.0032950044
vt 0.922524 0.0032989979
vt 0.921007 0.0017750263
vt 0.922538 0.0014250278
vt 0.171885 0.0033580065
vt 0.170347 0.0017430186
vt 0.171885 0.0014230013
vt 0.931604 0.0032969713
vt 0.933162 0.0017719865
vt 0.933502 0.0033059716
vt 0.340504 0.0033869743
vt 0.338931 0.001766026
vt 0.340479 0.0014460087
vt 0.165262 0.003279984
vt 0.166815 0.0017790198
vt 0.167156 0.003305018
vt 0.565209 0.88182998
vt 0.57805 0.88511598
vt 0.57692 0.886803985
vt 0.56561 0.87983298
vt 0.578977 0.88364798
vt 0.767689 0.685701
vt 0.769338 0.712094
vt 0.767445 0.711228
vt 0.953053 0.35693598
vt 0.950969 0.358325
vt 0.812091 0.673742
vt 0.811411 0.67192
vt 0.739202 0.71152502
vt 0.741072 0.71123397
vt 0.74091 0.746067
vt 0.846202 0.66305602
vt 0.740855 0.78236699
vt 0.73904 0.746207
vt 0.882411 0.660061
vt 0.846515 0.664972
vt 0.812303 0.643565
vt 0.846421 0.65422797
vt 0.811634 0.64536
vt 0.705427 0.85797
vt 0.707802 0.82374603
vt 0.707345 0.85827798
vt 0.74091 0.81874001
vt 0.739202 0.85351402
vt 0.73904 0.81862003
vt 0.91862 0.66305602
vt 0.952731 0.673742
vt 0.918307 0.664972
vt 0.741341 0.88103098
vt 0.915917 0.0014230013
vt 0.734145 0.751077
vt 0.735532 0.71603298
vt 0.735987 0.75116998
vt 0.846202 0.96839702
vt 0.81209 0.95782399
vt 0.846515 0.966594994
vt 0.531862 0.89566302
vt 0.525035 0.90710503
vt 0.530187 0.894526005
vt 0.523336 0.906726
vt 0.528743 0.89352399
vt 0.518607 0.0014230013
vt 0.778075 0.83298999
vt 0.918519 0.350053
vt 0.882638 0.34522796
vt 0.918843 0.34821498
vt 0.76918 0.74620003
vt 0.767228 0.78236198
vt 0.767283 0.74606198
vt 0.523336 0.921045005
vt 0.530188 0.93337703
vt 0.528744 0.93430102
vt 0.525036 0.92074698
vt 0.531864 0.93223703
vt 0.540825 0.94136399
vt 0.539709 0.943071008
vt 0.565211 0.946401
vt 0.552148 0.948354006
vt 0.552536 0.946337998
vt 0.565612 0.948421
vt 0.551793 0.95001799
vt 0.576922 0.941543996
vt 0.587571 0.933660984
vt 0.578051 0.943261027
vt 0.58897 0.93459803
vt 0.578978 0.944673
vt 0.590732 0.920663
vt 0.592723 0.90743899
vt 0.592723 0.92108202
vt 0.594378 0.907077014
vt 0.594378 0.92139697
vt 0.58757 0.89481002
vt 0.585881 0.895931005
vt 0.58897 0.893822014
vt 0.552534 0.88176602
vt 0.552146 0.87976599
vt 0.565921 0.878104985
vt 0.540823 0.88662398
vt 0.539707 0.88492602
vt 0.538736 0.88344997
vt 0.527013 0.907504976
vt 0.527014 0.920346975
vt 0.335751 0.9964110255
vt 0.333868 0.9964669943
vt 0.354285 0.984120011
vt 0.35613 0.983969986
vt 0.952929 0.643507
vt 0.918832 0.654198
vt 0.918508 0.65231
vt 0.705427 0.71609902
vt 0.707802 0.75113398
vt 0.705882 0.75123501
vt 0.97874 0.0014230013
vt 0.97878 0.0033379793
vt 0.695571 0.68526697
vt 0.73614 0.68335003
vt 0.736116 0.68516397
vt 0.551791 0.87803501
vt 0.882893 0.0014230013
vt 0.738986 0.782377
vt 0.882411 0.66200203
vt 0.814284 0.358382
vt 0.846432 0.34824502
vt 0.846734 0.350083
vt 0.769339 0.852929
vt 0.767283 0.81873399
vt 0.76918 0.818613
vt 0.741072 0.853787
vt 0.979282 0.68545198
vt 0.953411 0.67192
vt 0.525219 0.87518901
vt 0.523336 0.0033010244
vt 0.682361 0.874515
vt 0.538737 0.944474995
vt 0.565923 0.950088024
vt 0.585883 0.93250501
vt 0.812222 0.35699403
vt 0.767445 0.85378098
vt 0.739023 0.681499
vt 0.738986 0.67950898
vt 0.97874 0.15942502
vt 0.97878 0.15757596
vt 0.351439 0.9957069755
vt 0.349581 0.9957759976
vt 0.170001 0.0033010244
vt 0.171885 0.9964669943
vt 0.170001 0.9964110255
vt 0.733688 0.715787
vt 0.78554 0.946000993
vt 0.811411 0.959532976
vt 0.882627 0.657215
vt 0.882616 0.65530097
vt 0.707957 0.78756797
vt 0.706035 0.787539
vt 0.590731 0.90781999
vt 0.706656 0.883373976
vt 0.785359 0.63159698
vt 0.952731 0.95782399
vt 0.953411 0.959532976
vt 0.735532 0.85790497
vt 0.732999 0.88331699
vt 0.733688 0.858221
vt 0.734145 0.82368898
vt 0.91862 0.96839702
vt 0.734299 0.78751099
vt 0.735987 0.82352197
vt 0.882411 0.97139299
vt 0.918307 0.966594994
vt 0.732929 0.68811297
vt 0.856556 0.262254
vt 0.884797 0.260612
vt 0.980986 0.62942898
vt 0.854678 0.0050550103
vt 0.371838 0.877012014
vt 0.369965 0.0033720136
vt 0.690843 0.86424702
vt 0.688962 0.0014230013
vt 0.776191 0.684345
vt 0.680478 0.0014230013
vt 0.678628 0.87458801
vt 0.676721 0.0033100247
vt 0.52049 0.87696999
vt 0.671992 0.0014230013
vt 0.772433 0.686229
vt 0.920669 0.32815003
vt 0.920655 0.326257
vt 0.779542 0.34522796
vt 0.738986 0.347278
vt 0.739023 0.34555697
vt 0.736116 0.34522796
vt 0.73614 0.34716904
vt 0.961227 0.170008
vt 0.920655 0.17189097
vt 0.920669 0.170017
vt 0.851817 0.340429
vt 0.693689 0.34721303
vt 0.936347 0.003396988
vt 0.695572 0.34238303
vt 0.922538 0.167162
vt 0.333868 0.0014230013
vt 0.920655 0.0033090115
vt 0.349557 0.0014230013
vt 0.167156 0.9985020161
vt 0.165262 0.9984779954
vt 0.338597 0.0033280253
vt 0.340504 0.995799005
vt 0.338597 0.9957399964
vt 0.95362 0.64530098
vt 0.707345 0.71584398
vt 0.693689 0.003376007
vt 0.781424 0.6793
vt 0.846723 0.65234
vt 0.705882 0.82358801
vt 0.882627 0.34709203
vt 0.769125 0.78237098
vt 0.91777 0.25591397
vt 0.980552 0.943907022
vt 0.887697 0.0032209754
vt 0.673875 0.87513298
vt 0.671992 0.87518901
vt 0.685206 0.0033090115
vt 0.687051 0.86414301
vt 0.685206 0.86429298
vt 0.849934 0.0014230013
vt 0.96311 0.326257
vt 0.001423 0.9985769987
vt 0.001423 0.0033789873
vt 0.36712 0.984016001
vt 0.165273 0.0014230013
vt 0.933502 0.165277
vt 0.896964 0.466192
vt 0.910062 0.473225
vt 0.909102 0.47441196
vt 0.897578 0.46477103
vt 0.911199 0.47167397
vt 0.856193 0.47443402
vt 0.846669 0.486194
vt 0.855197 0.473248
vt 0.844882 0.485605
vt 0.854046 0.471698
vt 0.84182 0.501213
vt 0.846679 0.51632202
vt 0.844921 0.51702398
vt 0.843719 0.501229
vt 0.848082 0.515787
vt 0.856191 0.52809298
vt 0.855111 0.529117
vt 0.882645 0.539196
vt 0.867734 0.53766602
vt 0.868328 0.536314
vt 0.882627 0.54066497
vt 0.866995 0.539398
vt 0.896962 0.53630197
vt 0.910144 0.52909398
vt 0.897521 0.53765398
vt 0.911484 0.53040898
vt 0.898245 0.53938502
vt 0.91721 0.515759
vt 0.921538 0.50119698
vt 0.918577 0.51629198
vt 0.923423 0.50117898
vt 0.920321 0.51699197
vt 0.91859 0.48616397
vt 0.917211 0.486718
vt 0.920362 0.485574
vt 0.88263 0.461761
vt 0.882623 0.459849
vt 0.898434 0.46303296
vt 0.86833 0.466204
vt 0.867682 0.464783
vt 0.866811 0.463046
vt 0.845234 0.50126803
vt 0.882647 0.46331
vt 0.853757 0.530433
vt 0.88262 0.542544
vt 0.9091 0.528071
vt 0.920058 0.50123698
vt 0.882411 0.96956402
vt 0.688925 0.864128
vt 0.518596 0.87694597
vt 0.680503 0.874583
vt 0.695559 0.72830498
vt 0.693689 0.71397698
vt 0.695472 0.71407002
vt 0.695806 0.74082
vt 0.693778 0.728688
vt 0.695559 0.700284
vt 0.693778 0.69972903
vt 0.698795 0.72850698
vt 0.700415 0.741023
vt 0.698651 0.740156
vt 0.698845 0.714687
vt 0.700565 0.728984
vt 0.700565 0.70034897
vt 0.700617 0.714701
vt 0.698795 0.7008
vt 0.700415 0.68811297
vt 0.698651 0.79575902
vt 0.700818 0.786017
vt 0.700438 0.796749
vt 0.699021 0.785375
vt 0.700952 0.77219898
vt 0.699021 0.75768298
vt 0.699151 0.77200401
vt 0.698651 0.744591
vt 0.700818 0.75739801
vt 0.700605 0.811881
vt 0.699221 0.79959399
vt 0.701012 0.800484
vt 0.700462 0.82560402
vt 0.698799 0.811373
vt 0.698799 0.839984
vt 0.698651 0.82555598
vt 0.700605 0.83956498
vt 0.699221 0.85246098
vt 0.695806 0.689045
vt 0.694031 0.68811297
vt 0.365202 0.98389697
vt 0.003295 0.9985510111
vt 0.705034 0.68833798
vt 0.979913 0.371005
vt 0.78427 0.68754703
vt 0.882936 0.0028979778
vt 0.739448 0.68581802
vt 0.76926 0.88085699
vt 0.78427 0.373343
vt 0.887717 0.25867903
vt 0.774316 0.83487397
vt 0.938228 0.159513
vt 0.354285 0.0033670068
vt 0.365238 0.0014230013
vt 0.931618 0.0014230013
vt 0.769587 0.68540102
vt 0.523336 0.87513298
vt 0.704721 0.88363999
vt 0.734837 0.88317603
vt 0.73614 0.78747302
vt 0.369965 0.877038
vt 0.676721 0.87453002
vt 0.848083 0.48674703
vt 0.694031 0.74162197
vt 0.698651 0.68896002
vt 0.700438 0.743869
vt 0.701012 0.85163802
vn -0.3754 -0.9264 0.0302
vn -0.1564 -0.9856 -0.0638
vn -0.1692 -0.9856 0
vn 0.2455 -0.9288 -0.2775
vn 0.0648 -0.9859 -0.1541
vn 0.1397 -0.9327 -0.3324
vn 0.3587 -0.9265 0.1137
vn 0.1197 -0.9858 0.1179
vn 0.1563 -0.9856 0.0638
vn 0.1724 -0.9277 0.3311
vn -0 -0.986 0.1668
vn 0.0648 -0.9859 0.1541
vn 0.3718 -0.928 -0.0254
vn 0.1563 -0.9856 -0.0638
vn 0.3368 -0.9315 -0.1375
vn -0.2876 -0.9271 -0.2405
vn -0.0648 -0.9859 -0.1541
vn -0.1197 -0.9858 -0.1179
vn -0 -0.986 -0.1668
vn -0 -0.9329 -0.36
vn -0.2455 -0.9288 0.2775
vn -0.0648 -0.9859 0.1541
vn -0.1397 -0.9327 0.3324
vn -0.3341 -0.9283 0.1633
vn -0.1205 -0.9849 0.1244
vn 0.1205 -0.9849 -0.1244
vn 0.174 -0.9847 -0.004
vn -0.1197 -0.9296 -0.3485
vn -0.1594 -0.9848 0.0693
vn 0.2455 -0.9288 0.2775
vn -0.3341 -0.9283 -0.1633
vn -0.0426 -0.9187 0.3925
vn -0 -1 0
vn 0.4712 -0.667 0.5771
vn 0.8428 -0.11 0.5269
vn 0.4836 -0.0289 0.8748
vn 0.1864 -0.968 -0.1682
vn 0.7552 -0.4815 0.4448
vn 0.4712 -0.667 0.5771
vn 0.993 0.0418 0.1104
vn 0.7552 -0.4815 0.4448
vn 0.7015 -0.7103 0.0579
vn 0.8381 -0.1307 -0.5296
vn 0.4501 -0.7061 -0.5467
vn 0.4844 -0.0352 -0.8742
vn 0.9873 -0.1546 0.0367
vn 0.7446 -0.5165 -0.423
vn -0.0157 -0.9909 -0.1333
vn 0.7446 -0.5165 -0.423
vn 0.8289 -0.5247 -0.194
vn 0.1271 0.9862 0.106
vn 0.7111 0.5562 -0.4301
vn 0.4326 0.6993 -0.5692
vn 0.9911 -0.0204 -0.1313
vn 0.7111 0.5562 -0.4301
vn 0.6076 0.7828 -0.1345
vn 0.4179 0.1184 -0.9007
vn 0.7111 0.5562 -0.4301
vn 0.8487 0.1273 -0.5133
vn -0.9899 0.128 0.0603
vn -0.7112 0.5562 -0.4301
vn -0.8487 0.1273 -0.5133
vn 0.036 0.9867 -0.1586
vn -0.7112 0.5562 -0.4301
vn -0.7888 0.6081 -0.0893
vn -0.5867 -0.0105 -0.8097
vn -0.7112 0.5562 -0.4301
vn -0.4326 0.6993 -0.5692
vn -0.9916 0.045 -0.1217
vn -0.7445 -0.5165 -0.423
vn -0.8183 -0.5747 0.0092
vn -0.4501 -0.7061 -0.5467
vn -0.8381 -0.1307 -0.5296
vn -0.4834 -0.0336 -0.8748
vn -0.1635 -0.9727 0.1645
vn -0.7445 -0.5165 -0.423
vn -0.4501 -0.7061 -0.5467
vn 0.0275 -0.9855 0.1673
vn -0.7552 -0.4815 0.4448
vn -0.817 -0.5766 -0.0085
vn -0.8428 -0.11 0.5269
vn -0.4712 -0.667 0.5771
vn -0.4839 -0.029 0.8747
vn -0.9908 -0.1304 -0.0356
vn -0.7552 -0.4815 0.4448
vn -0.1265 0.9861 -0.1073
vn -0.7111 0.5562 0.4301
vn -0.4326 0.6993 0.5692
vn -0.9911 -0.0202 0.1313
vn -0.7111 0.5562 0.4301
vn -0.6091 0.7817 0.1343
vn -0.4185 0.1186 0.9004
vn -0.8487 0.1273 0.5133
vn -0.0365 0.9867 0.1586
vn 0.7111 0.5562 0.4301
vn 0.6987 0.7154 -0.0062
vn 0.5867 -0.0104 0.8097
vn 0.7111 0.5562 0.4301
vn 0.4326 0.6993 0.5691
vn 0.9899 0.1279 -0.0607
vn 0.7111 0.5562 0.4301
vn 0.8487 0.1273 0.5133
vn -0.9476 0.314 -0.0586
vn -0.5774 0.5774 -0.5773
vn -0.6993 0.1479 -0.6993
vn 0.0714 0.9843 -0.1613
vn -0.5774 0.5774 -0.5773
vn -0.8101 0.5705 -0.1355
vn -0.0336 0.0809 -0.9962
vn -0.5774 0.5774 -0.5773
vn -0.1358 0.8083 -0.5729
vn -0.0714 -0.9843 -0.1613
vn 0.5774 -0.5774 -0.5773
vn 0.7082 -0.7057 0.0221
vn 0.0336 -0.0809 -0.9962
vn 0.5774 -0.5774 -0.5773
vn 0.1357 -0.8083 -0.5729
vn 0.9476 -0.314 -0.0586
vn 0.5774 -0.5774 -0.5773
vn 0.6993 -0.1479 -0.6993
vn -0.0619 -0.3106 -0.9485
vn -0.5774 -0.5773 -0.5773
vn -0.6993 -0.1479 -0.6993
vn -0.1674 -0.9833 0.0717
vn -0.5774 -0.5773 -0.5773
vn -0.1357 -0.5729 -0.8083
vn -0.9963 -0.0795 -0.0315
vn -0.5774 -0.5773 -0.5773
vn -0.5705 -0.8101 -0.1355
vn 0.1674 0.9833 0.0717
vn 0.5774 0.5774 -0.5773
vn -0.0191 0.7058 -0.7082
vn 0.9963 0.0795 -0.0315
vn 0.5774 0.5774 -0.5773
vn 0.5705 0.8101 -0.1355
vn 0.0619 0.3106 -0.9485
vn 0.5774 0.5774 -0.5773
vn 0.6993 0.1479 -0.6993
vn 0.1559 0.0592 -0.986
vn 0.5774 -0.5773 -0.5773
vn -0.0192 -0.7082 -0.7058
vn 0.9824 -0.1764 0.0623
vn 0.5774 -0.5773 -0.5773
vn 0.6993 -0.1479 -0.6993
vn -0.0714 -0.9841 -0.1624
vn 0.5774 -0.5773 -0.5773
vn 0.8095 -0.5712 -0.1356
vn -0.0607 -0.1746 0.9828
vn 0.5774 -0.5774 0.5773
vn 0.6993 -0.1479 0.6993
vn 0.1663 -0.9835 -0.0708
vn 0.5774 -0.5774 0.5773
vn 0.1357 -0.5728 0.8084
vn 0.9862 0.0604 0.154
vn 0.5774 -0.5774 0.5773
vn 0.5713 -0.8095 0.1356
vn 0.0602 -0.1746 -0.9828
vn -0.5774 -0.5773 -0.5773
vn -0.6993 -0.1479 -0.6993
vn -0.1663 -0.9835 0.0708
vn -0.5774 -0.5773 -0.5773
vn -0.1358 -0.5728 -0.8084
vn -0.9862 0.0604 -0.154
vn -0.5774 -0.5773 -0.5773
vn -0.5713 -0.8095 -0.1355
vn -0.9824 -0.1764 -0.0623
vn -0.5774 -0.5774 0.5773
vn -0.6993 -0.1479 0.6993
vn 0.0714 -0.9841 0.1624
vn -0.5774 -0.5774 0.5773
vn -0.8095 -0.5713 0.1356
vn -0.156 0.0586 0.986
vn -0.5774 -0.5774 0.5773
vn -0.1357 -0.8084 0.5728
vn 0.0719 0.9842 -0.1615
vn -0.5773 0.5774 -0.5774
vn -0.7081 0.7057 0.0244
vn -0.1218 -0.0192 -0.9924
vn -0.5773 0.5774 -0.5774
vn -0.1358 0.8085 -0.5727
vn -0.9759 0.2165 0.0283
vn -0.5773 0.5774 -0.5774
vn -0.6993 0.1479 -0.6993
vn 0.0264 -0.2141 -0.9765
vn -0.5773 -0.5774 -0.5774
vn -0.6993 -0.1479 -0.6993
vn -0.1671 -0.9833 0.0718
vn -0.5773 -0.5774 -0.5774
vn -0.1357 -0.5727 -0.8085
vn -0.9927 0.022 -0.1187
vn -0.5773 -0.5774 -0.5774
vn -0.5686 -0.8114 -0.1353
vn 0.9927 -0.0215 -0.1189
vn 0.5773 0.5774 -0.5774
vn 0.7057 0.7081 0.0222
vn -0.026 0.214 -0.9765
vn 0.5773 0.5774 -0.5774
vn 0.6993 0.1479 -0.6993
vn 0.1671 0.9833 0.0721
vn 0.5773 0.5774 -0.5774
vn 0.1357 0.5726 -0.8085
vn 0.1217 0.0197 -0.9924
vn 0.5773 -0.5774 -0.5774
vn -0.0194 -0.7082 -0.7058
vn 0.9758 -0.2167 0.029
vn 0.5773 -0.5774 -0.5774
vn 0.6993 -0.1479 -0.6993
vn -0.0719 -0.9842 -0.1615
vn 0.5773 -0.5774 -0.5774
vn 0.8101 -0.5704 -0.1355
vn 0.1249 -0.9464 -0.2978
vn -0.1767 -0.9689 0.1733
vn 0.2309 -0.9459 -0.228
vn -0.0961 -0.969 0.2276
vn -0.5035 -0.7071 0.4965
vn 0.4844 -0.0352 -0.8742
vn 0.2362 -0.7378 -0.6323
vn 0.3464 -0.0287 -0.9377
vn 0.2362 -0.7378 -0.6323
vn -0.0002 -1 0.0012
vn 0.0144 0.9999 0.0018
vn 0.245 0.7088 -0.6615
vn 0.245 0.7088 -0.6615
vn 0.3463 0.0268 -0.9377
vn -0.0023 0.1798 -0.9837
vn 0.1161 0.7071 -0.6975
vn -0.166 0.1795 -0.9697
vn 0.1161 0.7071 -0.6975
vn -0.0007 0.7072 -0.707
vn 0.2375 0.9546 -0.1796
vn 0.0101 -0.9999 0.0059
vn -0.1168 -0.7071 0.6974
vn -0.2451 -0.7098 0.6603
vn -0.2451 -0.7098 0.6603
vn -0.1651 -0.0272 0.9859
vn -0.3464 -0.0279 0.9377
vn -0.1742 0.0288 -0.9843
vn -0.245 0.7088 -0.6615
vn -0.1168 0.7071 -0.6974
vn -0.1168 0.7071 -0.6974
vn -0.0011 1 -0.0028
vn -0.0006 1 -0.0035
vn -0.8487 0.1273 -0.5133
vn -0.8381 -0.1307 -0.5296
vn 0.1743 0.028 0.9843
vn 0.245 0.7088 0.6615
vn 0.1168 0.7071 0.6974
vn 0.1168 0.7071 0.6974
vn -0.0003 1 -0.0009
vn 0.0004 1 0.0024
vn -0.2309 -0.9459 -0.228
vn 0.2297 -0.9688 0.0933
vn 0.1767 -0.9689 0.1733
vn 0.656 -0.7056 0.268
vn 0.5035 -0.7071 0.4965
vn 0.1357 -0.8083 -0.5729
vn -0.1357 -0.5729 -0.8083
vn -0.01 -0.9999 -0.007
vn -0 -0.7072 -0.707
vn 0.1167 -0.705 -0.6995
vn 0.1167 -0.705 -0.6995
vn -0 -0.0292 -0.9996
vn 0.1651 -0.0271 -0.9859
vn 0.7093 -0.7049 0
vn 0.2297 -0.9688 -0.0933
vn 0.656 -0.7056 -0.268
vn 0.2481 -0.9687 0
vn -0.3019 -0.9453 0.1235
vn -0.2309 -0.9459 0.228
vn 0.1767 -0.9689 -0.1733
vn -0 -0.9467 0.3222
vn 0.0961 -0.969 -0.2277
vn -0.1249 -0.9464 0.2978
vn -0 -0.969 -0.2469
vn 0.2733 -0.7086 -0.6506
vn 0.1249 -0.9464 0.2978
vn -0.1767 -0.9689 -0.1733
vn -0.0961 -0.969 -0.2276
vn -0.5035 -0.7071 -0.4965
vn -0.2733 -0.7086 -0.6506
vn 0.3019 -0.9453 0.1235
vn -0.2481 -0.9687 0
vn -0.2297 -0.9688 -0.0933
vn -0.7093 -0.7049 0
vn -0.656 -0.7056 -0.268
vn -0.2297 -0.9688 0.0933
vn 0.3019 -0.9453 -0.1235
vn -0.656 -0.7056 0.268
vn -0 -0.9467 -0.3222
vn -0 -0.969 0.2469
vn -0.2733 -0.7086 0.6506
vn -0.1249 -0.9464 -0.2978
vn 0.0961 -0.969 0.2276
vn 0.2733 -0.7086 0.6506
vn -0.3019 -0.9453 -0.1235
vn -0.3269 -0.9451 0
vn -0.7071 0.7071 0
vn -0.0048 1 0
vn -0.7071 0.7071 0
vn -0.9975 0.071 0
vn 0.2691 -0.9547 0.1268
vn 0.1168 -0.7071 0.6974
vn 0.0005 -1 0.003
vn 0.2442 -0.7095 0.661
vn 0.1651 -0.0278 0.9859
vn 0.1168 -0.7071 0.6974
vn 0.7071 -0 0.7071
vn 0.005 -0 1
vn 0.6993 -0.1479 0.6993
vn 1 -0.0001 0.0036
vn 0.7071 -0 0.7071
vn -0 -0.7092 0.705
vn 0.4179 0.1184 -0.9007
vn -0.0007 0.7072 -0.707
vn 0.2027 0.9551 -0.2162
vn -0.2504 -0.9368 -0.2445
vn -0.1167 -0.705 -0.6995
vn -0.0008 -1 -0.0049
vn -0.2348 -0.7377 -0.633
vn -0.1651 -0.0271 -0.9859
vn -0.1167 -0.705 -0.6995
vn -0.189 0.1996 -0.9615
vn -0.4326 0.6993 -0.5692
vn -0.245 0.7088 -0.6615
vn 0.0104 0.9999 0
vn 0.5705 0.8101 -0.1355
vn 0.7071 0.7071 0
vn 0.5035 -0.7071 -0.4965
vn -0 -0.7092 -0.705
vn 0.2309 -0.9459 0.228
vn -0.2348 -0.7377 -0.633
vn -0.1886 -0.1738 -0.9666
vn -0.7071 -0 0.7071
vn -1 -0 0.0023
vn -0.7071 -0 0.7071
vn -0.0034 -0 1
vn 0.7071 0.7071 0
vn 0.9973 0.0734 0
vn 0.7057 0.7081 0.0222
vn 0.01 0.9999 0
vn 0.7071 0.7071 0
vn 0.1896 0.1996 0.9614
vn 0.4326 0.6993 0.5691
vn 0.245 0.7088 0.6615
vn -0 -0.7072 0.707
vn -0 -1 -0.0078
vn -0 -0.0292 0.9996
vn -0 -0.7072 0.707
vn 0.3269 -0.9451 0
vn -0.4839 -0.029 0.8747
vn -0.4712 -0.667 0.5771
vn -0.0138 0.9999 -0.0037
vn -0.245 0.7088 0.6615
vn -0.245 0.7088 0.6615
vn -0.4185 0.1186 0.9004
vn -0.3463 0.026 0.9378
vn 0.0023 0.1798 0.9837
vn -0.1161 0.7071 0.6975
vn 0.166 0.1794 0.9697
vn -0.1161 0.7071 0.6975
vn 0.0007 0.7071 0.7071
vn -0.2344 0.9553 0.18
vn 0.8487 0.1273 0.5133
vn 0.8428 -0.11 0.5269
vn 0.6987 0.7154 -0.0062
vn 0.7015 -0.7103 0.0579
vn 0.8289 -0.5247 -0.194
vn -0.0104 -0.9999 0
vn -0.5705 -0.8101 -0.1355
vn -0.7071 -0.7071 0
vn -0.6993 -0.1479 -0.6993
vn 0.6993 -0.1479 -0.6993
vn 0.6993 0.1479 -0.6993
vn 0.9792 -0.2031 0
vn 0.7082 -0.7057 0.0221
vn 0.7071 -0.7071 0
vn -0.1358 0.8083 -0.5729
vn -0.0191 0.7058 -0.7082
vn -0.7071 -0 -0.7071
vn -0.0034 -0 -1
vn -0.6993 -0.1479 -0.6993
vn -1 0.0001 -0.0036
vn -0.7071 -0 -0.7071
vn 0.7071 -0 -0.7071
vn 1 -0 -0.0023
vn 0.6993 -0.1479 -0.6993
vn 0.0084 -0 -1
vn 0.7071 -0 -0.7071
vn 0.5713 -0.8095 0.1356
vn 0.8095 -0.5712 -0.1356
vn 0.1357 -0.5728 0.8084
vn -0.1357 -0.8084 0.5728
vn -0.6993 0.1479 -0.6993
vn -0.1358 0.8085 -0.5727
vn 0.1357 0.5726 -0.8085
vn 0.6993 0.1479 -0.6993
vn 0.7071 -0.7071 0
vn 0.0048 -1 0
vn 0.8101 -0.5704 -0.1355
vn 0.9973 -0.0734 0
vn 0.7071 -0.7071 0
vn 0.2442 -0.7095 0.661
vn 0.1899 -0.1995 0.9613
vn -0.5713 -0.8095 -0.1355
vn -0.8095 -0.5713 0.1356
vn -0.2326 -0.9577 0.1692
vn -0.1168 -0.7071 0.6974
vn 0.1981 -0.9561 -0.2159
vn -0 -0.7072 -0.707
vn -0.817 -0.5766 -0.0085
vn -0.6091 0.7817 0.1343
vn -0.7888 0.6081 -0.0893
vn -0.7071 0.7071 0
vn -0.0053 1 0
vn -0.8101 0.5705 -0.1355
vn -0.9792 0.203 0
vn -0.7071 0.7071 0
vn -0.0192 -0.7082 -0.7058
vn -0.1358 -0.5728 -0.8084
vn -0.7071 -0.7071 0
vn -0.5686 -0.8114 -0.1353
vn -0.7071 -0.7071 0
vn -0.0194 -0.7082 -0.7058
vn -0.1357 -0.5727 -0.8085
vn -0.2791 -0.6892 0.6686
vn -0.3135 -0.8984 0.3077
vn -0.52 -0.6861 0.5088
vn -0.1675 -0.9006 0.401
vn -0.0003 -1 0.0003
vn 0.52 -0.6861 0.5088
vn 0.4099 -0.8964 0.1684
vn 0.3135 -0.8984 0.3077
vn -0.0155 -0.9999 -0.0062
vn 0.0003 -1 0.0003
vn 0.0749 -0.9892 -0.126
vn 0.4069 -0.8982 -0.1664
vn -0.0143 -0.9999 0.0058
vn 0.44 -0.898 0
vn 0.6745 -0.6849 -0.2757
vn 0.5176 -0.6864 -0.5108
vn 0.3121 -0.8987 -0.3082
vn -0 -0.6885 -0.7253
vn 0.1693 -0.8991 -0.4036
vn 0.2809 -0.6879 -0.6693
vn -0 -0.8993 -0.4373
vn -0.0068 -0.9998 0.0161
vn -0.2809 -0.6879 -0.6693
vn -0.3121 -0.8987 -0.3082
vn -0.1693 -0.8991 -0.4036
vn 0.0118 -0.9999 0.0117
vn 0.0067 -0.9998 0.0161
vn -0.6745 -0.6849 -0.2757
vn -0.44 -0.898 0
vn -0.4069 -0.8982 -0.1664
vn 0.0162 -0.9999 0
vn 0.0142 -0.9999 0.0058
vn -0.4099 -0.8964 0.1684
vn -0.6753 -0.6833 0.2777
vn 0.0155 -0.9999 -0.0062
vn -0 -0.8993 0.4373
vn 0.0001 -0.9999 -0.017
vn 0.0823 -0.9868 0.1397
vn 0.2791 -0.6892 0.6686
vn 0.1675 -0.9006 0.401
vn -0.007 -0.9998 -0.0163
vn 0.7292 -0.6843 0
vn -0 -0.6885 0.7253
vn -0.0277 -0.9875 -0.1552
vn -0.1315 -0.9874 -0.0884
vn -0.5176 -0.6864 -0.5108
vn -0.7292 -0.6843 0
vn 0.2061 0.9562 0.2077
vn -0.9792 -0.2031 0
vn 0.0053 -1 0
vn 0.9792 0.2031 0
vn 0.656 -0.7056 -0.268
vn 0.7292 -0.6843 0
vn 0.7093 -0.7049 0
vn 0.5035 -0.7071 -0.4965
vn 0.6745 -0.6849 -0.2757
vn 0.656 -0.7056 0.268
vn 0.6753 -0.6833 0.2777
vn 0.2733 -0.7086 -0.6506
vn 0.5176 -0.6864 -0.5108
vn 0.5035 -0.7071 -0.4965
vn -0 -0.7092 -0.705
vn 0.2809 -0.6879 -0.6693
vn -0.2809 -0.6879 -0.6693
vn -0 -0.6885 -0.7253
vn -0.2733 -0.7086 -0.6506
vn -0.5176 -0.6864 -0.5108
vn -0.5035 -0.7071 -0.4965
vn -0.6745 -0.6849 -0.2757
vn -0.5176 -0.6864 -0.5108
vn -0.656 -0.7056 -0.268
vn -0.7292 -0.6843 0
vn -0.656 -0.7056 0.268
vn -0.7093 -0.7049 0
vn -0.5035 -0.7071 0.4965
vn -0.6753 -0.6833 0.2777
vn -0.2733 -0.7086 0.6506
vn -0.52 -0.6861 0.5088
vn -0.5035 -0.7071 0.4965
vn -0 -0.7092 0.705
vn -0.2791 -0.6892 0.6686
vn 0.2791 -0.6892 0.6686
vn -0 -0.6885 0.7253
vn 0.2733 -0.7086 0.6506
vn 0.52 -0.6861 0.5088
vn 0.5035 -0.7071 0.4965
vn 0.52 -0.6861 0.5088
vn -0.9973 -0.0734 0
vn -0.0076 -1 0
vn 0.7552 -0.4815 0.4448
vn 0.4501 -0.7061 -0.5467
vn 0.6076 0.7828 -0.1345
vn 0.8487 0.1273 -0.5133
vn 0.4326 0.6993 -0.5692
vn -0.7445 -0.5165 -0.423
vn -0.8183 -0.5747 0.0092
vn -0.4326 0.6993 0.5692
vn -0.6993 0.1479 -0.6993
vn -0.6993 -0.1479 0.6993
vn -0.7081 0.7057 0.0244
vn -0.6993 -0.1479 -0.6993
vn 0.6993 -0.1479 -0.6993
vn 0.4501 -0.7061 -0.5467
vn 0.7071 0.7071 0
vn -0.4712 -0.667 0.5771
vn -0.4326 0.6993 0.5692
vn 0.0007 0.7071 0.7071
vn -0.7071 -0.7071 0
vn 0.7071 -0.7071 0
vn 0.6753 -0.6833 0.2777
vn 0.5176 -0.6864 -0.5108
vn -0.5035 -0.7071 -0.4965
vn -0.52 -0.6861 0.5088
vn 0.5035 -0.7071 0.4965
f 1/1/1 2/2/2 3/3/3
f 4/4/4 5/5/5 6/6/6
f 7/7/7 8/8/8 9/9/9
f 10/10/10 11/11/11 12/12/12
f 13/13/13 14/14/14 15/15/15
f 16/16/16 17/17/17 18/18/18
f 6/6/6 19/19/19 20/20/20
f 21/21/21 22/22/22 23/23/23
f 24/24/24 25/25/25 21/21/21
f 15/15/15 26/26/26 4/4/4
f 13/13/13 9/9/9 27/27/27
f 28/28/28 19/19/19 17/17/17
f 1/1/1 29/29/29 24/24/24
f 30/30/30 12/12/12 8/8/8
f 31/31/31 18/18/18 2/2/2
f 23/23/23 11/11/11 32/32/32
f 8/8/8 12/12/12 33/33/33
f 22/22/22 25/25/25 33/33/33
f 11/11/11 22/22/22 33/33/33
f 17/17/17 19/19/19 33/33/33
f 25/25/25 29/29/29 33/33/33
f 3/3/3 2/2/2 33/33/33
f 29/29/29 3/3/3 33/33/33
f 18/18/18 17/17/17 33/33/33
f 2/2/2 18/18/18 33/33/33
f 19/19/19 5/5/5 33/33/33
f 14/14/14 27/27/27 33/33/33
f 5/5/5 26/26/26 33/33/33
f 26/26/26 14/14/14 33/33/33
f 9/9/9 8/8/8 33/33/33
f 27/27/27 9/9/9 33/33/33
f 12/12/12 11/11/11 33/33/33
f 34/34/34 35/35/35 36/36/36
f 37/37/37 38/38/38 39/39/39
f 40/40/40 41/41/41 42/42/42
f 43/43/43 44/44/44 45/45/45
f 46/46/46 47/47/47 43/43/43
f 48/48/48 49/49/49 50/50/50
f 51/51/51 52/52/52 53/53/53
f 54/54/54 55/55/55 56/56/56
f 57/57/57 58/58/58 59/59/59
f 60/60/60 61/61/61 62/62/62
f 63/63/63 64/64/64 65/65/65
f 66/66/66 67/67/67 68/68/68
f 69/69/69 70/70/70 71/71/71
f 72/72/72 73/73/73 74/74/74
f 75/75/75 76/76/76 77/77/77
f 78/78/78 79/79/79 80/80/80
f 81/81/81 82/82/82 83/83/83
f 84/84/84 85/85/85 81/81/81
f 86/86/86 87/87/87 88/88/88
f 89/89/89 90/90/90 91/91/91
f 92/92/92 90/90/90 93/93/93
f 94/94/94 95/95/95 96/96/96
f 97/97/97 98/98/98 99/99/99
f 100/100/100 101/101/101 102/102/102
f 103/103/103 104/104/104 105/105/105
f 106/106/106 107/107/107 108/108/108
f 109/109/109 110/110/110 111/111/111
f 112/112/112 113/113/113 114/114/114
f 115/115/115 116/116/116 117/117/117
f 118/118/118 119/119/119 120/120/120
f 121/121/121 122/122/122 123/123/123
f 124/124/124 125/125/125 126/126/126
f 127/127/127 128/128/128 129/129/129
f 130/130/130 131/131/131 132/132/132
f 133/133/133 134/134/134 135/135/135
f 136/136/136 137/137/137 138/138/138
f 139/139/139 140/140/140 141/141/141
f 142/142/142 143/143/143 144/144/144
f 145/145/145 146/146/146 147/147/147
f 148/148/148 149/149/149 150/150/150
f 151/151/151 152/152/152 153/153/153
f 154/154/154 155/155/155 156/156/156
f 157/157/157 158/158/158 159/159/159
f 160/160/160 161/161/161 162/162/162
f 163/163/163 164/164/164 165/165/165
f 166/166/166 167/167/167 168/168/168
f 169/169/169 170/170/170 171/171/171
f 172/172/172 173/173/173 174/174/174
f 175/175/175 176/176/176 177/177/177
f 178/178/178 179/179/179 180/180/180
f 181/181/181 182/182/182 183/183/183
f 184/184/184 185/185/185 186/186/186
f 187/187/187 188/188/188 189/189/189
f 190/190/190 191/191/191 192/192/192
f 193/193/193 194/194/194 195/195/195
f 196/196/196 197/197/197 198/198/198
f 199/199/199 200/200/200 201/201/201
f 202/202/202 203/203/203 204/204/204
f 205/205/205 206/206/206 207/207/207
f 208/208/208 209/209/209 210/210/210
f 211/211/211 212/212/212 213/213/213
f 214/214/214 215/215/215 212/212/212
f 216/216/216 217/217/217 218/218/218
f 219/219/219 48/48/48 220/220/220
f 221/221/221 53/53/53 222/222/222
f 223/223/223 57/57/57 224/224/224
f 225/225/225 223/223/223 224/224/224
f 226/226/226 221/221/221 222/222/222
f 227/227/227 228/228/228 225/225/225
f 229/229/229 230/230/230 226/226/226
f 231/231/231 232/232/232 233/233/233
f 234/234/234 235/235/235 236/236/236
f 237/237/237 238/238/238 239/239/239
f 240/240/240 241/241/241 242/242/242
f 74/74/74 243/243/243 66/66/66
f 244/244/244 60/60/60 62/62/62
f 245/245/245 246/246/246 247/247/247
f 248/248/248 249/249/249 250/250/250
f 251/251/251 252/252/252 253/253/253
f 253/253/253 254/254/254 255/255/255
f 124/124/124 256/256/256 112/112/112
f 257/257/257 115/115/115 117/117/117
f 258/258/258 259/259/259 260/260/260
f 261/261/261 262/262/262 263/263/263
f 264/264/264 265/265/265 266/266/266
f 267/267/267 268/268/268 265/265/265
f 269/269/269 265/265/265 268/268/268
f 270/270/270 266/266/266 265/265/265
f 271/271/271 272/272/272 273/273/273
f 274/274/274 275/275/275 272/272/272
f 276/276/276 277/277/277 278/278/278
f 278/278/278 279/279/279 280/280/280
f 281/281/281 282/282/282 283/283/283
f 283/283/283 284/284/284 285/285/285
f 213/213/213 286/286/286 287/287/287
f 212/212/212 288/288/288 286/286/286
f 289/289/289 214/214/214 211/211/211
f 290/290/290 291/291/291 214/214/214
f 292/292/292 253/253/253 293/293/293
f 293/293/293 255/255/255 294/294/294
f 264/264/264 252/252/252 267/267/267
f 267/267/267 295/295/295 296/296/296
f 175/175/175 297/297/297 298/298/298
f 299/299/299 181/181/181 300/300/300
f 301/301/301 302/302/302 303/303/303
f 304/304/304 305/305/305 306/306/306
f 148/148/148 307/307/307 308/308/308
f 309/309/309 310/310/310 311/311/311
f 289/289/289 293/293/293 290/290/290
f 290/290/290 294/294/294 312/312/312
f 313/313/313 43/43/43 45/45/45
f 43/43/43 54/54/54 46/46/46
f 227/227/227 239/239/239 314/314/314
f 229/229/229 242/242/242 315/315/315
f 316/316/316 317/317/317 318/318/318
f 319/319/319 320/320/320 321/321/321
f 66/66/66 238/238/238 322/322/322
f 323/323/323 241/241/241 324/324/324
f 325/325/325 326/326/326 130/130/130
f 327/327/327 133/133/133 135/135/135
f 273/273/273 270/270/270 269/269/269
f 272/272/272 328/328/328 270/270/270
f 271/271/271 278/278/278 274/274/274
f 274/274/274 280/280/280 329/329/329
f 330/330/330 283/283/283 277/277/277
f 277/277/277 285/285/285 279/279/279
f 75/75/75 331/331/331 316/316/316
f 319/319/319 74/74/74 332/332/332
f 166/166/166 333/333/333 334/334/334
f 335/335/335 172/172/172 336/336/336
f 193/193/193 337/337/337 338/338/338
f 339/339/339 340/340/340 341/341/341
f 97/97/97 246/246/246 342/342/342
f 343/343/343 249/249/249 344/344/344
f 303/303/303 345/345/345 346/346/346
f 306/306/306 347/347/347 348/348/348
f 287/287/287 282/282/282 349/349/349
f 286/286/286 284/284/284 282/282/282
f 350/350/350 234/234/234 236/236/236
f 351/351/351 231/231/231 233/233/233
f 352/352/352 88/88/88 353/353/353
f 354/354/354 355/355/355 356/356/356
f 357/357/357 354/354/354 356/356/356
f 358/358/358 352/352/352 353/353/353
f 359/359/359 360/360/360 357/357/357
f 361/361/361 362/362/362 358/358/358
f 250/250/250 361/361/361 248/248/248
f 247/247/247 359/359/359 245/245/245
f 36/36/36 363/363/363 97/97/97
f 364/364/364 100/100/100 102/102/102
f 54/54/54 365/365/365 100/100/100
f 96/96/96 51/51/51 94/94/94
f 48/48/48 366/366/366 37/37/37
f 367/367/367 40/40/40 42/42/42
f 84/84/84 93/93/93 89/89/89
f 81/81/81 92/92/92 93/93/93
f 368/368/368 369/369/369 124/124/124
f 370/370/370 127/127/127 129/129/129
f 103/103/103 371/371/371 127/127/127
f 123/123/123 109/109/109 121/121/121
f 115/115/115 138/138/138 372/372/372
f 373/373/373 118/118/118 120/120/120
f 374/374/374 375/375/375 118/118/118
f 376/376/376 112/112/112 114/114/114
f 130/130/130 377/377/377 106/106/106
f 378/378/378 109/109/109 111/111/111
f 157/157/157 379/379/379 380/380/380
f 381/381/381 382/382/382 383/383/383
f 142/142/142 384/384/384 385/385/385
f 386/386/386 387/387/387 388/388/388
f 145/145/145 389/389/389 151/151/151
f 390/390/390 154/154/154 156/156/156
f 172/172/172 391/391/391 148/148/148
f 392/392/392 151/151/151 153/153/153
f 184/184/184 393/393/393 178/178/178
f 183/183/183 190/190/190 181/181/181
f 199/199/199 394/394/394 175/175/175
f 395/395/395 178/178/178 180/180/180
f 205/205/205 396/396/396 193/193/193
f 198/198/198 202/202/202 196/196/196
f 208/208/208 397/397/397 398/398/398
f 399/399/399 400/400/400 401/401/401
f 301/301/301 39/39/39 402/402/402
f 304/304/304 36/36/36 403/403/403
f 220/220/220 260/260/260 219/219/219
f 217/217/217 263/263/263 218/218/218
f 169/169/169 404/404/404 160/160/160
f 405/405/405 163/163/163 165/165/165
f 406/406/406 345/345/345 232/232/232
f 407/407/407 347/347/347 235/235/235
f 318/318/318 259/259/259 408/408/408
f 321/321/321 262/262/262 409/409/409
f 84/84/84 71/71/71 410/410/410
f 80/80/80 75/75/75 78/78/78
f 63/63/63 411/411/411 86/86/86
f 412/412/412 89/89/89 91/91/91
f 106/106/106 413/413/413 414/414/414
f 415/415/415 416/416/416 417/417/417
f 160/160/160 418/418/418 145/145/145
f 419/419/419 139/139/139 141/141/141
f 187/187/187 420/420/420 421/421/421
f 422/422/422 190/190/190 192/192/192
f 187/187/187 423/423/423 208/208/208
f 424/424/424 202/202/202 204/204/204
f 425/425/425 426/426/426 427/427/427
f 428/428/428 429/429/429 426/426/426
f 430/430/430 431/431/431 432/432/432
f 432/432/432 433/433/433 434/434/434
f 435/435/435 436/436/436 437/437/437
f 438/438/438 439/439/439 436/436/436
f 440/440/440 436/436/436 439/439/439
f 441/441/441 437/437/437 436/436/436
f 442/442/442 443/443/443 444/444/444
f 445/445/445 446/446/446 443/443/443
f 447/447/447 448/448/448 449/449/449
f 449/449/449 450/450/450 451/451/451
f 452/452/452 453/453/453 454/454/454
f 454/454/454 455/455/455 456/456/456
f 427/427/427 457/457/457 458/458/458
f 426/426/426 459/459/459 457/457/457
f 425/425/425 460/460/460 428/428/428
f 428/428/428 461/461/461 462/462/462
f 463/463/463 432/432/432 464/464/464
f 464/464/464 434/434/434 465/465/465
f 433/433/433 438/438/438 435/435/435
f 431/431/431 466/466/466 438/438/438
f 463/463/463 460/460/460 467/467/467
f 464/464/464 461/461/461 460/460/460
f 444/444/444 441/441/441 440/440/440
f 443/443/443 468/468/468 441/441/441
f 442/442/442 449/449/449 445/445/445
f 445/445/445 451/451/451 469/469/469
f 470/470/470 454/454/454 448/448/448
f 448/448/448 456/456/456 450/450/450
f 471/471/471 457/457/457 453/453/453
f 453/453/453 459/459/459 455/455/455
f 356/356/356 350/350/350 236/236/236
f 235/235/235 356/356/356 236/236/236
f 469/469/469 451/451/451 346/346/346
f 230/230/230 63/63/63 472/472/472
f 359/359/359 235/235/235 347/347/347
f 305/305/305 359/359/359 347/347/347
f 54/54/54 40/40/40 46/46/46
f 36/36/36 342/342/342 403/403/403
f 461/461/461 316/316/316 220/220/220
f 57/57/57 218/218/218 224/224/224
f 263/263/263 224/224/224 218/218/218
f 227/227/227 263/263/263 262/262/262
f 320/320/320 227/227/227 262/262/262
f 322/322/322 320/320/320 332/332/332
f 74/74/74 322/322/322 332/332/332
f 60/60/60 84/84/84 89/89/89
f 403/403/403 245/245/245 305/305/305
f 103/103/103 473/473/473 416/416/416
f 368/368/368 112/112/112 474/474/474
f 136/136/136 121/121/121 109/109/109
f 325/325/325 106/106/106 414/414/414
f 118/118/118 475/475/475 374/374/374
f 476/476/476 477/477/477 478/478/478
f 268/268/268 21/21/21 269/269/269
f 296/296/296 24/24/24 268/268/268
f 479/479/479 480/480/480 476/476/476
f 296/296/296 31/31/31 1/1/1
f 481/481/481 477/477/477 482/482/482
f 269/269/269 23/23/23 273/273/273
f 483/483/483 484/484/484 485/485/485
f 486/486/486 487/487/487 483/483/483
f 273/273/273 32/32/32 271/271/271
f 276/276/276 32/32/32 10/10/10
f 486/486/486 488/488/488 489/489/489
f 490/490/490 491/491/491 488/488/488
f 330/330/330 10/10/10 30/30/30
f 281/281/281 30/30/30 7/7/7
f 492/492/492 493/493/493 494/494/494
f 495/495/495 496/496/496 493/493/493
f 349/349/349 7/7/7 13/13/13
f 349/349/349 15/15/15 287/287/287
f 497/497/497 496/496/496 498/498/498
f 499/499/499 500/500/500 497/497/497
f 287/287/287 4/4/4 213/213/213
f 501/501/501 502/502/502 503/503/503
f 213/213/213 6/6/6 211/211/211
f 211/211/211 20/20/20 289/289/289
f 504/504/504 505/505/505 501/501/501
f 292/292/292 20/20/20 28/28/28
f 504/504/504 506/506/506 507/507/507
f 508/508/508 509/509/509 506/506/506
f 251/251/251 28/28/28 16/16/16
f 510/510/510 482/482/482 511/511/511
f 295/295/295 16/16/16 31/31/31
f 382/382/382 166/166/166 334/334/334
f 380/380/380 139/139/139 157/157/157
f 142/142/142 310/310/310 154/154/154
f 169/169/169 145/145/145 151/151/151
f 148/148/148 336/336/336 172/172/172
f 181/181/181 512/512/512 300/300/300
f 340/340/340 175/175/175 298/298/298
f 513/513/513 208/208/208 398/398/398
f 196/196/196 184/184/184 178/178/178
f 205/205/205 338/338/338 400/400/400
f 1/1/1 31/31/31 2/2/2
f 4/4/4 26/26/26 5/5/5
f 7/7/7 30/30/30 8/8/8
f 10/10/10 32/32/32 11/11/11
f 13/13/13 27/27/27 14/14/14
f 16/16/16 28/28/28 17/17/17
f 6/6/6 5/5/5 19/19/19
f 21/21/21 25/25/25 22/22/22
f 24/24/24 29/29/29 25/25/25
f 15/15/15 14/14/14 26/26/26
f 13/13/13 7/7/7 9/9/9
f 28/28/28 20/20/20 19/19/19
f 1/1/1 3/3/3 29/29/29
f 30/30/30 10/10/10 12/12/12
f 31/31/31 16/16/16 18/18/18
f 23/23/23 22/22/22 11/11/11
f 34/34/34 514/514/514 35/35/35
f 37/37/37 366/366/366 38/38/38
f 40/40/40 364/364/364 41/41/41
f 43/43/43 47/47/47 44/44/44
f 46/46/46 367/367/367 47/47/47
f 48/48/48 515/515/515 49/49/49
f 51/51/51 516/516/516 52/52/52
f 54/54/54 517/517/517 55/55/55
f 57/57/57 518/518/518 58/58/58
f 60/60/60 412/412/412 61/61/61
f 63/63/63 323/323/323 64/64/64
f 66/66/66 243/243/243 67/67/67
f 69/69/69 244/244/244 70/70/70
f 72/72/72 519/519/519 73/73/73
f 75/75/75 520/520/520 76/76/76
f 78/78/78 351/351/351 79/79/79
f 81/81/81 85/85/85 82/82/82
f 84/84/84 410/410/410 85/85/85
f 86/86/86 411/411/411 87/87/87
f 89/89/89 93/93/93 90/90/90
f 92/92/92 521/521/521 90/90/90
f 94/94/94 343/343/343 95/95/95
f 97/97/97 363/363/363 98/98/98
f 100/100/100 365/365/365 101/101/101
f 103/103/103 415/415/415 104/104/104
f 106/106/106 377/377/377 107/107/107
f 109/109/109 522/522/522 110/110/110
f 112/112/112 256/256/256 113/113/113
f 115/115/115 372/372/372 116/116/116
f 118/118/118 375/375/375 119/119/119
f 121/121/121 257/257/257 122/122/122
f 124/124/124 369/369/369 125/125/125
f 127/127/127 371/371/371 128/128/128
f 130/130/130 326/326/326 131/131/131
f 133/133/133 373/373/373 134/134/134
f 136/136/136 378/378/378 137/137/137
f 139/139/139 386/386/386 140/140/140
f 142/142/142 390/390/390 143/143/143
f 145/145/145 418/418/418 146/146/146
f 148/148/148 391/391/391 149/149/149
f 151/151/151 389/389/389 152/152/152
f 154/154/154 309/309/309 155/155/155
f 157/157/157 419/419/419 158/158/158
f 160/160/160 404/404/404 161/161/161
f 163/163/163 381/381/381 164/164/164
f 166/166/166 405/405/405 167/167/167
f 169/169/169 392/392/392 170/170/170
f 172/172/172 523/523/523 173/173/173
f 175/175/175 394/394/394 176/176/176
f 178/178/178 393/393/393 179/179/179
f 181/181/181 524/524/524 182/182/182
f 184/184/184 424/424/424 185/185/185
f 187/187/187 421/421/421 188/188/188
f 190/190/190 525/525/525 191/191/191
f 193/193/193 396/396/396 194/194/194
f 196/196/196 395/395/395 197/197/197
f 199/199/199 339/339/339 200/200/200
f 202/202/202 526/526/526 203/203/203
f 205/205/205 399/399/399 206/206/206
f 208/208/208 423/423/423 209/209/209
f 211/211/211 214/214/214 212/212/212
f 214/214/214 291/291/291 215/215/215
f 216/216/216 527/527/527 217/217/217
f 219/219/219 515/515/515 48/48/48
f 221/221/221 51/51/51 53/53/53
f 223/223/223 518/518/518 57/57/57
f 225/225/225 228/228/228 223/223/223
f 226/226/226 230/230/230 221/221/221
f 227/227/227 314/314/314 228/228/228
f 229/229/229 315/315/315 230/230/230
f 231/231/231 406/406/406 232/232/232
f 234/234/234 407/407/407 235/235/235
f 237/237/237 322/322/322 238/238/238
f 240/240/240 324/324/324 241/241/241
f 74/74/74 73/73/73 243/243/243
f 244/244/244 69/69/69 60/60/60
f 245/245/245 342/342/342 246/246/246
f 248/248/248 344/344/344 249/249/249
f 251/251/251 295/295/295 252/252/252
f 253/253/253 252/252/252 254/254/254
f 124/124/124 126/126/126 256/256/256
f 257/257/257 121/121/121 115/115/115
f 258/258/258 408/408/408 259/259/259
f 261/261/261 409/409/409 262/262/262
f 264/264/264 267/267/267 265/265/265
f 267/267/267 296/296/296 268/268/268
f 269/269/269 270/270/270 265/265/265
f 270/270/270 328/328/328 266/266/266
f 271/271/271 274/274/274 272/272/272
f 274/274/274 329/329/329 275/275/275
f 276/276/276 330/330/330 277/277/277
f 278/278/278 277/277/277 279/279/279
f 281/281/281 349/349/349 282/282/282
f 283/283/283 282/282/282 284/284/284
f 213/213/213 212/212/212 286/286/286
f 212/212/212 215/215/215 288/288/288
f 289/289/289 290/290/290 214/214/214
f 290/290/290 312/312/312 291/291/291
f 292/292/292 251/251/251 253/253/253
f 293/293/293 253/253/253 255/255/255
f 264/264/264 254/254/254 252/252/252
f 267/267/267 252/252/252 295/295/295
f 175/175/175 177/177/177 297/297/297
f 299/299/299 524/524/524 181/181/181
f 301/301/301 402/402/402 302/302/302
f 304/304/304 403/403/403 305/305/305
f 148/148/148 150/150/150 307/307/307
f 309/309/309 154/154/154 310/310/310
f 289/289/289 292/292/292 293/293/293
f 290/290/290 293/293/293 294/294/294
f 313/313/313 517/517/517 43/43/43
f 43/43/43 517/517/517 54/54/54
f 227/227/227 237/237/237 239/239/239
f 229/229/229 240/240/240 242/242/242
f 316/316/316 331/331/331 317/317/317
f 319/319/319 332/332/332 320/320/320
f 66/66/66 68/68/68 238/238/238
f 323/323/323 63/63/63 241/241/241
f 325/325/325 528/528/528 326/326/326
f 327/327/327 475/475/475 133/133/133
f 273/273/273 272/272/272 270/270/270
f 272/272/272 275/275/275 328/328/328
f 271/271/271 276/276/276 278/278/278
f 274/274/274 278/278/278 280/280/280
f 330/330/330 281/281/281 283/283/283
f 277/277/277 283/283/283 285/285/285
f 75/75/75 77/77/77 331/331/331
f 319/319/319 72/72/72 74/74/74
f 166/166/166 168/168/168 333/333/333
f 335/335/335 523/523/523 172/172/172
f 193/193/193 195/195/195 337/337/337
f 339/339/339 199/199/199 340/340/340
f 97/97/97 99/99/99 246/246/246
f 343/343/343 94/94/94 249/249/249
f 303/303/303 302/302/302 345/345/345
f 306/306/306 305/305/305 347/347/347
f 287/287/287 286/286/286 282/282/282
f 286/286/286 288/288/288 284/284/284
f 350/350/350 529/529/529 234/234/234
f 351/351/351 78/78/78 231/231/231
f 352/352/352 86/86/86 88/88/88
f 354/354/354 530/530/530 355/355/355
f 357/357/357 360/360/360 354/354/354
f 358/358/358 362/362/362 352/352/352
f 359/359/359 531/531/531 360/360/360
f 361/361/361 472/472/472 362/362/362
f 250/250/250 472/472/472 361/361/361
f 247/247/247 531/531/531 359/359/359
f 36/36/36 35/35/35 363/363/363
f 364/364/364 40/40/40 100/100/100
f 54/54/54 56/56/56 365/365/365
f 96/96/96 516/516/516 51/51/51
f 48/48/48 50/50/50 366/366/366
f 367/367/367 46/46/46 40/40/40
f 84/84/84 81/81/81 93/93/93
f 81/81/81 83/83/83 92/92/92
f 368/368/368 532/532/532 369/369/369
f 370/370/370 473/473/473 127/127/127
f 103/103/103 105/105/105 371/371/371
f 123/123/123 522/522/522 109/109/109
f 115/115/115 136/136/136 138/138/138
f 373/373/373 133/133/133 118/118/118
f 374/374/374 533/533/533 375/375/375
f 376/376/376 474/474/474 112/112/112
f 130/130/130 132/132/132 377/377/377
f 378/378/378 136/136/136 109/109/109
f 157/157/157 159/159/159 379/379/379
f 381/381/381 163/163/163 382/382/382
f 142/142/142 144/144/144 384/384/384
f 386/386/386 139/139/139 387/387/387
f 145/145/145 147/147/147 389/389/389
f 390/390/390 142/142/142 154/154/154
f 172/172/172 174/174/174 391/391/391
f 392/392/392 169/169/169 151/151/151
f 184/184/184 186/186/186 393/393/393
f 183/183/183 525/525/525 190/190/190
f 199/199/199 201/201/201 394/394/394
f 395/395/395 196/196/196 178/178/178
f 205/205/205 207/207/207 396/396/396
f 198/198/198 526/526/526 202/202/202
f 208/208/208 210/210/210 397/397/397
f 399/399/399 205/205/205 400/400/400
f 301/301/301 37/37/37 39/39/39
f 304/304/304 34/34/34 36/36/36
f 220/220/220 258/258/258 260/260/260
f 217/217/217 261/261/261 263/263/263
f 169/169/169 171/171/171 404/404/404
f 405/405/405 166/166/166 163/163/163
f 406/406/406 346/346/346 345/345/345
f 407/407/407 348/348/348 347/347/347
f 318/318/318 317/317/317 259/259/259
f 321/321/321 320/320/320 262/262/262
f 84/84/84 69/69/69 71/71/71
f 80/80/80 520/520/520 75/75/75
f 63/63/63 65/65/65 411/411/411
f 412/412/412 60/60/60 89/89/89
f 106/106/106 108/108/108 413/413/413
f 415/415/415 103/103/103 416/416/416
f 160/160/160 162/162/162 418/418/418
f 419/419/419 157/157/157 139/139/139
f 187/187/187 513/513/513 420/420/420
f 422/422/422 512/512/512 190/190/190
f 187/187/187 189/189/189 423/423/423
f 424/424/424 184/184/184 202/202/202
f 425/425/425 428/428/428 426/426/426
f 428/428/428 462/462/462 429/429/429
f 430/430/430 534/534/534 431/431/431
f 432/432/432 431/431/431 433/433/433
f 435/435/435 438/438/438 436/436/436
f 438/438/438 466/466/466 439/439/439
f 440/440/440 441/441/441 436/436/436
f 441/441/441 468/468/468 437/437/437
f 442/442/442 445/445/445 443/443/443
f 445/445/445 469/469/469 446/446/446
f 447/447/447 470/470/470 448/448/448
f 449/449/449 448/448/448 450/450/450
f 452/452/452 471/471/471 453/453/453
f 454/454/454 453/453/453 455/455/455
f 427/427/427 426/426/426 457/457/457
f 426/426/426 429/429/429 459/459/459
f 425/425/425 467/467/467 460/460/460
f 428/428/428 460/460/460 461/461/461
f 463/463/463 430/430/430 432/432/432
f 464/464/464 432/432/432 434/434/434
f 433/433/433 431/431/431 438/438/438
f 431/431/431 534/534/534 466/466/466
f 463/463/463 464/464/464 460/460/460
f 464/464/464 465/465/465 461/461/461
f 444/444/444 443/443/443 441/441/441
f 443/443/443 446/446/446 468/468/468
f 442/442/442 447/447/447 449/449/449
f 445/445/445 449/449/449 451/451/451
f 470/470/470 452/452/452 454/454/454
f 448/448/448 454/454/454 456/456/456
f 471/471/471 458/458/458 457/457/457
f 453/453/453 457/457/457 459/459/459
f 356/356/356 355/355/355 350/350/350
f 235/235/235 357/357/357 356/356/356
f 346/346/346 406/406/406 231/231/231
f 231/231/231 78/78/78 75/75/75
f 75/75/75 434/434/434 433/433/433
f 75/75/75 433/433/433 435/435/435
f 346/346/346 231/231/231 75/75/75
f 301/301/301 303/303/303 346/346/346
f 48/48/48 37/37/37 301/301/301
f 459/459/459 429/429/429 48/48/48
f 455/455/455 459/459/459 48/48/48
f 48/48/48 301/301/301 346/346/346
f 75/75/75 435/435/435 437/437/437
f 346/346/346 75/75/75 437/437/437
f 456/456/456 455/455/455 48/48/48
f 456/456/456 48/48/48 346/346/346
f 346/346/346 437/437/437 468/468/468
f 346/346/346 468/468/468 446/446/446
f 450/450/450 456/456/456 346/346/346
f 451/451/451 450/450/450 346/346/346
f 346/346/346 446/446/446 469/469/469
f 249/249/249 94/94/94 51/51/51
f 51/51/51 221/221/221 230/230/230
f 230/230/230 315/315/315 242/242/242
f 242/242/242 241/241/241 63/63/63
f 63/63/63 86/86/86 352/352/352
f 352/352/352 362/362/362 472/472/472
f 472/472/472 250/250/250 249/249/249
f 249/249/249 51/51/51 230/230/230
f 230/230/230 242/242/242 63/63/63
f 63/63/63 352/352/352 472/472/472
f 472/472/472 249/249/249 230/230/230
f 359/359/359 357/357/357 235/235/235
f 305/305/305 245/245/245 359/359/359
f 54/54/54 100/100/100 40/40/40
f 36/36/36 97/97/97 342/342/342
f 220/220/220 48/48/48 429/429/429
f 220/220/220 429/429/429 462/462/462
f 408/408/408 258/258/258 220/220/220
f 316/316/316 318/318/318 408/408/408
f 434/434/434 75/75/75 316/316/316
f 465/465/465 434/434/434 316/316/316
f 316/316/316 408/408/408 220/220/220
f 220/220/220 462/462/462 461/461/461
f 461/461/461 465/465/465 316/316/316
f 57/57/57 216/216/216 218/218/218
f 263/263/263 225/225/225 224/224/224
f 227/227/227 225/225/225 263/263/263
f 320/320/320 237/237/237 227/227/227
f 322/322/322 237/237/237 320/320/320
f 74/74/74 66/66/66 322/322/322
f 60/60/60 69/69/69 84/84/84
f 403/403/403 342/342/342 245/245/245
f 103/103/103 127/127/127 473/473/473
f 368/368/368 124/124/124 112/112/112
f 136/136/136 115/115/115 121/121/121
f 325/325/325 130/130/130 106/106/106
f 118/118/118 133/133/133 475/475/475
f 476/476/476 480/480/480 477/477/477
f 268/268/268 24/24/24 21/21/21
f 296/296/296 1/1/1 24/24/24
f 479/479/479 535/535/535 480/480/480
f 296/296/296 295/295/295 31/31/31
f 481/481/481 478/478/478 477/477/477
f 269/269/269 21/21/21 23/23/23
f 483/483/483 487/487/487 484/484/484
f 486/486/486 489/489/489 487/487/487
f 273/273/273 23/23/23 32/32/32
f 276/276/276 271/271/271 32/32/32
f 486/486/486 490/490/490 488/488/488
f 490/490/490 536/536/536 491/491/491
f 330/330/330 276/276/276 10/10/10
f 281/281/281 330/330/330 30/30/30
f 492/492/492 495/495/495 493/493/493
f 495/495/495 498/498/498 496/496/496
f 349/349/349 281/281/281 7/7/7
f 349/349/349 13/13/13 15/15/15
f 497/497/497 500/500/500 496/496/496
f 499/499/499 537/537/537 500/500/500
f 287/287/287 15/15/15 4/4/4
f 501/501/501 505/505/505 502/502/502
f 213/213/213 4/4/4 6/6/6
f 211/211/211 6/6/6 20/20/20
f 504/504/504 507/507/507 505/505/505
f 292/292/292 289/289/289 20/20/20
f 504/504/504 508/508/508 506/506/506
f 508/508/508 538/538/538 509/509/509
f 251/251/251 292/292/292 28/28/28
f 510/510/510 481/481/481 482/482/482
f 295/295/295 251/251/251 16/16/16
f 382/382/382 163/163/163 166/166/166
f 380/380/380 387/387/387 139/139/139
f 142/142/142 385/385/385 310/310/310
f 169/169/169 160/160/160 145/145/145
f 148/148/148 308/308/308 336/336/336
f 181/181/181 190/190/190 512/512/512
f 340/340/340 199/199/199 175/175/175
f 513/513/513 187/187/187 208/208/208
f 196/196/196 202/202/202 184/184/184
f 205/205/205 193/193/193 338/338/338
