# VPXTOOL table OBJ file
# VPXTOOL OBJ file
# numVerts: 80 numFaces: 102
o playfield_mesh
v 766.3818 852.1931 -0.000064
v 766.3818 655.28357 -0.000049
v 952 852.1931 -0.000064
v 766.3818 169.61986 -0.000013
v 952 655.28357 -0.000049
v 766.3818 0 0
v 952 169.61986 -0.000013
v 608.2626 0 0
v 574.3343 89.45732 -0.000008
v 564.9069 88.653114 -0.000008
v 513.17615 655.28357 -0.000049
v 513.17615 169.61986 -0.000013
v 608.2626 655.28357 -0.000049
v 513.17615 852.1931 -0.000064
v 608.2626 852.1931 -0.000064
v 359.85883 852.1931 -0.000064
v 359.85883 655.28357 -0.000049
v 359.85883 169.61986 -0.000013
v 359.85883 0 0
v 0 169.61986 -0.000013
v 0 0 0
v 0 655.28357 -0.000049
v 224.44453 771.8159 -0.00006
v 295.93256 747.15094 -0.000056
v 0 1731.4984 -0.000131
v 0 852.1931 -0.000064
v 359.85883 1731.4984 -0.000131
v 513.17615 1731.4984 -0.000131
v 608.2626 1731.4984 -0.000131
v 766.3818 1731.4984 -0.000131
v 952 1731.4984 -0.000131
v 766.3818 2162 -0.000163
v 952 2162 -0.000163
v 513.17615 2162 -0.000163
v 608.2626 2162 -0.000163
v 359.85883 2162 -0.000163
v 0 2162 -0.000163
v 1.746624 1824.2766 -0.000138
v 309.355 2054.7134 -0.000157
v 608.2626 169.61986 -0.000013
v 722.51086 836.6624 -0.000057
v 553.70953 158.2865 -0.000014
v 559.49243 159.8511 -0.000014
v 268.04333 667.9249 -0.000052
v 697.9348 712.069 -0.000056
v 344.3498 2010.6177 -0.000152
v 20.373283 1748.6064 -0.00013
v 952 0 0
v 535.90643 112.45321 -0.000009
v 513.17615 0 0
v 537.58905 106.90634 -0.000009
v 597.5663 112.689255 -0.000008
v 598.1344 118.45782 -0.000008
v 540.32153 101.79431 -0.000011
v 543.9987 97.31357 -0.00001
v 595.8836 107.14238 -0.000009
v 593.1512 102.03035 -0.000009
v 548.4795 93.63634 -0.00001
v 553.5915 90.9039 -0.00001
v 589.47394 97.54962 -0.000008
v 584.9932 93.87239 -0.000008
v 559.13837 89.22127 -0.00001
v 579.88116 91.13995 -0.000008
v 196.3941 692.5899 -0.000054
v 756.1544 741.81256 -0.000056
v 658.2839 809.4171 -0.000059
v 594.49756 136.14705 -0.00001
v 592.81494 141.69392 -0.000011
v 535.9284 130.3785 -0.000012
v 536.4966 136.14705 -0.000012
v 590.9087 147.39609 -0.000015
v 587.3495 152.46695 -0.000015
v 538.1792 141.69392 -0.000013
v 540.9116 146.80595 -0.000013
v 582.6327 155.7901 -0.000014
v 576.93054 158.05045 -0.000014
v 544.58887 151.28668 -0.000013
v 548.83356 155.08195 -0.000014
v 571.2656 159.379 -0.000014
v 565.4971 159.94714 -0.000014
vt 0.805023 0.605831
vt 0.805023 0.696909
vt 1 0.605831
vt 0.805023 0.921545
vt 1 0.696909
vt 0.805023 1
vt 1 0.921545
vt 0.638931 1
vt 0.603292 0.958623
vt 0.59339 0.958995
vt 0.539051 0.696909
vt 0.539051 0.921545
vt 0.638931 0.696909
vt 0.539051 0.605831
vt 0.638931 0.605831
vt 0.378003 0.605831
vt 0.378003 0.696909
vt 0.378003 0.921545
vt 0.378003 1
vt 0 0.921545
vt 0 1
vt 0 0.696909
vt 0.235761 0.643008
vt 0.310854 0.654417
vt 0 0.19912201
vt 0 0.605831
vt 0.378003 0.19912201
vt 0.539051 0.19912201
vt 0.638931 0.19912201
vt 0.805023 0.19912201
vt 1 0.19912201
vt 0.805023 0
vt 1 0
vt 0.539051 0
vt 0.638931 0
vt 0.378003 0
vt 0 0
vt 0.001835 0.15620899
vt 0.324953 0.049624026
vt 0.638931 0.921545
vt 0.75894 0.613015
vt 0.581628 0.926787
vt 0.587702 0.926063
vt 0.281558 0.691061
vt 0.733125 0.670643
vt 0.361712 0.07002002
vt 0.021401 0.19120902
vt 1 1
vt 0.562927 0.947986
vt 0.539051 1
vt 0.564694 0.950552
vt 0.627696 0.947877
vt 0.628293 0.945209
vt 0.567565 0.952917
vt 0.571427 0.954989
vt 0.625928 0.950443
vt 0.623058 0.952807
vt 0.576134 0.95669
vt 0.581504 0.957954
vt 0.619195 0.95488
vt 0.614489 0.956581
vt 0.58733 0.958732
vt 0.609119 0.957845
vt 0.206296 0.679653
vt 0.79428 0.656886
vt 0.691475 0.625616
vt 0.624472 0.937027
vt 0.622705 0.934462
vt 0.56295 0.939695
vt 0.563547 0.937027
vt 0.620702 0.931824
vt 0.616964 0.929479
vt 0.565314 0.934462
vt 0.568184 0.932097
vt 0.612009 0.927942
vt 0.606019 0.926896
vt 0.572047 0.930025
vt 0.576506 0.928269
vt 0.600069 0.926282
vt 0.59401 0.926019
vn -0 -0 -1
vn -0 -0 -1
vn -0 -0 -1
vn -0 -0 -1
vn -0 -0 -1
vn -0 -0 -1
vn -0 -0 -1
vn -0 -0 -1
vn -0 -0 -1
vn -0 -0 -1
vn -0 -0 -1
vn -0 -0 -1
vn -0 -0 -1
vn -0 -0 -1
vn -0 -0 -1
vn -0 -0 -1
vn -0 -0 -1
vn -0 -0 -1
vn -0 -0 -1
vn -0 -0 -1
vn -0 -0 -1
vn -0 -0 -1
vn -0 -0 -1
vn -0 -0 -1
vn -0 -0 -1
vn -0 -0 -1
vn -0 -0 -1
vn -0 -0 -1
vn -0 -0 -1
vn -0 -0 -1
vn -0 -0 -1
vn -0 -0 -1
vn -0 -0 -1
vn -0 -0 -1
vn -0 -0 -1
vn -0 -0 -1
vn -0 -0 -1
vn -0 -0 -1
vn -0 -0 -1
vn -0 -0 -1
vn -0 -0 -1
vn -0 -0 -1
vn -0 -0 -1
vn -0 -0 -1
vn -0 -0 -1
vn -0 -0 -1
vn -0 -0 -1
vn -0 -0 -1
vn -0 -0 -1
vn -0 -0 -1
vn -0 -0 -1
vn -0 -0 -1
vn -0 -0 -1
vn -0 -0 -1
vn -0 -0 -1
vn -0 -0 -1
vn -0 -0 -1
vn -0 -0 -1
vn -0 -0 -1
vn -0 -0 -1
vn -0 -0 -1
vn -0 -0 -1
vn -0 -0 -1
vn -0 -0 -1
vn -0 -0 -1
vn -0 -0 -1
vn -0 -0 -1
vn -0 -0 -1
vn -0 -0 -1
vn -0 -0 -1
vn -0 -0 -1
vn -0 -0 -1
vn -0 -0 -1
vn -0 -0 -1
vn -0 -0 -1
vn -0 -0 -1
vn -0 -0 -1
vn -0 -0 -1
vn -0 -0 -1
vn -0 -0 -1
f 3/3/3 2/2/2 1/1/1
f 5/5/5 4/4/4 2/2/2
f 7/7/7 6/6/6 4/4/4
f 10/10/10 9/9/9 8/8/8
f 13/13/13 12/12/12 11/11/11
f 15/15/15 11/11/11 14/14/14
f 14/14/14 17/17/17 16/16/16
f 11/11/11 18/18/18 17/17/17
f 12/12/12 19/19/19 18/18/18
f 18/18/18 21/21/21 20/20/20
f 17/17/17 20/20/20 22/22/22
f 16/16/16 24/24/24 23/23/23
f 27/27/27 26/26/26 25/25/25
f 28/28/28 16/16/16 27/27/27
f 29/29/29 14/14/14 28/28/28
f 31/31/31 1/1/1 30/30/30
f 33/33/33 30/30/30 32/32/32
f 35/35/35 28/28/28 34/34/34
f 34/34/34 27/27/27 36/36/36
f 39/39/39 38/38/38 37/37/37
f 32/32/32 29/29/29 35/35/35
f 30/30/30 15/15/15 29/29/29
f 4/4/4 8/8/8 40/40/40
f 2/2/2 40/40/40 13/13/13
f 15/15/15 1/1/1 41/41/41
f 43/43/43 42/42/42 12/12/12
f 22/22/22 44/44/44 17/17/17
f 45/45/45 2/2/2 13/13/13
f 47/47/47 46/46/46 27/27/27
f 3/3/3 5/5/5 2/2/2
f 5/5/5 7/7/7 4/4/4
f 7/7/7 48/48/48 6/6/6
f 50/50/50 12/12/12 49/49/49
f 50/50/50 49/49/49 51/51/51
f 53/53/53 40/40/40 52/52/52
f 40/40/40 8/8/8 52/52/52
f 50/50/50 51/51/51 54/54/54
f 50/50/50 54/54/54 55/55/55
f 56/56/56 52/52/52 8/8/8
f 57/57/57 56/56/56 8/8/8
f 8/8/8 50/50/50 10/10/10
f 50/50/50 55/55/55 58/58/58
f 50/50/50 58/58/58 59/59/59
f 60/60/60 57/57/57 8/8/8
f 61/61/61 60/60/60 8/8/8
f 50/50/50 59/59/59 62/62/62
f 50/50/50 62/62/62 10/10/10
f 63/63/63 61/61/61 8/8/8
f 9/9/9 63/63/63 8/8/8
f 13/13/13 40/40/40 12/12/12
f 15/15/15 13/13/13 11/11/11
f 14/14/14 11/11/11 17/17/17
f 11/11/11 12/12/12 18/18/18
f 12/12/12 50/50/50 19/19/19
f 18/18/18 19/19/19 21/21/21
f 17/17/17 18/18/18 20/20/20
f 22/22/22 26/26/26 64/64/64
f 26/26/26 16/16/16 23/23/23
f 16/16/16 17/17/17 24/24/24
f 23/23/23 64/64/64 26/26/26
f 27/27/27 16/16/16 26/26/26
f 28/28/28 14/14/14 16/16/16
f 29/29/29 15/15/15 14/14/14
f 31/31/31 3/3/3 1/1/1
f 33/33/33 31/31/31 30/30/30
f 35/35/35 29/29/29 28/28/28
f 34/34/34 28/28/28 27/27/27
f 36/36/36 46/46/46 39/39/39
f 38/38/38 25/25/25 37/37/37
f 36/36/36 39/39/39 37/37/37
f 32/32/32 30/30/30 29/29/29
f 30/30/30 1/1/1 15/15/15
f 4/4/4 6/6/6 8/8/8
f 2/2/2 4/4/4 40/40/40
f 1/1/1 2/2/2 65/65/65
f 41/41/41 66/66/66 15/15/15
f 1/1/1 65/65/65 41/41/41
f 40/40/40 53/53/53 67/67/67
f 40/40/40 67/67/67 68/68/68
f 69/69/69 49/49/49 12/12/12
f 70/70/70 69/69/69 12/12/12
f 40/40/40 68/68/68 71/71/71
f 40/40/40 71/71/71 72/72/72
f 73/73/73 70/70/70 12/12/12
f 74/74/74 73/73/73 12/12/12
f 40/40/40 72/72/72 75/75/75
f 40/40/40 75/75/75 76/76/76
f 77/77/77 74/74/74 12/12/12
f 78/78/78 77/77/77 12/12/12
f 40/40/40 76/76/76 79/79/79
f 40/40/40 79/79/79 80/80/80
f 42/42/42 78/78/78 12/12/12
f 40/40/40 80/80/80 12/12/12
f 80/80/80 43/43/43 12/12/12
f 22/22/22 64/64/64 44/44/44
f 44/44/44 24/24/24 17/17/17
f 15/15/15 66/66/66 13/13/13
f 66/66/66 45/45/45 13/13/13
f 45/45/45 65/65/65 2/2/2
f 25/25/25 38/38/38 47/47/47
f 46/46/46 36/36/36 27/27/27
f 25/25/25 47/47/47 27/27/27
